<svg width="210mm" height="297mm" viewBox="0 0 210 297" xmlns="http://www.w3.org/2000/svg"><path style="fill:#d0d0d0;fill-opacity:1;stroke-width:.264583" d="M131.171 263.726c.255-.066.672-.066.926 0 .255.067.047.121-.463.121-.509 0-.717-.054-.463-.12zm1.985.007c.182-.073.48-.073.661 0 .182.074.033.134-.33.134-.364 0-.513-.06-.331-.134zm-86.751-3.463c-.33-.42-.32-.429.1-.1.254.2.463.409.463.464 0 .217-.218.077-.563-.364zm63.484-79.621c.19-.077.42-.067.507.02.088.088-.068.15-.347.14-.309-.013-.371-.076-.16-.16zm1.058 0c.191-.077.42-.067.507.02.088.088-.068.15-.347.14-.308-.013-.37-.076-.16-.16zm-50.221-36.961c0-.055.208-.263.463-.463.42-.33.429-.32.1.1-.346.44-.563.58-.563.363zm99.963-39.768c.19-.077.42-.067.507.02.088.088-.068.15-.347.14-.309-.013-.371-.076-.16-.16zM75.354 61.9c.002-.728.053-.995.114-.592.06.402.06.997-.004 1.323-.062.325-.112-.004-.11-.732zm79.894-35.505c.255-.067.672-.067.926 0 .255.067.047.121-.463.121-.509 0-.717-.054-.463-.121z" transform="translate(-7.853 3.57)"/><path style="fill:#b9b9b9;fill-opacity:1;stroke-width:.264583" d="M49.844 257.625c-.329-.42-.32-.43.1-.1.255.2.463.408.463.463 0 .218-.217.078-.563-.363zm6.12-91.977c0-.055.208-.263.462-.463.42-.329.43-.32.1.1-.345.441-.563.581-.563.363zm4.1-21.331c.264-.291.539-.53.612-.53.072 0-.084.239-.347.53-.263.291-.538.53-.611.53-.073 0 .083-.239.347-.53zm150.172-40.9c.013-.308.076-.371.16-.16.077.191.067.42-.02.507-.089.088-.151-.068-.14-.347z" transform="translate(-7.853 3.57)"/><path style="fill:#a3a3a3;fill-opacity:1;stroke-width:.264583" d="M128.41 90.161c.19-.076.419-.067.507.021.088.088-.069.15-.347.14-.309-.014-.371-.076-.16-.16z" transform="translate(-7.853 3.57)"/><path style="fill:#8c8c8c;fill-opacity:1;stroke-width:.264583" d="M115.297 244.462c.003-.582.057-.79.12-.46.064.329.061.805-.005 1.058s-.118-.016-.115-.598zm35.867-115.936c.19-.077.42-.067.507.02.088.089-.068.151-.347.14-.309-.013-.371-.076-.16-.16zm-72.66-51.28c.006-.437.065-.584.132-.327.067.258.063.615-.01.794-.072.18-.127-.031-.121-.468z" transform="translate(-7.853 3.57)"/><path style="fill:#767676;fill-opacity:1;stroke-width:.264583" d="M55.501 253.193c.003-.582.057-.789.12-.46.064.33.061.805-.005 1.058s-.118-.016-.115-.598zm67.882-.578c.19-.076.419-.067.507.021.088.088-.069.15-.348.14-.308-.013-.37-.076-.16-.16zm-8.091-6.433c0-.51.054-.718.12-.463.067.254.067.67 0 .926-.066.254-.12.046-.12-.463zm20.353-2.382c0-.363.06-.512.133-.33.074.181.074.48 0 .661-.073.182-.133.033-.133-.33zm-74.787-31.485c.264-.291.539-.53.611-.53.073 0-.083.239-.346.53-.264.29-.539.53-.611.53-.073 0 .083-.24.346-.53zm51.134-35.906c.33-.063.805-.06 1.058.005.253.066-.016.118-.598.115-.582-.003-.789-.057-.46-.12zm29.911-51.852c.191-.076.42-.067.508.021.087.088-.069.15-.348.139-.308-.013-.37-.075-.16-.16z" transform="translate(-7.853 3.57)"/><path style="fill:#606060;fill-opacity:1;stroke-width:.264583" d="M122.308 252.62c.182-.072.48-.072.661 0 .182.074.033.134-.33.134-.364 0-.513-.06-.331-.133zm13.316-24.584c.013-.309.075-.371.16-.16.076.19.067.419-.021.507-.088.088-.15-.069-.14-.347zm-24.958-51.615c.182-.073.48-.073.662 0 .181.073.033.133-.331.133s-.513-.06-.33-.133zm32.152-51.867c.257-.067.615-.062.794.01.179.073-.032.128-.468.122-.437-.005-.583-.064-.326-.131z" transform="translate(-7.853 3.57)"/><path style="fill:#494949;fill-opacity:1;stroke-width:.264583" d="M135.624 242.058c.013-.308.075-.37.16-.16.076.192.067.42-.021.508-.088.088-.15-.069-.14-.348zM98.264 92.79c-.33-.42-.32-.429.099-.1.255.2.463.409.463.464 0 .217-.217.077-.563-.364z" transform="translate(-7.853 3.57)"/><path style="fill:#333;fill-opacity:1;stroke-width:.264583" d="M124.77 263.366c-2.715-.259-6.48-.9-7.952-1.353-1.267-.39-2.337-1.454-2.657-2.643-.177-.657-.183-2.407-.017-5.19.21-3.51.347-4.382.84-5.327.569-1.092.582-1.293.403-6.068-.4-10.708-1.53-19.098-3.648-27.119l-.547-2.072-1.523.177c-1.79.207-2.95-.251-3.526-1.394-.2-.398-1.116-2.908-2.034-5.578-1.661-4.83-1.672-4.852-2.14-4.234-.26.342-1.737 3.122-3.284 6.178-1.546 3.056-3.124 5.84-3.506 6.185-.632.573-.857.616-2.493.479l-1.799-.151-1.077 1.587c-2.652 3.905-7.86 9.376-12.412 13.038-4.08 3.282-10.18 7.092-16.153 10.088l-2.836 1.422.349 1.535c.858 3.78 1.165 10.474.635 13.839-.383 2.427-1.448 4.449-2.856 5.423-.988.683-1.432.806-3.224.887-1.793.081-2.282 0-3.568-.588-4.418-2.023-8.897-9.324-12.415-20.239-1.21-3.754-2.268-8.082-2.268-9.278 0-1.342.91-2.943 2.239-3.94 2.08-1.562 6.8-4.272 8.121-4.665 2.198-.652 13.708-9.803 17.044-13.551 1.706-1.916 4.08-5.04 4.08-5.368 0-.108-.644-.71-1.433-1.34-1.512-1.206-2.006-1.964-2.006-3.076 0-.373 1.028-2.957 2.285-5.743 2.33-5.166 5.633-13.23 7.9-19.287l1.262-3.374-.667-.524c-1.112-.875-1.105-1.591.044-4.297 2.49-5.864 12.234-34.914 11.843-35.306-.159-.158-3.503 1.676-4.949 2.715-1.44 1.035-2.395 1.313-3.14.915-.474-.254-.836-.105-2.541 1.046-4.497 3.034-14.3 12.145-15.022 13.96-.215.543-.471 1.88-.568 2.972-.313 3.516-.692 5.912-1.22 7.708-1.108 3.774-4.902 6.356-7.748 5.274-.357-.136-1.087-.631-1.622-1.101l-.973-.855-1.57 1.74c-2.428 2.69-4.762 3.484-7.559 2.572-4.399-1.434-5.455-4.894-3.39-11.105 4.569-13.736 21.377-35.422 35.679-46.031 8.444-6.264 17.59-10.927 25.161-12.827 1.02-.256 2.012-.512 2.207-.57.211-.062-.23-.58-1.093-1.283-1.776-1.447-4.73-4.646-5.692-6.164-.392-.62-.832-1.082-.978-1.027-.568.212-3.974-.422-5.13-.955-1.521-.703-4.424-3.608-5.378-5.383-.933-1.736-1.53-4.067-1.53-5.97 0-1.042-.166-1.797-.531-2.416-.747-1.265-1.722-4.241-2.15-6.557-.229-1.243-.36-3.865-.357-7.125.007-5.713.356-8.1 1.781-12.171 2.882-8.232 9.332-15.452 17.925-20.068 3.8-2.04 7.6-3.027 13.327-3.459 9.255-.697 17.18 1.262 23.954 5.923l2.223 1.53 3.73-1.852c4.673-2.32 7.93-3.62 11.217-4.475 3.072-.799 6.954-1.091 8.354-.63 2.28.754 3.549 2.848 3.25 5.372-.454 3.852-5.303 9.518-12.655 14.787l-2.56 1.835.865 1.907c3.596 7.935 5.226 14.712 5.263 21.884.063 11.93-4.559 20.569-14.487 27.083-1.179.773-1.7 1.254-1.455 1.343.77.279 4.949 1.17 7.393 1.578 7.981 1.33 16.208 1.76 21.137 1.107 6.069-.804 10.874-2.098 16.963-4.566 4.076-1.651 5.785-2.568 8.152-4.371 1.582-1.206 1.756-1.272 3.321-1.272 2.84 0 5.451 1.74 5.888 3.925.092.46.253.837.358.837.104 0 .893-.253 1.753-.563 1.065-.385 2.25-.574 3.724-.596 2.59-.037 3.306.354 4.32 2.364.568 1.123.662 1.667.662 3.823 0 2.232-.085 2.686-.76 4.06-1.36 2.772-5.188 5.926-10 8.242-2.805 1.35-5.623 2.137-9.039 2.524-1.892.215-3.267.623-7.02 2.085-7.975 3.107-14.84 5.05-22.922 6.485-2.183.387-4.65.95-5.482 1.25-1.343.486-2.362.566-9.107.716l-7.596.17-1.255 8.731c-2.67 18.574-6.836 40.241-7.917 41.173-.463.4-.47.511-.104 1.72 1.097 3.625 2.916 10.558 4.457 16.99 1.85 7.718 1.861 7.884.57 9.081l-.67.622.528 2.91c1.543 8.504 2.248 18.362 2.03 28.378l-.14 6.418.701.165c2.733.644 9.002 2.584 10.755 3.328 4.463 1.894 6.352 3.65 6.651 6.185.238 2.013-.273 3.426-1.762 4.877-2.886 2.81-8.013 3.945-18.515 4.098-3.42.05-7.342-.017-8.716-.149zm14.746-3.972c6.769-.741 9.845-1.988 9.845-3.992 0-1.2-1.654-2.356-5.556-3.88-2.186-.854-7.871-2.43-8.765-2.43-.432 0-1.642.463-2.69 1.03-3.579 1.931-5.06 2.277-9.758 2.277h-4.147l-.152.76c-.084.42-.152 1.694-.152 2.833v2.07l.992.282c1.095.31 5.61 1.003 7.474 1.147 2.841.22 10.551.161 12.91-.097zm-85.327-.781c1.075-.846 1.365-2.133 1.34-5.95-.022-3.542-.67-8.613-1.292-10.106-.263-.633-.774-1.06-2.025-1.69-3.192-1.61-6.681-5.946-7.544-9.375-.255-1.016-.493-1.892-.527-1.947-.065-.102-3.522 2.036-4.423 2.737-.467.362-.48.528-.19 2.289.65 3.932 3.666 12.027 6.299 16.902 3.569 6.609 6.19 8.848 8.362 7.14zm71.885-10.364c.748-.173 2.215-.738 3.261-1.257l1.902-.943.176-1.323c.287-2.165.243-15.523-.066-20.233-.246-3.75-1.653-15-1.908-15.255-.047-.048-1.746.492-3.774 1.199-2.028.706-5.117 1.616-6.863 2.02-1.746.405-3.207.759-3.245.786-.04.028.403 2.182.983 4.787 1.89 8.496 2.923 18.024 2.923 26.964 0 1.769.08 3.295.177 3.392.296.297 4.989.197 6.434-.137zm-66.79-12.018c6.331-3.244 12.64-7.222 16.126-10.17 3.962-3.349 10.716-10.67 10.716-11.616 0-.106-.98-.455-2.178-.776-3.09-.826-6.43-2.208-10.283-4.253l-3.333-1.768-1.6 2.135c-3.482 4.649-6.873 7.785-15.679 14.503l-4.63 3.533.039 1.31c.047 1.623.755 3.281 2.15 5.043 1.26 1.59 4.051 3.543 5.064 3.543.391 0 2.015-.668 3.608-1.484zm35.685-29.208c2.478-5.333 7.769-14.772 8.634-15.406.544-.399.816-.442 1.394-.222 1.137.432 1.385 1.477.728 3.066-.302.73-.549 1.65-.549 2.045s.76 2.833 1.69 5.42c.93 2.585 1.903 5.385 2.165 6.222.313 1.004.616 1.52.89 1.52 1.065-.003 7.535-1.074 9.464-1.566 3.624-.926 9.392-3.148 10.867-4.188.267-.188.141-1.09-.603-4.319-1.158-5.026-2.417-9.888-4.029-15.552l-1.231-4.327-1.316.175c-5.26.698-14.068.887-18.993.407-7.978-.776-16.384-2.7-22.891-5.24l-2.688-1.05-.712 2.022c-1.414 4.018-5.694 14.565-7.902 19.477-2.154 4.79-2.237 5.043-1.806 5.53 1.561 1.77 10.218 6.454 14.87 8.047 3.01 1.031 7.986 2.159 9.223 2.09.878-.05.91-.098 2.795-4.15zm21.584-30.693c4.109-.265 8.899-.871 9.19-1.163.462-.462 3.87-17.783 5.626-28.601 1.186-7.303 1.788-11.648 2.892-20.863.527-4.397.926-6.787 1.203-7.21.747-1.14 2.972-.678 3.089.641.021.245.009 1.528-.028 2.853l-.067 2.408 1.65.15c.908.082 3.895.081 6.638-.002l4.988-.15.13-.82c.143-.894.942-13.544.939-14.86l-.002-.81-3.638-.46c-4.64-.588-11.932-2.036-16.305-3.24l-3.406-.937-2.018.533c-6.666 1.76-15.204 1.248-21.268-1.276l-1.985-.827-2.714.553c-6.673 1.36-14.673 4.764-21.162 9.006-4.182 2.734-9.26 6.373-9.26 6.637 0 .369 8 13.196 8.23 13.196.125 0 2.57-1.37 5.436-3.043 3.063-1.79 5.495-3.043 5.905-3.043.895 0 1.33.449 1.33 1.368 0 1.857-8.808 29.183-12.844 39.845-1.007 2.66-1.081 3.005-.69 3.204 1.42.725 7.803 3.046 10.61 3.859 5.213 1.509 12.142 2.688 17.874 3.042 4.779.295 5.228.295 9.657.01zm-73.049-12.377c.814-.841 2.183-2.343 3.043-3.336 3.487-4.027 5.576-4.42 4.913-.924-.321 1.694.046 3.145.796 3.145.721 0 1.798-1.439 2.242-2.994.215-.755.569-3.183.787-5.397.328-3.341.515-4.263 1.1-5.424 1.34-2.654 11.202-11.808 16.373-15.197 1.077-.706 1.965-1.362 1.974-1.46.03-.307-6.865-11.196-7.15-11.294-.349-.119-6.74 6.182-9.622 9.487-5.494 6.298-12.213 15.66-15.478 21.563-2.123 3.84-3.695 7.892-3.896 10.045-.153 1.633-.128 1.727.652 2.507.614.614 1.048.81 1.798.81.858 0 1.186-.203 2.468-1.53zm122.3-42.66c4.748-1.051 10.865-3.002 16.763-5.345 3.238-1.287 4.491-1.646 6.809-1.953 3.502-.464 6.516-1.39 9.474-2.909 3.904-2.006 6.738-4.684 7.44-7.028.286-.952.262-1.193-.2-2.04-.463-.851-.626-.952-1.44-.888-.504.04-3.179 1.095-5.944 2.345-2.765 1.25-5.257 2.288-5.54 2.308-.64.046-1.737-1.502-1.733-2.45.002-.514.468-1.11 1.852-2.36 1.028-.928 1.85-1.889 1.85-2.163 0-.556-1.178-1.589-1.812-1.589-.23 0-.898.47-1.486 1.046-1.672 1.637-5.007 3.485-9.512 5.27-7.792 3.088-14.675 4.582-21.353 4.634l-3.867.03-.316 3.308c-.174 1.819-.386 5.17-.471 7.446l-.155 4.139 3.584-.627c1.97-.344 4.697-.873 6.058-1.174zm-41.414-21.038c6.697-1.156 11.71-3.71 16.467-8.394 3.954-3.893 6.093-8.14 7.04-13.977 1.04-6.411-.012-13.66-3.165-21.819-1.527-3.95-3.361-7.49-4.389-8.472-.781-.746-.897-.773-3.106-.722-3.163.073-6.257.492-11.688 1.581-7.046 1.414-12.072 3.04-15.152 4.902-1.563.946-14.222 10.256-15.341 11.284-.886.813-.908 1.355-.198 5.01.29 1.496.528 2.826.528 2.955 0 .355-1.709 1.335-2.328 1.335-.305 0-.796-.35-1.11-.793-2.242-3.148-6.959-2.66-8.788.907-.775 1.512-.589 4.975.382 7.087 1.864 4.058 6.125 6.269 10.135 5.26 1.636-.413 1.974-.124 1.974 1.687 0 1.614.6 2.592 3.087 5.023 3.435 3.36 8.673 6.009 13.846 7.002l1.985.384c1.424.28 7.692.128 9.82-.24zm.992-10.685c-2.126-.779-5.514-3.132-5.798-4.028-.196-.616.457-1.71 1.152-1.93.297-.095 1.477.309 2.983 1.022 3.62 1.713 6.494 1.988 9.927.949 1.294-.392 2.128-.072 2.374.91.255 1.016.035 1.542-.917 2.183-1.358.916-2.547 1.191-5.585 1.296-2.233.076-3.045-.003-4.136-.402zm9.131-9.71c-.017-.129-.007-.91.024-1.739l.055-1.505-1.016-.158c-3.151-.49-3.132-.482-3.132-1.33 0-.694.179-.884 1.436-1.52 2.264-1.148 4.221-.86 5.643.83 1.231 1.464 1.2 3.777-.067 4.923-.543.491-2.89.888-2.943.498zm-19.258-7.662c-.901-.758-1.38-2.084-1.887-5.228-.26-1.615-.258-2.174.012-2.827.826-1.993 4.087-2.08 4.975-.132.357.784 1.108 4.837 1.108 5.98 0 1.099-.534 2.084-1.36 2.511-1.074.555-1.937.463-2.848-.304zm20.935-4.494c-.325-.227-.769-.758-.987-1.18-.534-1.034-1.187-4.229-1.187-5.81 0-1.106.11-1.375.814-1.966 1.066-.898 2.575-.93 3.567-.077 1.205 1.036 2.156 6.577 1.41 8.214-.536 1.178-2.478 1.617-3.617.82zM90.72 62.61c16.281-12.692 22.75-17.106 34.399-23.472l5.258-2.873-.729-.581c-1.297-1.035-5.231-2.952-7.539-3.673-5.42-1.695-12.995-1.921-18.493-.551-5.14 1.28-9.988 4.065-14.262 8.192-4.693 4.531-7.368 9.044-8.638 14.575-.684 2.983-1.02 6.759-.849 9.557.148 2.408.303 3.49.845 5.867.152.67-.209.924 10.008-7.041zm58.245-21.307c4.844-3.881 8.702-8.75 7.796-9.84-.745-.898-5.59-.013-10.442 1.909-2.367.938-12.103 5.768-17.794 8.828-2.952 1.587-3.78 2.299-2.12 1.823 1.794-.514 7.07-1.116 9.992-1.139 3.295-.025 4.907.346 6.627 1.526l.913.628 1.456-1.02c.8-.56 2.407-1.782 3.572-2.715z" transform="translate(-7.853 3.57)"/></svg>