<svg width="210mm" height="297mm" viewBox="0 0 210 297" xmlns="http://www.w3.org/2000/svg"><path style="fill:#d0d0d0;fill-opacity:1;stroke-width:.264583" d="M65.25 192.946c0-.51.055-.718.122-.463.066.254.066.671 0 .926-.067.254-.121.046-.121-.463zm-7.796-3.362c.329-.064.805-.061 1.058.005s-.016.118-.599.115c-.582-.003-.789-.058-.46-.12zm4.367.004c.258-.068.615-.063.794.01.179.072-.032.127-.468.122-.437-.005-.583-.065-.326-.132zm9.231-1.14c0-.364.06-.513.134-.33.073.181.073.479 0 .66-.074.183-.134.034-.134-.33zm-21.787-14.204c.19-.076.42-.067.507.021.088.088-.068.15-.347.139-.308-.013-.371-.075-.16-.16zm11.112 0c.191-.076.42-.067.508.021.087.088-.069.15-.348.139-.308-.013-.37-.075-.16-.16zm3.541-3.391c.006-.437.065-.583.132-.326.067.258.063.615-.01.794-.072.18-.127-.031-.122-.468zm8.192-2.249c0-.364.06-.513.134-.33.073.181.073.479 0 .66-.073.183-.134.034-.134-.33zm-34.416-.154c.012-.309.075-.371.16-.16.076.19.067.419-.021.507-.088.088-.15-.068-.14-.347zm-2.117-.265c.013-.308.075-.37.16-.16.076.191.067.42-.021.507-.088.088-.15-.068-.139-.347zm6.615-10.319c.012-.308.075-.37.16-.16.076.191.067.42-.021.508-.088.087-.15-.069-.14-.348zm17.748-.904c0-.363.06-.512.133-.33.073.182.073.48 0 .661-.073.182-.133.033-.133-.33zm2.116-1.058c0-.364.06-.513.134-.33.073.181.073.479 0 .66-.074.183-.134.034-.134-.33zm-2.091-19.447c.002-.582.057-.789.12-.46.063.33.06.806-.005 1.059-.067.252-.118-.017-.115-.599zm-28.642-7.79c0-.136.118-.321.261-.41.15-.093.195.013.104.249-.176.458-.365.542-.365.162zm15.387-8.217c0-.364.06-.513.134-.33.073.181.073.479 0 .66-.073.182-.134.034-.134-.33zm-17.483-4.917c.013-.308.075-.37.16-.16.076.191.067.42-.021.507-.088.088-.15-.068-.139-.347zm10.34-8.312c0-.364.06-.513.133-.331.074.182.074.48 0 .661-.073.182-.133.033-.133-.33zm-6.789-4.498c.263-.291.538-.53.611-.53.073 0-.083.239-.346.53-.264.29-.539.529-.612.529-.072 0 .084-.238.347-.53zm15.946-5.748c.475-.06 1.19-.058 1.587.002.398.06.009.109-.864.108-.873-.002-1.199-.051-.723-.11zm-3.428-2.106c.191-.076.42-.067.507.021.088.088-.068.15-.347.139-.308-.013-.37-.075-.16-.16zm8.202 0c.191-.076.42-.067.507.021.088.088-.068.15-.347.139-.308-.013-.37-.075-.16-.16z" transform="translate(56.401 -9.281)"/><path style="fill:#b9b9b9;fill-opacity:1;stroke-width:.264583" d="M40.798 212.08c.191-.077.42-.067.507.02.088.088-.068.15-.347.14-.308-.013-.37-.076-.16-.16zm2.117 0c.19-.077.42-.067.507.02.088.088-.068.15-.347.14-.308-.013-.371-.076-.16-.16zm12.82-.01c.401-.06.997-.059 1.322.005.326.062-.003.112-.731.11-.728-.002-.994-.053-.592-.114zm9.454-13.514.132-4.949.073 4.743c.04 2.609-.02 4.836-.132 4.949-.113.112-.146-2.022-.073-4.743zm-12.872 1.269c0-1.237.046-1.743.102-1.125.055.619.055 1.631 0 2.25-.056.618-.102.112-.102-1.125zm3.943-3.307c.003-.582.058-.79.12-.46.064.329.062.805-.004 1.058-.067.253-.118-.016-.116-.598zm-3.983-4.763c.005-.436.064-.583.131-.326.067.258.063.615-.01.794-.072.18-.127-.031-.121-.468zm17.696-23.834c.013-.309.075-.371.16-.16.076.19.067.419-.021.507-.088.088-.15-.069-.14-.348zm2.196-2.757c0-1.673.043-2.358.095-1.52.053.836.053 2.205 0 3.042-.052.837-.095.152-.095-1.522zm-30.771-1.212c.013-.308.075-.371.16-.16.076.19.067.42-.021.507-.088.088-.15-.068-.14-.347zm-10.39-37.597c.192-.077.42-.067.508.02.088.088-.069.15-.347.14-.309-.013-.371-.076-.16-.16zm34.148-23.83c-.33-.42-.32-.43.1-.1.44.345.58.562.363.562-.055 0-.264-.208-.463-.463zm2.381-1.059c-.33-.42-.32-.429.1-.1.44.346.58.563.363.563-.055 0-.263-.208-.463-.463z" transform="translate(56.401 -9.281)"/><path style="fill:#a3a3a3;fill-opacity:1;stroke-width:.264583" d="M58.627 200.486c.005-.436.064-.583.131-.325.067.257.063.614-.01.793-.072.18-.127-.031-.121-.468zm-16.934-2.116c.006-.437.065-.584.132-.326.067.257.063.615-.01.794-.072.179-.127-.032-.122-.468zm10.593-1.456c0-.509.055-.717.121-.463.067.255.067.672 0 .926-.066.255-.12.047-.12-.463zm-.04-4.123c.013-.308.075-.37.16-.16.076.191.067.42-.021.508-.088.087-.15-.069-.14-.348zm6.263-.814c.182-.074.48-.074.661 0 .182.073.033.133-.33.133-.364 0-.513-.06-.331-.133zm-15.259-1.831c.013-.309.075-.371.16-.16.076.19.067.419-.021.507-.088.088-.15-.069-.139-.347zm-2.6-6.593c.003-.582.057-.79.12-.46.064.33.061.805-.005 1.058s-.118-.016-.115-.598zm20.856-10.076c.013-.308.076-.371.16-.16.077.19.067.42-.02.507-.089.088-.151-.068-.14-.347zm10.914-56.599c.001-1.019.05-1.403.106-.854.058.549.057 1.382-.002 1.852-.058.47-.105.02-.104-.998zm-19.864-8.467c.003-.582.057-.789.12-.46.064.33.062.806-.005 1.059-.066.253-.118-.017-.115-.599z" transform="translate(56.401 -9.281)"/><path style="fill:#8c8c8c;fill-opacity:1;stroke-width:.264583" d="M52.267 195.591c0-.363.06-.512.133-.33.074.182.074.48 0 .661-.073.182-.133.033-.133-.33zm7.432-3.621c.255-.067.672-.067.926 0 .255.066.047.12-.463.12-.509 0-.717-.054-.463-.12zm7.099-10.291c.013-.308.075-.371.16-.16.076.191.067.42-.021.507-.088.088-.15-.068-.14-.347zm-15.946-5.054c.191-.076.42-.067.508.021.087.088-.069.15-.348.14-.308-.013-.37-.076-.16-.16zm7.409 0c.19-.076.419-.067.507.021.088.088-.068.15-.347.14-.309-.013-.371-.076-.16-.16zm6.35-15.08c.19-.077.419-.068.507.02.088.088-.068.15-.347.139-.309-.013-.371-.075-.16-.16zm-13.243-16.411c.33-.064.805-.061 1.058.005s-.016.118-.598.115c-.582-.003-.789-.057-.46-.12zm-22.406-26.69c.013-.309.076-.372.16-.16.077.19.067.419-.02.507-.088.088-.151-.069-.14-.348z" transform="translate(56.401 -9.281)"/><path style="fill:#767676;fill-opacity:1;stroke-width:.264583" d="M43.535 194.533c0-.364.06-.512.134-.33.073.181.073.479 0 .66-.073.183-.134.034-.134-.33zm22.663-7.853c.191-.077.42-.067.507.02.088.088-.068.15-.347.14-.308-.013-.37-.076-.16-.16zm3.246-12.145c.012-.308.075-.37.16-.16.076.191.067.42-.021.507-.088.088-.15-.068-.14-.347zm-27.782-13.23c.013-.307.076-.37.16-.159.077.191.067.42-.02.507-.088.088-.151-.068-.14-.347zm22.138-1.888a8.42 8.42 0 0 1 1.72 0c.473.058.086.106-.86.106s-1.332-.048-.86-.106z" transform="translate(56.401 -9.281)"/><path style="fill:#606060;fill-opacity:1;stroke-width:.264583" d="M41.184 209.96c.257-.067.614-.062.793.01.18.073-.031.128-.468.122-.436-.005-.583-.065-.325-.132zm19.193-4.23c.191-.077.42-.067.508.02.087.088-.069.15-.348.14-.308-.013-.37-.076-.16-.16zm-3.633-2.355c.012-.309.075-.371.16-.16.076.19.067.419-.021.507-.088.088-.15-.068-.14-.347zm10.624-1.169c0-.51.054-.718.12-.463.067.255.067.671 0 .926-.066.255-.12.046-.12-.463zm-.02-1.587c0-.364.06-.513.133-.331.074.182.074.48 0 .661-.073.182-.133.033-.133-.33zm-23.833-5.182c.012-.308.075-.37.16-.16.076.191.066.42-.021.507-.088.088-.15-.068-.14-.347zm-2.096-2.227c0-.364.06-.512.133-.33.074.181.074.48 0 .661-.073.182-.133.033-.133-.33zm5.994-2.826c.19-.077.419-.067.507.02.088.088-.068.151-.347.14-.309-.013-.371-.076-.16-.16zm-6.523-12.255c0-.364.06-.513.133-.33.073.181.073.479 0 .66-.073.183-.133.034-.133-.33zm-2.138-8.356c.013-.309.075-.371.16-.16.076.19.067.419-.021.507-.088.088-.15-.069-.139-.347zm2.117-1.323c.012-.309.075-.371.16-.16.076.19.067.419-.021.507-.088.088-.15-.068-.14-.347zm3.633-29.395c.191-.077.42-.067.508.02.087.088-.069.15-.348.14-.308-.013-.37-.076-.16-.16zm22.317-15.166c0-.363.06-.512.133-.33.074.182.074.48 0 .661-.073.182-.133.033-.133-.33zM63.8 120.01c.182-.073.48-.073.662 0 .182.073.033.133-.33.133-.365 0-.513-.06-.332-.133zm0-2.117c.182-.073.48-.073.662 0 .182.074.033.134-.33.134-.365 0-.513-.06-.332-.134z" transform="translate(56.401 -9.281)"/><path style="fill:#494949;fill-opacity:1;stroke-width:.264583" d="M60.113 213.932c.19-.077.419-.067.507.02.088.088-.068.151-.347.14-.309-.013-.371-.076-.16-.16zm7.214-14.79c.013-.309.075-.372.16-.16.076.19.067.419-.021.507-.088.087-.15-.069-.139-.348zm-9.24-6.46c0-.365.06-.514.134-.332.073.182.073.48 0 .662-.073.182-.133.033-.133-.33zm3.994-27.914c.003-.583.057-.79.12-.46.064.329.062.805-.005 1.058-.066.253-.118-.016-.115-.598zm-10.448-21.751c.329-.063.805-.061 1.058.005s-.016.118-.598.115c-.582-.003-.79-.057-.46-.12zm-16.056-24.309c.013-.308.075-.37.16-.16.076.191.067.42-.021.507-.088.088-.15-.068-.139-.347zm-6.35-9.525c.013-.308.075-.37.16-.16.076.191.067.42-.021.507-.088.088-.15-.068-.139-.347z" transform="translate(56.401 -9.281)"/><path style="fill:#333;fill-opacity:1;stroke-width:.264583" d="M53.283 213.93c-2.064-.347-3.968-1.503-3.968-2.409 0-.207-.16-.314-.355-.24-1.07.41-5.888.773-8.541.642-2.408-.119-3.278-.275-4.413-.795-2.363-1.082-2.827-2.994-1.26-5.195.668-.937 2.794-2.197 5.395-3.196l1.892-.727-.08-1.952c-.045-1.074-.19-3.62-.325-5.657-.134-2.037-.245-4.016-.247-4.396-.003-.575-.205-.769-1.198-1.147-1.647-.63-1.804-1.04-1.582-4.146.183-2.56.175-2.614-.384-2.614-1.965 0-4.233-2.9-4.24-5.424-.003-1.093.518-3.109 1.162-4.498.203-.437.45-1.746.548-2.91.21-2.482 1.025-7.323 1.579-9.382.367-1.367.36-1.47-.132-1.929-.693-.646-.672-.861.433-4.413 1.211-3.896 3.344-8.39 5.044-10.625l1.324-1.741-2.006-.337c-4.936-.83-9.081-3.488-10.957-7.028-.83-1.568-1.435-3.192-1.64-4.408-.135-.793-.485-1.37-1.322-2.172-1.427-1.37-1.718-2.563-1.05-4.31.288-.755.745-1.374 1.21-1.642.626-.358.772-.648.884-1.754.075-.728.235-2.251.358-3.384.18-1.673.15-2.12-.16-2.377-.21-.175-.69-.796-1.065-1.38-.59-.916-.683-1.354-.682-3.179 0-1.845.11-2.344.859-3.89 2.226-4.602 7.242-8.047 14.234-9.776 1.963-.486 3.115-.583 6.981-.588 4.131-.005 4.916.068 7.276.678 5.618 1.451 10.084 4.34 12.066 7.804.439.765 1.096 1.628 1.462 1.915 1.009.794 2.35 2.66 2.967 4.13 1.369 3.258 1.686 6.93.947 10.951-1.339 7.283-4.678 11.718-10.275 13.645-1.413.486-1.612.643-1.765 1.391-.307 1.502-.023 2.114 1.274 2.742 1.742.843 4.273 3.344 5.55 5.484 1.27 2.127 2.813 6.506 4.092 11.618.948 3.787.921 4.127-.37 4.762l-.673.33-.18 6.284c-.098 3.457-.193 6.82-.21 7.475-.017.655.122 2.181.31 3.391.42 2.715.2 4.735-.653 5.992-.595.876-.626 1.1-.479 3.385.182 2.806.066 3.017-2.024 3.714l-1.19.397-.205 5.896c-.197 5.691-.183 5.957.388 7.634.805 2.366.832 5.233.057 6.282-.883 1.196-3.61 2.435-6.326 2.874-2.196.355-6.768.467-8.335.204zm6.622-1.947c3.869-.48 6.225-1.41 6.517-2.574.176-.702 0-3.677-.23-3.908-.086-.085-1.031-.034-2.1.115a13.827 13.827 0 0 1-3.91-.002c-2.155-.3-1.555-.472-6.227 1.79-1.72.832-2.46 1.56-2.673 2.626-.116.582-.024.909.356 1.252 1.003.908 4.324 1.19 8.267.701zm-14.56-2.246 3.573-.406 1.003-1.115c.966-1.073 1-1.174.883-2.657-.066-.849-.16-1.58-.21-1.625-.049-.046-.724.049-1.5.21-1.207.25-1.724.212-3.553-.257l-2.141-.55-1.474.633c-4.236 1.821-5.573 2.713-5.954 3.97-.249.823.714 1.617 2.203 1.817.67.09 1.337.204 1.482.254.573.196 2.27.115 5.689-.274zm9.294-4.73c2.472-1.109 2.398-.968 2.1-3.992a151.107 151.107 0 0 1-.429-5.987l-.166-3.342-.967-.153a27.602 27.602 0 0 1-1.96-.4l-.992-.248.006 5.594c.004 3.077.124 6.13.267 6.785.474 2.168.53 2.382.625 2.382.052 0 .734-.287 1.516-.638zm10.22-1.394.595-.141v-12.124l-.646.162c-.356.09-1.993.24-3.638.336l-2.992.174.075 1.455c.388 7.476.552 9.843.695 9.986.509.509 4.027.6 5.91.152zm-15.478-1.577.992-.164v-11.221l-2.977-.321c-1.637-.177-3.246-.388-3.575-.47-.597-.148-.599-.138-.454 2.196.192 3.104.694 9.209.762 9.282.03.032.703.233 1.496.446 1.632.439 2.34.486 3.756.252zm17.49-13.022c1.144-.294 2.104-.572 2.133-.617.03-.045.006-.707-.054-1.47-.119-1.535-.48-1.76-1.38-.86-.554.555-1.967.719-2.25.261-.105-.169-.375-.12-.736.133-1.432 1.002-3.363-.053-3.363-1.838 0-.75-.103-.938-.51-.938-.687 0-1.607-1.22-1.607-2.133 0-.406.345-1.713.766-2.903l.766-2.163-3.346.181c-4.841.263-9.864-.263-15.542-1.626-.51-.123-.568.01-.726 1.676-.095.995-.25 3.68-.346 5.967l-.175 4.158.769.3c1.208.47 5.317 1.23 7.723 1.428l2.193.18-.076-2.703-.076-2.704-1.222-.356c-1.528-.445-2.076-1.011-1.52-1.568.342-.341.613-.338 2.238.029 1.016.23 2.022.525 2.235.656.296.183.407.998.476 3.49.05 1.788.187 3.351.304 3.475.801.843 9.981.805 13.327-.055zm-2.252-5.263a17.01 17.01 0 0 0 .82-1.984c.223-.691.475-.992.83-.992.62 0 .677 1.182.13 2.715-.335.937-.175 1.463.345 1.141.128-.078.363-.66.522-1.293.16-.632.547-1.477.862-1.877.492-.626.625-.676.945-.356.289.289.308.538.089 1.116-.363.954-.22 1.084.417.38.527-.584.526-.555.305-8.308-.025-.874.057-3.436.181-5.695.124-2.258.143-4.885.04-5.837l-.185-1.731-1.373.196c-.755.108-2.039.204-2.853.215l-1.48.02-.177 5.49c-.217 6.731-.437 8.163-1.625 10.574-1.119 2.271-1.505 4.308-.818 4.308.245 0 .648-.356.896-.792.595-1.046 1.377-1.066 1.377-.034 0 .419-.179 1.189-.397 1.711-.558 1.336-.515 2.026.127 2.026.34 0 .698-.348 1.022-.993zm-25.623-4.284c0-.474-.204-.921-.52-1.143-.669-.468-1.331-1.742-1.15-2.212.217-.567 1.087-.428 1.45.231.308.556.342.51.524-.706.16-1.08.106-1.412-.324-1.96-.285-.362-.462-.848-.393-1.08.07-.231.256-1.969.416-3.86.159-1.892.462-4.73.674-6.307.37-2.755.32-3.66-.173-3.167-.354.354-1.486 6.223-1.821 9.44-.182 1.747-.554 3.553-.947 4.596-1.082 2.874-.788 5.115.839 6.394.986.776 1.425.706 1.425-.226zm21.034-5.005 1.588-.17.17-1.984c.322-3.754.443-7.544.296-9.326-.123-1.502-.223-1.786-.63-1.786-.877 0-1.222-1.049-1.392-4.234-.09-1.673-.286-3.562-.436-4.196-.3-1.267-.036-1.89.801-1.89.764 0 1.414 2.332 1.734 6.219.096 1.164.31 2.204.477 2.31.828.532 8.199-.311 8.906-1.018.149-.15-.056-1.48-.525-3.414-1.674-6.9-3.468-10.75-6.175-13.256-.845-.783-1.679-1.421-1.852-1.419-.174.003-.614.32-.977.707-1.867 1.98-5.648 3.693-8.762 3.968-2.85.25-4.055-.046-5.372-1.324-.627-.609-1.2-1.285-1.274-1.503-.345-1.015-3.554 3.08-5.15 6.571-.955 2.093-2.726 7.17-2.726 7.82 0 .323 1.245.856 1.471.63.047-.047.286-1.154.53-2.46.77-4.103 1.255-5.539 1.906-5.633.822-.12.961.77.49 3.134-.76 3.808-1.677 10.86-2.411 18.536l-.167 1.743 1.67.547c3.37 1.104 7.17 1.582 12.65 1.592 1.965.004 4.287-.07 5.16-.164zm-5.39-31.745c2.123-.508 3.878-1.396 5.396-2.728.881-.774.898-.824.518-1.557-.801-1.55-.25-4.787.993-5.822l.6-.5-.58-.01c-.32-.005-.766-.273-.992-.595-.602-.86.015-1.395 1.506-1.303 2.607.16 4.77-2.75 4.789-6.445.008-1.668-.646-2.936-1.797-3.485-1.204-.574-2.048-.31-3.572 1.114-1.961 1.835-2.414 1.664-4.696-1.771-2.479-3.731-4.05-8.02-4.05-11.05 0-.74-.09-1.344-.2-1.344-.934 0-5.44 2.173-8.559 4.127-1.251.785-2.649 1.5-3.105 1.592-1.214.243-2.253-.974-3.04-3.56l-.612-2.016-1.987 1.987c-3.117 3.117-4.194 6.017-4.194 11.294 0 1.298-.062 1.437-.86 1.91-1.322.783-1.521 1.029-1.521 1.874 0 1.032.802 1.794 2.108 2.003 1.47.235 1.902.803 1.104 1.449-.574.465-.59.57-.31 1.924.335 1.611 1.727 4.11 2.999 5.381 1.199 1.199 3.728 2.652 5.74 3.297 2.51.804 7.458.786 10.672-.04 2.114-.544 2.375-.562 2.748-.19.913.913-.258 1.695-3.431 2.293-1.922.362-2.147.65-1.19 1.52 1.301 1.184 2.636 1.342 5.523.65zm-16.967-9.348c-1.288-.365-2.167-1.23-1.951-1.921.27-.87.653-.943 1.802-.342 2.259 1.181 6.852.456 7.976-1.26.498-.76 1.335-.814 1.773-.115.669 1.067-1.61 3.099-4.128 3.68-1.399.322-4.262.3-5.472-.042zm6.49-11.16c-.358-.263-.485-.682-.472-1.56.023-1.512.418-2.261 1.31-2.485.98-.246 1.668.654 1.668 2.183 0 1.816-1.274 2.762-2.506 1.861zm-11.243-1.213c-.395-.737-.337-2.038.13-2.94.303-.588.59-.781 1.158-.781.415 0 .871.149 1.014.33.498.635.6 2.066.212 2.994-.33.791-.5.91-1.31.91-.65 0-1.013-.156-1.204-.513zm34.792 8.678c1.604-1.478 2.854-3.617 3.863-6.604.763-2.262.842-2.8.865-5.927.016-2.206-.107-3.914-.343-4.763-.585-2.1-1.875-4.317-3.206-5.512-.676-.606-1.546-1.658-1.934-2.336-1.51-2.646-5.62-5.39-9.837-6.568-3.249-.908-7.066-1.207-10.764-.845-3.852.378-6.11.976-9.045 2.397-5.887 2.85-9.668 9.187-7.145 11.975.43.475.48.444 1.338-.83 1.866-2.77 5.822-5.93 7.22-5.767.637.074.676.176.826 2.195.131 1.755.751 3.836 1.144 3.836.053 0 1.145-.658 2.427-1.463 3.023-1.898 6.176-3.4 8.687-4.139 2.754-.81 2.876-.681 3.092 3.296.137 2.516.29 3.275 1.005 4.99.835 2 2.627 5.213 3.412 6.117.387.446.431.444.956-.038 1.245-1.142 2.385-1.617 3.885-1.618 2.524-.002 4.278 1.666 4.618 4.392.341 2.73-.322 5.332-1.881 7.376-.944 1.238-.637 1.176.817-.164z" transform="translate(56.401 -9.281)"/></svg>