<svg width="210mm" height="297mm" viewBox="0 0 210 297" xmlns="http://www.w3.org/2000/svg"><path style="fill:#d0d0d0;fill-opacity:1;stroke-width:.264583" d="M35.72 152.06c-.328-.42-.319-.429.1-.1.255.2.464.409.464.464 0 .217-.218.077-.563-.364zm146.021-18.245c.33-.063.806-.06 1.059.005.253.067-.017.118-.599.116-.582-.003-.789-.058-.46-.12zm-58.74-20.89c.182-.073.48-.073.661 0 .182.074.033.134-.33.134-.364 0-.513-.06-.331-.134zm-8.98-3.71c.192-.076.42-.066.508.021.088.088-.069.15-.348.14-.308-.013-.37-.076-.16-.16zm7.265-.267c.258-.067.615-.062.794.01.179.073-.032.128-.468.122-.437-.005-.583-.064-.326-.131z" transform="translate(-20.704 1.428)"/><path style="fill:#b9b9b9;fill-opacity:1;stroke-width:.264583" d="M145.292 172.896c.218-.14.516-.256.661-.256.146 0 .086.115-.132.256-.218.141-.516.257-.661.257-.146 0-.086-.116.132-.257zm11.307-4.53c.179-.181.392-.263.474-.181.081.081-.065.23-.326.329-.377.143-.408.113-.148-.148zm49.833-24.993c.012-.308.075-.37.16-.16.076.191.066.42-.021.507-.088.088-.15-.068-.14-.347zm-83.823-34.425c.257-.067.615-.062.794.01.179.073-.032.128-.468.122-.437-.005-.583-.064-.326-.131z" transform="translate(-20.704 1.428)"/><path style="fill:#a3a3a3;fill-opacity:1;stroke-width:.264583" d="M129.577 177.174c-.075-.122.031-.22.237-.22.205 0 .312.098.237.22-.075.121-.182.22-.237.22-.056 0-.163-.099-.237-.22zm-18.466-1.283c.191-.077.42-.067.507.02.088.088-.068.15-.347.14-.308-.013-.37-.076-.16-.16z" transform="translate(-20.704 1.428)"/><path style="fill:#8c8c8c;fill-opacity:1;stroke-width:.264583" d="M118.784 112.92c.191-.077.42-.067.507.02.088.089-.068.151-.347.14-.308-.013-.371-.076-.16-.16z" transform="translate(-20.704 1.428)"/><path style="fill:#767676;fill-opacity:1;stroke-width:.264583" d="M212.976 170.334c.19-.076.419-.067.507.021.088.088-.069.15-.347.14-.309-.014-.371-.076-.16-.16z" transform="translate(-20.704 1.428)"/><path style="fill:#606060;fill-opacity:1;stroke-width:.264583" d="M96.675 179.593c.254-.066.671-.066.926 0 .255.067.046.121-.463.121-.51 0-.718-.054-.463-.12zm18.14-70.377c.191-.077.42-.067.507.02.088.088-.068.15-.347.14-.308-.013-.37-.076-.16-.16z" transform="translate(-20.704 1.428)"/><path style="fill:#494949;fill-opacity:1;stroke-width:.264583" d="M35.192 156.823c-.33-.42-.32-.43.1-.1.254.2.462.408.462.463 0 .218-.217.078-.562-.363zm80.417-47.607c.191-.077.42-.067.507.02.088.088-.068.15-.347.14-.308-.013-.371-.076-.16-.16z" transform="translate(-20.704 1.428)"/><path style="fill:#333;fill-opacity:1;stroke-width:.264583" d="M98.593 179.759c-7.02-.62-8.926-.84-12.507-1.446-13.913-2.357-31.41-8.547-41.52-14.689-4.666-2.835-10.208-7.264-12.2-9.75-1.708-2.132-2.075-4.2-1.119-6.307 1.308-2.88 7.334-7.879 16.647-13.81 23.226-14.788 49.513-23.938 70.511-24.542 13.602-.392 25.586 2.115 39.058 8.17 4.66 2.094 14.582 7.135 20.583 10.459 2.875 1.591 4.217 2.198 4.63 2.094.321-.081 1.877-.99 3.458-2.02 12.063-7.859 24.096-13.426 27.719-12.825 1.145.19 2.255 1.26 2.617 2.524.668 2.327.116 4.842-2.514 11.47-2.633 6.635-3.087 8.397-3.243 12.612-.176 4.736.174 6.39 3.01 14.225 1.237 3.417 2.5 7.283 2.804 8.59.5 2.147.518 2.484.18 3.454-.735 2.108-3.072 2.823-6.165 1.885-.71-.216-2.361-.578-3.668-.805-3.79-.657-5.084-1.287-18.148-8.831-3.993-2.307-7.696-3.853-8.65-3.614-.313.078-1.927.928-3.587 1.888-3.503 2.024-12.789 6.702-14.685 7.398-.714.261-5.049 1.95-9.633 3.754-4.584 1.803-8.99 3.521-9.79 3.818-.8.297-1.693.648-1.984.78-1.52.687-7.208 2.155-10.186 2.628-1.092.174-3.762.661-5.934 1.084-3.771.734-5.523.984-10.867 1.546-3.6.378-11.835.523-14.817.26zm18.256-4.205c4.864-.621 8.305-1.25 13.23-2.416 12.528-2.967 29.978-9.764 41.01-15.975 6.401-3.604 8.006-4.375 9.11-4.375 2.407 0 6.31 1.753 13.247 5.95 5.055 3.058 8.05 4.715 10.098 5.584 1.648.7 9.214 2.58 9.447 2.347.288-.288-.71-3.597-2.752-9.123-2.816-7.622-3.296-9.445-3.481-13.225-.236-4.805.801-9.29 4.3-18.595 1.104-2.938 1.967-5.65 1.967-6.18 0-.898-.036-.937-.72-.766-2.088.524-7.663 2.743-9.863 3.925a135.492 135.492 0 0 1-3.836 1.991c-1.691.818-4.813 2.676-9.68 5.76-4.39 2.781-5.442 3.282-6.898 3.282-1.325 0-2.31-.421-5.464-2.337-6.313-3.835-19-10.154-26.188-13.043-10.958-4.404-22.923-6.145-35.379-5.148-2.91.233-5.59.476-5.953.539-8.945 1.551-11.607 2.136-17.053 3.744-10.848 3.205-25.572 9.6-35.9 15.593-7.34 4.26-15.914 10.198-19.146 13.263-3.33 3.158-3.334 3.633-.044 6.823 6.584 6.383 16.276 11.698 29.695 16.286 11.246 3.844 22.077 6.018 32.526 6.526 1.746.085 3.195.17 3.219.187.2.15 12.657-.38 14.508-.617z" transform="translate(-20.704 1.428)"/></svg>