<svg width="210mm" height="297mm" viewBox="0 0 210 297" xmlns="http://www.w3.org/2000/svg"><path style="fill:#d0d0d0;fill-opacity:1;stroke-width:.264583" d="M121.556 277.537c.19-.077.419-.067.507.02.088.088-.069.15-.347.14-.309-.013-.371-.076-.16-.16zm8.73-4.498c.192-.077.42-.067.508.02.088.088-.068.151-.347.14-.308-.013-.371-.076-.16-.16zm.6-21.934c.013-.309.076-.371.16-.16.077.19.067.419-.02.507-.088.088-.15-.069-.14-.347zM88.34 218.796c.257-.067.615-.062.794.01.179.073-.032.128-.468.122-.437-.005-.583-.064-.326-.131zm4.113-4.76c.19-.076.419-.066.507.021.088.088-.069.15-.348.14-.308-.013-.37-.076-.16-.16zm-24.16-65.965c.263-.29.538-.529.61-.529.074 0-.082.238-.346.53-.263.29-.538.529-.61.529-.074 0 .082-.238.346-.53zm131.304-9.187c.476-.059 1.19-.058 1.587.003.398.06.008.108-.864.107-.873-.002-1.199-.05-.723-.11zm-67.62-62.647c.005-.436.064-.583.131-.326.067.258.063.615-.01.794-.072.18-.127-.031-.122-.468z" transform="translate(-17.849 7.853)"/><path style="fill:#b9b9b9;fill-opacity:1;stroke-width:.264583" d="M130.672 277.799c.258-.068.615-.063.794.01.18.072-.031.127-.468.121-.437-.005-.583-.064-.326-.131zm-1.179-4.76c.191-.077.42-.067.507.02.088.088-.068.151-.347.14-.308-.013-.37-.076-.16-.16zm-4.163-11.616c.013-.308.076-.37.16-.16.077.192.067.42-.02.508-.089.088-.151-.069-.14-.348zm-53.07-22.6c.264-.29.539-.529.612-.529.072 0-.084.239-.347.53-.263.29-.538.529-.611.529-.073 0 .083-.238.346-.53zm-30.253-57.15c0-.363.06-.512.134-.33.073.182.073.48 0 .661-.073.182-.134.033-.134-.33zm77.503-11.266c.012-.309.075-.371.16-.16.076.19.066.42-.022.507-.087.088-.15-.068-.139-.347zm36.16-26.491a3.768 3.768 0 0 1 1.191 0c.327.063.06.115-.595.115s-.923-.052-.596-.115zm-87.246-18.417c0-.045.387-.432.86-.86l.86-.777-.777.86c-.725.802-.943.982-.943.777zm2.91-2.927c0-.055.209-.264.463-.463.42-.33.43-.32.1.1-.345.44-.563.58-.563.363zm42.02-21.513c.19-.076.419-.067.507.021.088.088-.069.15-.348.14-.308-.013-.37-.076-.16-.16z" transform="translate(-17.849 7.853)"/><path style="fill:#a3a3a3;fill-opacity:1;stroke-width:.264583" d="M127.892 273.032c.33-.063.806-.06 1.059.005.253.066-.017.118-.599.115-.582-.003-.789-.057-.46-.12zm-71.089-1.025c.013-.309.076-.371.16-.16.077.19.067.42-.02.507-.089.088-.151-.068-.14-.347zm-19.082-24.783c.65-.691 1.215-1.257 1.257-1.257.199 0-.011.238-1.18 1.334l-1.256 1.18zm35.201-9.03c0-.054.208-.263.463-.463.42-.329.429-.32.1.1-.346.441-.563.581-.563.363zm-28.625-45.853c.191-.077.42-.067.507.02.088.089-.068.151-.347.14-.308-.013-.37-.076-.16-.16zm-2.31-9.763c.012-.309.075-.371.16-.16.076.19.066.419-.021.507-.088.088-.15-.069-.14-.347zm-4.452-.772c.002-.582.057-.79.12-.46.063.329.06.805-.005 1.058-.067.253-.118-.016-.115-.598zm82.036-8.731c.002-.874.05-1.199.11-.723.058.475.057 1.19-.004 1.587-.06.398-.108.008-.107-.864zm37.968-29.153c.191-.076.42-.067.507.02.088.089-.068.151-.347.14-.308-.013-.371-.076-.16-.16zm-18.256-47.89c.19-.076.419-.067.507.021.088.088-.069.15-.347.14-.309-.013-.371-.076-.16-.16zm-.778-59.02c-.33-.419-.32-.428.1-.1.254.2.463.409.463.464 0 .218-.217.077-.563-.363z" transform="translate(-17.849 7.853)"/><path style="fill:#8c8c8c;fill-opacity:1;stroke-width:.264583" d="M132.139 277.801c.191-.076.42-.067.507.021.088.088-.068.15-.347.139-.308-.013-.371-.075-.16-.16zm-96.126-28.923c.263-.291.538-.53.61-.53.074 0-.082.239-.346.53-.263.29-.538.529-.611.529-.073 0 .083-.238.347-.53zm90.376-.42c.012-.307.075-.37.16-.16.076.192.067.42-.021.508-.088.088-.15-.068-.14-.347zm-86.937-3.02c.264-.29.539-.529.611-.529.073 0-.083.238-.346.53-.264.29-.539.528-.611.528-.073 0 .083-.238.346-.529zm28.972-9.096c0-.054.208-.263.463-.463.42-.329.43-.32.1.1-.346.441-.563.581-.563.363zm1.455-1.487c.264-.291.539-.53.611-.53.073 0-.083.239-.346.53-.264.29-.539.529-.611.529-.073 0 .083-.238.346-.53zm1.985-118.898c0-.055.208-.263.463-.463.42-.33.429-.32.1.1-.346.44-.563.58-.563.363zm60.08-38.419c.014-.308.076-.37.16-.16.077.191.068.42-.02.507-.088.088-.15-.068-.14-.347z" transform="translate(-17.849 7.853)"/><path style="fill:#767676;fill-opacity:1;stroke-width:.264583" d="M132.916 277.807c.182-.074.48-.074.662 0 .182.073.033.133-.331.133s-.513-.06-.33-.133zm-99.152-26.648c0-.055.208-.263.463-.463.42-.329.429-.32.1.1-.346.44-.563.58-.563.363zm1.058-1.058c0-.055.208-.264.463-.463.42-.33.429-.32.1.1-.346.44-.563.58-.563.363zM56.03 174c0-.364.06-.513.134-.331.073.182.073.48 0 .661-.074.182-.134.033-.134-.33zm68.242-8.092c.013-.308.075-.371.16-.16.076.19.067.42-.021.507-.088.088-.15-.068-.139-.347zm-18.608-48.44c.182-.073.48-.073.662 0 .182.074.033.134-.331.134s-.513-.06-.33-.134zm37.699-48.243c0-.51.054-.718.12-.463.067.254.067.671 0 .926-.066.254-.12.046-.12-.463z" transform="translate(-17.849 7.853)"/><path style="fill:#606060;fill-opacity:1;stroke-width:.264583" d="M138.61 273.3c.257-.066.614-.062.794.01.179.073-.032.128-.469.123-.436-.005-.583-.065-.325-.132zm-12.027-.261c.19-.077.419-.067.507.02.088.088-.068.151-.347.14-.309-.013-.371-.076-.16-.16zm4.304-37.28c.012-.308.075-.371.16-.16.076.19.066.42-.021.507-.088.088-.15-.068-.14-.347z" transform="translate(-17.849 7.853)"/><path style="fill:#494949;fill-opacity:1;stroke-width:.264583" d="M139.933 273.3c.257-.066.614-.062.793.01.18.073-.031.128-.468.123-.436-.005-.583-.065-.325-.132z" transform="translate(-17.849 7.853)"/><path style="fill:#333;fill-opacity:1;stroke-width:.264583" d="M52.685 278.095c-4.229-1.052-9.152-4.42-17.995-12.313-3.356-2.995-3.938-3.651-4.889-5.515-.426-.836-.555-1.445-.457-2.17.29-2.162 1.216-3.392 7.053-9.36 8.759-8.957 13.752-14.96 19.467-23.404 2.141-3.165 5.532-9.473 6.055-11.265.137-.469-.266-.799-2.854-2.339-5.163-3.071-5.747-3.845-4.72-6.246.278-.653 2.504-7.2 4.945-14.549 4.74-14.266 8.717-25.631 12.524-35.785 1.296-3.456 2.266-6.284 2.155-6.284-.26 0-4.643 4.775-7.045 7.673-4.195 5.062-8.273 10.97-9.831 14.243-1.058 2.22-1.18 3.35-.627 5.835.588 2.65-.465 6.268-2.213 7.601-.447.34-1.274.715-1.838.833-.949.197-1.05.307-1.343 1.454-.914 3.581-3.45 5.76-6.691 5.747-2.775-.01-4.916-1.631-5.993-4.535-.786-2.122-.732-10.005.097-14.112 2.876-14.24 9.005-26.806 18.75-38.438 2.659-3.173 2.745-3.317 2.474-4.094-.154-.444-.28-1.22-.28-1.726 0-.83.399-1.324 4.166-5.151C76.39 111.2 88.29 101.769 91.89 101.769c.896 0 .905-.012.825-1.071l-.082-1.072-2.134-.715c-4.466-1.495-9.433-5.315-12.004-9.232l-1.292-1.967-.952 2.95c-2.252 6.977-5.466 11.8-10.216 15.327-4.276 3.177-8.255 4.559-13.221 4.592-6.098.04-10.844-2.14-10.847-4.982-.002-1.112.61-1.877 2.111-2.637 1.72-.871 4.365-3.355 5.596-5.253.552-.85 1.631-3.173 2.4-5.16 1.727-4.468 3.717-7.586 6.69-10.485 3.307-3.224 6.14-4.727 10.539-5.591 2.142-.42 2.322-.504 2.182-1.009-3.696-13.382.059-27.838 9.768-37.61 5.971-6.009 12.932-9.623 21.327-11.072 12.93-2.232 26.853 1.56 35.262 9.605 5.825 5.573 9.842 13.85 10.773 22.2.237 2.125.212 2.69-.17 3.905-.374 1.19-.426 2.19-.318 6.128.157 5.683.342 6.32 2.186 7.537 1.576 1.042 2.474 2.643 2.698 4.812.277 2.68-.75 4.784-3.202 6.56-.984.712-1.127.975-1.678 3.078-.33 1.264-1.313 3.727-2.183 5.474-2.61 5.239-5.751 8.5-10.452 10.852-3.482 1.743-5.91 2.314-9.922 2.338-3.77.023-5.81-.346-7.996-1.447-1.768-.89-2.058-.931-2.058-.287 0 .303.333.597.916.807.503.182 2.347 1.282 4.097 2.444 1.75 1.162 4.523 2.814 6.162 3.67 4.817 2.515 14.878 6.551 18.237 7.315 2.483.565 3.21 1.412 3.087 3.594-.07 1.24-.003 1.572.34 1.68 3.085.976 11.307 1.446 16.506.945 6.946-.67 16.783-2.786 24.248-5.215 3.555-1.157 3.63-1.198 4.85-2.626 4.453-5.212 13.912-8.863 17.009-6.565.929.69 1.317 2.146.943 3.545-.153.573-.205 1.045-.116 1.047.089.003 1.59-.25 3.336-.563 2.62-.47 3.366-.517 4.265-.269 2.504.69 3.661 2.502 3.668 5.742.004 1.994-.072 2.292-1.149 4.465-.917 1.85-1.597 2.769-3.315 4.478-4.508 4.482-10.606 6.78-17.994 6.78h-2.947l-7.932 2.65c-9.269 3.095-13.199 4.252-17.96 5.287-9.81 2.134-19.555 2.375-27.645.686l-3.01-.63-1.177.899c-.727.555-1.476.898-1.961.898-1.014 0-5.118-1.53-8.898-3.318-1.637-.775-2.977-1.34-2.977-1.258 0 .082-.382 4.33-.848 9.44-.778 8.518-.85 10.149-.858 19.61-.01 9.304.048 10.723.581 14.44 1.03 7.177 2.675 13.546 4.461 17.275.494 1.03.898 2.139.898 2.465 0 .954-1.368 2.247-3.675 3.475-1.18.629-2.146 1.197-2.146 1.263 0 .067.4.922.89 1.9 2.287 4.571 4.174 10.762 5.102 16.738.597 3.843.67 18.526.125 24.942-.195 2.3-.312 4.224-.26 4.275.053.052 1.222.287 2.599.524 5.366.924 9.986 2.971 12.644 5.604 2.8 2.773 3.846 5.813 2.834 8.234-.546 1.309-1.085 1.862-2.523 2.59-2.192 1.112-4.634 1.252-16.381.937-11.6-.312-13.465-.431-14.707-.942-1.18-.485-2.63-1.844-3.16-2.96-.597-1.26-.57-4.422.064-7.481.65-3.13.637-13.76-.021-18.535-1.566-11.355-4.11-19.391-8.045-25.412-.718-1.099-1.797-2.514-2.398-3.146l-1.093-1.148-1.792.172c-.985.095-4.308.248-7.384.34l-5.592.166-.325 1.087c-1.165 3.895-4.02 8.903-7.591 13.317-2.514 3.107-11.164 11.52-18.163 17.667-2.983 2.62-5.433 4.844-5.445 4.944-.012.1 1.05 1.725 2.358 3.61 2.827 4.073 4.324 7.105 4.883 9.89.702 3.496.45 5.363-.94 6.945-1.62 1.847-4.579 2.573-7.51 1.844zm3.946-4.498c.512-.512.517-1.31.024-3.64-.63-2.975-3.112-7.24-7.16-12.302-1.167-1.46-1.225-2.62-.187-3.719.4-.424 3.05-2.824 5.887-5.334 7.006-6.197 14.432-13.154 16.479-15.436 2.27-2.532 4.9-5.977 6.283-8.233 1.105-1.8 3.167-6.001 3.167-6.45 0-.123-.804-.304-1.786-.403-2.498-.25-9.149-1.616-11.022-2.264-.86-.297-1.6-.54-1.645-.54-.045 0-.844 1.527-1.777 3.394-3.024 6.057-6.8 11.675-13.602 20.237-3.62 4.557-5.622 6.778-11.641 12.918-4.813 4.91-5.358 5.555-5.359 6.352 0 .779.346 1.227 2.844 3.674 5.563 5.45 12.79 10.666 16.34 11.791 1.464.465 2.663.448 3.155-.045zm86.518-.588c1.698-.47 1.482-1.857-.611-3.924-2.323-2.292-7.815-4.35-12.948-4.85-3.962-.385-4.292-.839-3.785-5.197.796-6.848 1.098-20.46.564-25.374-.499-4.584-1.524-9.285-2.81-12.888-.93-2.603-2.962-6.514-3.548-6.827-.327-.175-.834-.127-1.623.152-1.736.615-6.644 1.891-9.597 2.496-1.445.296-2.677.588-2.738.649-.06.06.322.676.85 1.368 1.405 1.84 3.917 7.134 5.267 11.098 3.84 11.276 5.654 27.75 4.049 36.76-.816 4.58-.816 4.555.03 5.401.962.961 1.721 1.039 13.161 1.34 8.67.227 12.374.172 13.739-.204zm-43.107-59.447c9.119-1.247 18.376-3.687 23.197-6.115.993-.5 1.806-1.072 1.806-1.271 0-.2-.302-1.165-.671-2.146-2.809-7.461-4.303-16.702-4.54-28.078-.18-8.64.031-12.148 1.772-29.468.154-1.528.39-4.251.524-6.052.278-3.71.546-4.267 2.05-4.267.904 0 1.401.386 2.85 2.212.878 1.107 10.016 5.48 10.471 5.01.878-.905 6.211-17.053 5.747-17.397-.044-.032-.853-.268-1.799-.523-6.429-1.735-18.495-7.103-22.093-9.83-.873-.661-2.042-1.44-2.597-1.729l-1.01-.526-1.031.931c-4.178 3.775-11.478 4.103-18.116.815-4.22-2.09-5.52-3.4-6.917-6.967-.238-.608-.304-.576-3.278 1.55-5.345 3.824-10.66 8.491-17.24 15.139l-4.417 4.462 3.33 4.683c1.831 2.576 4.044 5.755 4.918 7.065.874 1.31 1.627 2.426 1.672 2.48.045.055.891-.643 1.88-1.551 2.02-1.858 7.331-6.157 8.935-7.233.58-.39 1.273-.707 1.542-.707.694 0 2.036 1.431 2.026 2.162-.011.818-.143.964-3.828 4.229-4.972 4.405-4.525 3.71-7.551 11.733-4.405 11.674-7.199 19.416-9.741 26.987-3.01 8.965-8.77 26.852-8.77 27.234 0 .366.54.698 3.674 2.264 5.432 2.716 11.215 4.295 19.345 5.285 2.993.364 14.15.126 17.86-.381zM45.89 186.83c.287-.366.67-1.288.852-2.05 1.143-4.802 2.398-6.31 4.2-5.049.589.413.648.41.984-.05.454-.62.45-.809-.07-3.097-.668-2.933-.418-4.652 1.147-7.916 2.591-5.402 8.159-12.92 14.254-19.246l3.354-3.481-.91-1.466c-.5-.806-2.201-3.296-3.779-5.533l-2.869-4.068-2.03 2.456c-9.73 11.773-16.054 24.909-18.424 38.267-.633 3.573-.642 8.49-.017 10.11.267.69.684 1.372.927 1.514.812.474 1.832.306 2.38-.391zm115.006-42.996c8.691-.802 17.947-3.19 31.423-8.108l4.031-1.47 3.704.039c3.167.034 4.088-.057 6.35-.626 4.926-1.24 8.863-3.785 11.02-7.122 1.238-1.915 1.506-3.099.91-4.009-.52-.793-1.286-.835-4.786-.26-1.31.215-3.31.392-4.444.392-1.838.001-2.133-.07-2.712-.648-.888-.888-.87-2.222.045-3.31.382-.454.636-.884.564-.955-.291-.292-2.803.506-4.68 1.486-2.383 1.245-4.182 2.735-5.571 4.615-1.257 1.7-1.84 1.982-7.518 3.627-11.634 3.369-19.439 4.835-27.41 5.15-5.682.225-11.863-.446-14.817-1.608-.31-.122-.534.351-1.024 2.16-.345 1.274-1.206 3.917-1.912 5.873-.707 1.955-1.255 3.586-1.218 3.623.132.131 5.493.927 7.65 1.136 3.238.313 7.107.318 10.395.015zm-52.255-31.416c.913-.456.928-.49 1.109-2.579.226-2.611 1.56-7.118 2.36-7.969.884-.94 1.917-.803 4.18.558 3.151 1.896 4.062 2.12 8.623 2.12 3.426 0 4.239-.085 5.946-.621 3.253-1.022 6.696-2.983 6.166-3.512-.129-.13-.933-.417-1.786-.64-1.856-.483-4.258-1.722-5.62-2.9-.846-.73-.99-1.015-.99-1.948 0-1.275.63-2.057 1.855-2.302.668-.134 1.006.005 1.967.808 1.656 1.383 3.413 2.202 5.488 2.558 2.711.465 2.993.322 4.11-2.087 1.027-2.214 1.65-4.222 1.93-6.227.203-1.445.859-2.404 2.057-3.009 2.397-1.208 3.045-3.12 1.5-4.42-.436-.367-1.034-.744-1.328-.837-.618-.196-1.6-2.003-2.216-4.082-.337-1.137-.426-2.69-.426-7.441 0-7.438-.026-7.596-1.289-7.807-4.002-.668-6.463-1.752-9.194-4.053l-1.883-1.586-.32.711c-.175.391-1.212 2.055-2.303 3.698-3.643 5.486-8.872 10.137-14.512 12.907-6.17 3.03-10.89 3.315-11.93.718-1.862-4.645-2.859-5.635-5.66-5.626-2.072.007-3.486.582-4.894 1.99-1.63 1.631-2.123 3.014-2.118 5.942.004 2.162.104 2.725.711 4.03 1.396 2.998 2.878 4.217 6.164 5.066 1.556.402 2.513 1.135 2.513 1.924 0 .208-.233 1.118-.518 2.021-.745 2.366-1.07 5.253-1.07 9.534 0 3.575-.035 3.825-.753 5.338-.415.874-1.07 2.051-1.455 2.617-.401.588-.702 1.395-.702 1.882 0 1.888 4.557 4.85 8.467 5.505 1.864.312 4.93.164 5.82-.28zm24.738-32.12c-1.081-.592-1.19-1.005-1.19-4.49 0-3.324.009-3.376.697-3.917.968-.762 2.333-.718 3.151.1.684.685.844 1.85.711 5.172-.086 2.142-.25 2.594-1.11 3.038-.91.47-1.527.497-2.259.096zm-76.983 25.3c3.498-.9 7.714-3.41 10.006-5.959 2.725-3.03 4.368-6.397 6.227-12.754.988-3.378 1.036-3.693.693-4.515-.586-1.401-.96-1.582-2.826-1.365-6.12.71-10.897 4.97-13.725 12.24-1.972 5.07-3.292 7.326-5.732 9.793-1.207 1.22-2.194 2.265-2.194 2.32 0 .055.387.212.86.349 1.36.393 4.966.334 6.691-.11zm36.011-12.842c.166-.354.383-1.66.482-2.902l.18-2.259-1.497-.62c-3.83-1.588-6.83-6.897-6.797-12.034.034-5.439 2.645-9.506 7.613-11.859 1.726-.817 2.003-.868 4.743-.868 2.496 0 3.066.083 4.003.584 1.489.797 3.148 2.752 4.155 4.897.984 2.095 1.002 2.1 4.043 1.04 7.39-2.572 14.403-9.227 18.224-17.293.656-1.385 1.193-2.645 1.193-2.8 0-.503 1.376-1.377 2.17-1.377 1.243 0 1.746.437 2.714 2.36.99 1.965 2.792 3.766 4.744 4.741 1.383.69 4.565 1.548 4.816 1.298.289-.29-1.431-5.403-2.603-7.737-1.448-2.886-2.337-4.123-4.821-6.715-3.402-3.547-6.091-5.396-10.565-7.263-5.027-2.097-10.332-2.98-16.541-2.75-10.128.373-17.56 3.417-24 9.827-6.388 6.358-9.892 14.8-9.887 23.815.004 7.317 2.13 14.264 6.275 20.492 4.203 6.318 10.073 10.155 11.356 7.423z" transform="translate(-17.849 7.853)"/></svg>