<svg width="210mm" height="297mm" viewBox="0 0 210 297" xmlns="http://www.w3.org/2000/svg"><path style="fill:#d0d0d0;fill-opacity:1;stroke-width:.264583" d="M94.334 211.994c.005-.437.064-.584.131-.326.067.257.063.614-.01.794-.072.179-.127-.032-.121-.468zm7.377-.816c.013-.309.076-.371.16-.16.077.19.067.42-.02.507-.089.088-.151-.068-.14-.347zm.265-7.144c.013-.308.075-.371.16-.16.076.191.067.42-.021.507-.088.088-.15-.068-.14-.347zM87.953 193.98c.013-.308.075-.371.16-.16.076.19.067.42-.021.507-.088.088-.15-.068-.14-.347zm-2.117-.53c.013-.308.076-.37.16-.16.077.192.067.42-.02.508-.089.088-.151-.069-.14-.347zm30.977-17.308c0-.363.06-.512.134-.33.073.182.073.48 0 .661-.074.182-.134.033-.134-.33zm-2.116-1.058c0-.364.06-.512.133-.33.074.181.074.479 0 .66-.073.183-.133.034-.133-.33zm-30.713-3.065c.013-.308.076-.37.16-.16.076.192.067.42-.02.508-.089.088-.151-.069-.14-.348zm40.481-6.085c.013-.308.076-.371.16-.16.077.191.067.42-.02.507-.088.088-.151-.068-.14-.347zm-8.801-3.995c.19-.077.419-.067.507.02.088.089-.069.151-.347.14-.309-.013-.371-.076-.16-.16zm4.618-.003c.258-.067.615-.063.794.01.18.072-.031.127-.468.122-.436-.005-.583-.065-.326-.132zm-7.407-28.921c0-.655.052-.923.115-.595.063.327.063.863 0 1.19-.063.328-.115.06-.115-.595zm5.749-6.979c0-.055.208-.263.463-.463.42-.33.429-.32.1.1-.346.44-.563.58-.563.363zm-38.928-1.686c-.329-.42-.32-.43.1-.1.255.2.463.408.463.463 0 .218-.217.078-.563-.363zm57.49-1.918c0-.364.06-.513.134-.331.073.182.073.48 0 .661-.074.182-.134.034-.134-.33zm-14.013-.662c.005-.436.065-.583.132-.325.067.257.063.614-.01.793-.073.18-.127-.031-.122-.468zm-.01-1.984c0-.364.06-.513.134-.33.073.181.073.479 0 .66-.074.182-.134.034-.134-.33zm-34.681-2.271c.013-.308.075-.371.16-.16.076.191.067.42-.021.507-.088.088-.15-.068-.14-.347zm-4.763-.53c.013-.308.076-.37.16-.16.077.192.067.42-.02.508-.089.088-.151-.068-.14-.347zm3.155-17.937c0-.054.208-.263.463-.463.42-.329.429-.32.1.1-.346.441-.563.581-.563.363z" transform="translate(-3.57 -2.856)"/><path style="fill:#b9b9b9;fill-opacity:1;stroke-width:.264583" d="M117.343 213.449c0-.364.06-.513.133-.331.073.182.073.48 0 .661-.073.182-.133.034-.133-.33zm-23.04-.42c.013-.307.075-.37.16-.16.076.192.067.42-.021.508-.088.088-.15-.068-.14-.347zm7.724-7.518c0-.655.052-.923.115-.595.063.327.063.863 0 1.19-.063.328-.115.06-.115-.595zm7.662-4.498c0-.509.055-.717.121-.463.067.255.067.672 0 .926-.066.255-.12.047-.12-.463zm-2.157-.419c.013-.308.076-.37.16-.16.076.192.067.42-.02.508-.089.088-.151-.069-.14-.348zm-5.627-2.672c.191-.076.42-.067.507.021.088.088-.068.15-.347.139-.308-.013-.37-.075-.16-.16zm8.186.006c.182-.073.48-.073.661 0 .182.074.033.134-.33.134-.364 0-.513-.06-.331-.134zm5.929-6.968c0-.364.06-.513.133-.331.074.182.074.48 0 .661-.073.182-.133.033-.133-.33zm3.968-1.323c0-.364.06-.513.134-.331.073.182.073.48 0 .661-.074.182-.134.034-.134-.33zm-30.183-13.913c.013-.309.075-.371.16-.16.076.19.067.419-.021.507-.088.088-.15-.068-.139-.347zm34.66-3.705c.013-.308.076-.37.16-.16.077.192.067.42-.02.508-.088.088-.151-.069-.14-.348zm0-6.879c.013-.308.076-.37.16-.16.077.191.067.42-.02.507-.088.088-.151-.068-.14-.347zm-30.233-25.955c.191-.077.42-.067.508.02.087.088-.069.151-.348.14-.308-.013-.37-.076-.16-.16zm10.919-2.884c.013-.309.075-.371.16-.16.076.19.067.419-.021.507-.088.088-.15-.068-.14-.347zm-18.521-6.615c.013-.308.075-.37.16-.16.076.191.067.42-.021.507-.088.088-.15-.068-.139-.347zm4.279-.293c.254-.066.671-.066.926 0 .254.067.046.121-.463.121-.51 0-.718-.054-.463-.12zm36.233-.479c.005-.436.065-.583.132-.325.067.257.062.614-.01.793-.073.18-.128-.031-.122-.468zm2.35-2.668c.013-.308.076-.37.16-.16.077.192.067.42-.02.508-.088.088-.151-.069-.14-.348zm7.694-2.756c0-.363.06-.512.134-.33.073.182.073.48 0 .661-.074.182-.134.033-.134-.33zm-41.54-4.233c0-.364.06-.513.134-.33.074.181.074.479 0 .66-.073.183-.133.034-.133-.33z" transform="translate(-3.57 -2.856)"/><path style="fill:#a3a3a3;fill-opacity:1;stroke-width:.264583" d="M119.734 222.577c.005-.437.064-.583.131-.326.068.258.063.615-.01.794-.072.179-.127-.032-.122-.468zm-21.017-3.23c.329-.063.805-.06 1.058.005.253.066-.016.118-.598.115-.582-.003-.79-.057-.46-.12zm9.08-2.084c.012-.308.075-.37.16-.16.076.191.067.42-.021.507-.088.088-.15-.068-.14-.347zm-6.086-4.762c.013-.309.076-.371.16-.16.077.19.067.419-.02.507-.089.088-.151-.069-.14-.347zm18.013-2.756c0-.364.06-.513.133-.331.074.182.074.48 0 .661-.073.182-.133.033-.133-.33zm-27.756-3.308c.002-.582.057-.789.12-.46.063.33.06.806-.005 1.059-.067.253-.118-.017-.115-.599zm17.68-4.255c.013-.308.076-.371.16-.16.077.191.068.42-.02.507-.088.088-.15-.068-.14-.347zm8.513-.772c.003-.582.057-.789.12-.46.064.33.062.806-.004 1.059-.067.253-.118-.017-.115-.599zm-17.05-3.488c.192-.076.42-.067.508.021.088.088-.069.15-.348.139-.308-.013-.37-.075-.16-.16zm-16.567-13.445c.005-.437.065-.583.132-.326.067.258.062.615-.01.794-.072.179-.127-.032-.122-.468zm2.88-5.578c.012-.309.075-.371.16-.16.076.19.067.419-.021.507-.088.088-.15-.069-.14-.347zm37.062-14.663c0-.364.06-.512.134-.33.073.181.073.48 0 .661-.074.182-.134.033-.134-.33zm2.625-4.652c.013-.308.076-.371.16-.16.077.191.067.42-.02.507-.089.088-.151-.068-.14-.347zm9.055-28.95c0-.8.05-1.128.11-.727.06.4.06 1.055 0 1.455-.06.4-.11.073-.11-.728zM83.72 115.928c.012-.309.075-.371.16-.16.076.19.066.42-.021.507-.088.088-.15-.068-.14-.347z" transform="translate(-3.57 -2.856)"/><path style="fill:#8c8c8c;fill-opacity:1;stroke-width:.264583" d="M109.934 217.153c0-.364.06-.513.134-.33.073.181.073.479 0 .66-.074.183-.134.034-.134-.33zm-2.116-.794c0-.364.06-.512.133-.33.073.181.073.479 0 .66-.073.183-.133.034-.133-.33zm-6.107-3.065c.013-.308.076-.37.16-.16.077.192.067.42-.02.508-.089.088-.151-.069-.14-.348zm7.938-10.318c.012-.309.075-.371.16-.16.076.19.067.419-.021.507-.088.088-.15-.069-.14-.347zm-21.431-11.642c.012-.308.075-.371.16-.16.076.191.066.42-.022.507-.087.088-.15-.068-.138-.347zm36.756-5.137c0-.146.119-.265.264-.265a.265.265 0 0 1 0 .53.265.265 0 0 1-.264-.265zm-37.55-6.505c.012-.308.075-.37.16-.16.076.191.067.42-.021.508-.088.087-.15-.069-.14-.348zm26.987-1.058c.013-.308.076-.371.16-.16.077.191.067.42-.02.507-.089.088-.151-.068-.14-.347zm-30.691-3.969c.012-.308.075-.37.16-.16.076.191.066.42-.021.507-.088.088-.15-.068-.14-.347zm33.421-6.725c0-2.11.041-2.973.092-1.918.05 1.055.05 2.782 0 3.837-.05 1.055-.092.191-.092-1.919zm-28.923 2.756c.012-.308.075-.37.16-.16.076.192.066.42-.022.508-.087.088-.15-.069-.138-.348zm24.41-9.635c0-1.091.046-1.538.103-.992.057.546.057 1.439 0 1.984-.057.546-.104.1-.104-.992zm22.63-43.854c-.328-.42-.319-.43.1-.1.441.345.582.563.364.563-.055 0-.264-.209-.463-.463zm-51.498-2.448c0-.51.055-.718.121-.463.067.255.067.671 0 .926-.066.255-.12.046-.12-.463z" transform="translate(-3.57 -2.856)"/><path style="fill:#767676;fill-opacity:1;stroke-width:.264583" d="M90.776 226.751a8.42 8.42 0 0 1 1.72 0c.473.059.086.107-.86.107s-1.333-.048-.86-.107zm21.713-6.34c.19-.076.419-.066.507.022.088.088-.069.15-.347.139-.309-.013-.371-.076-.16-.16zm2.646 0c.19-.076.419-.066.507.022.088.088-.069.15-.348.139-.308-.013-.37-.076-.16-.16zm-16.421-3.169c.182-.073.48-.073.661 0 .182.074.033.134-.33.134-.364 0-.513-.06-.331-.134zm3.048-2.47c0-.655.052-.923.115-.596.063.328.063.864 0 1.191-.063.327-.115.06-.115-.595zm6.035.64c.012-.31.075-.372.16-.16.076.19.067.418-.021.506-.088.088-.15-.068-.14-.347zm1.882-11.356c.005-.437.065-.583.132-.326.067.258.063.615-.01.794-.072.18-.127-.031-.122-.468zm-15.884-3.043c0-.364.06-.512.133-.33.074.181.074.48 0 .661-.073.182-.133.033-.133-.33zm22.468-20.262c.013-.309.076-.371.16-.16.077.19.067.419-.02.507-.089.088-.151-.069-.14-.347zm-30.67-3.815c0-.364.06-.512.133-.33.073.181.073.48 0 .661-.073.182-.133.033-.133-.33zm-.076-17.396c-.33-.42-.32-.43.1-.1.44.346.58.563.363.563-.055 0-.263-.208-.463-.463zm27.042-.75c.013-.308.076-.37.16-.16.076.191.067.42-.02.507-.089.088-.151-.068-.14-.347zm-18.938-18.366c.263-.291.538-.53.61-.53.074 0-.082.239-.346.53-.263.29-.538.529-.611.529-.073 0 .083-.238.347-.53zm44.603-9.68c.012-.308.075-.37.16-.16.076.192.067.42-.021.508-.088.088-.15-.069-.14-.348zM81.888 111.85c0-.364.06-.513.134-.331.073.182.073.48 0 .661-.074.182-.134.034-.134-.33zm14.18.354c.182-.074.48-.074.661 0 .182.073.034.133-.33.133s-.513-.06-.331-.133zm33.69-.773c.012-.308.075-.371.159-.16.076.19.067.42-.02.507-.089.088-.151-.068-.14-.347zm-21.503-19.077c.191-.076.42-.067.507.021.088.088-.068.15-.347.14-.308-.013-.37-.076-.16-.16z" transform="translate(-3.57 -2.856)"/><path style="fill:#606060;fill-opacity:1;stroke-width:.264583" d="M105.345 228.614c.19-.077.42-.067.507.02.088.089-.068.151-.347.14-.308-.013-.371-.076-.16-.16zm4.217.006c.182-.074.48-.074.661 0 .182.073.033.133-.33.133-.364 0-.513-.06-.331-.133zm-5.01-2.122c.19-.077.418-.067.506.02.088.088-.068.151-.347.14-.308-.013-.37-.076-.16-.16zm-13.782-1.863c.47-.058 1.304-.06 1.853-.002.548.058.164.105-.854.107-1.02 0-1.468-.046-.999-.105zm27.102-17.8c0-.364.06-.513.133-.331.074.182.074.48 0 .661-.073.182-.133.033-.133-.33zm2.136-1.852c0-.51.055-.718.121-.463.067.254.067.67 0 .926-.067.254-.121.046-.121-.463zm-26.188-2.514c.003-.582.057-.789.12-.46.063.33.06.805-.005 1.058-.067.253-.118-.016-.115-.598zm-2.132-3.175c.005-.437.064-.583.132-.326.067.258.062.615-.01.794-.073.18-.128-.031-.122-.468zm7.572.48c.19-.076.419-.066.507.022.088.088-.069.15-.348.139-.308-.013-.37-.076-.16-.16zm2.364-15.34c.182-.073.48-.073.662 0 .182.074.033.134-.331.134s-.513-.06-.33-.134zm7.69-.006c.19-.076.419-.067.507.021.088.088-.069.15-.347.14-.309-.013-.371-.076-.16-.16zm-8.219-2.11c.182-.074.48-.074.662 0 .181.073.033.133-.331.133s-.513-.06-.33-.134zm8.748-.007c.19-.076.42-.067.507.021.088.088-.068.15-.347.14-.309-.014-.371-.076-.16-.16zm16.475-8.175c.012-.309.075-.371.16-.16.076.19.066.419-.022.507-.087.088-.15-.068-.138-.347zm.529-17.198c.012-.309.075-.371.16-.16.076.19.067.419-.021.507-.088.088-.15-.068-.14-.347zm-28.046-38.1c.013-.309.075-.371.16-.16.076.19.067.419-.021.507-.088.088-.15-.068-.14-.347zm.723-13.256c.191-.076.42-.067.507.021.088.088-.068.15-.347.139-.308-.013-.371-.075-.16-.16zm-8.365-2.597c.005-.437.064-.583.131-.326.067.257.063.615-.01.794-.072.179-.127-.032-.121-.468zm17.89-12.748c.191-.077.42-.067.507.02.088.089-.068.151-.347.14-.308-.013-.371-.076-.16-.16z" transform="translate(-3.57 -2.856)"/><path style="fill:#494949;fill-opacity:1;stroke-width:.264583" d="M119.204 215.962c.005-.436.065-.583.132-.325.067.257.063.614-.01.793-.072.18-.127-.031-.122-.468zm-26.753-.286c.013-.309.075-.371.16-.16.076.19.067.419-.021.507-.088.088-.15-.068-.14-.347zm15.425-4.08c0-1.673.043-2.357.095-1.52a29.41 29.41 0 0 1 0 3.042c-.052.837-.095.152-.095-1.521zm-3.993-.396c.002-.728.053-.994.114-.592.06.402.06.998-.004 1.323-.063.325-.113-.004-.11-.731zm19.3-26.59c0-.51.055-.719.121-.464.067.255.067.671 0 .926-.066.255-.121.046-.121-.463zm-39.728-6.505c.013-.308.075-.371.16-.16.076.19.067.42-.021.507-.088.088-.15-.068-.139-.347zm4.498-4.498c.013-.308.075-.371.16-.16.076.191.067.42-.021.507-.088.088-.15-.068-.14-.347zm2.381-3.704c.013-.309.076-.371.16-.16.076.19.067.42-.02.507-.089.088-.151-.068-.14-.347zm45.157-32.312a3.768 3.768 0 0 1 1.19 0c.328.063.06.115-.595.115s-.923-.052-.595-.115zm-41.016-.533c.47-.059 1.303-.06 1.852-.002.549.057.164.105-.854.106-1.019.001-1.468-.046-.998-.104zm-8.693-1.33c-.33-.42-.32-.43.1-.1.254.2.463.408.463.462 0 .218-.218.078-.563-.363zm41.913-22.16c.002-.727.054-.993.114-.591.061.402.06.997-.004 1.323-.062.325-.112-.004-.11-.731z" transform="translate(-3.57 -2.856)"/><path style="fill:#333;fill-opacity:1;stroke-width:.264583" d="M104.671 228.503c-2.439-.284-3.959-1.04-4.449-2.212l-.37-.886-2.057.561c-1.643.448-2.83.563-5.894.57-3.427.008-3.95-.05-4.895-.558-1.728-.925-2.108-1.513-2.108-3.255 0-1.364.103-1.653.954-2.69.928-1.128 2.69-2.197 5.608-3.4 1.173-.484 1.267-.59 1.133-1.261-.08-.403-.277-4.245-.437-8.538-.16-4.293-.328-7.925-.373-8.072-.044-.146-.709-.492-1.477-.768-1.716-.617-3.467-1.58-4.055-2.23-.4-.442-.409-.722-.087-3.067l.354-2.58-.633-.24c-.348-.132-.732-.24-.853-.24s-.583-.414-1.027-.92c-1.373-1.564-1.698-3.831-.987-6.886.203-.873.446-2.42.54-3.44.383-4.19.721-7.001 1.097-9.128.586-3.319 1.462-7.45 1.735-8.178.194-.519.106-.774-.476-1.382-.704-.734-.71-.77-.38-2.274.886-4.046 3.706-10.972 5.593-13.738.482-.706 1.586-2.027 2.454-2.937l1.579-1.653h-1.045c-.575 0-1.745-.183-2.6-.405-5.385-1.403-9.52-6.247-10.113-11.849-.143-1.343-.275-1.623-1.048-2.213-1.743-1.33-1.793-4.04-.1-5.464.429-.361.886-.697 1.017-.748.13-.05.415-2.152.632-4.672.339-3.935.342-4.805.028-6.167-1.716-7.425 6.75-15.287 18.344-17.034 8.186-1.234 15.8.382 21.357 4.533 4.532 3.385 7.608 9.324 8.063 15.57l.174 2.377 1.72.292c4.113.7 6.611 2.809 7.538 6.367.53 2.035.503 3.58-.113 6.519-1.104 5.265-.948 6.32 1.173 7.92.728.549 1.323 1.206 1.323 1.46 0 .271-.49.735-1.19 1.127-1.072.6-1.482.667-4.101.667-2.525 0-3.069-.081-4.102-.613-2.232-1.15-3.62-2.756-4.368-5.054-.46-1.414-.46-3.803-.002-7.694.077-.655.062-1.012-.033-.794-.78 1.785-3.028 4.2-5.343 5.736-1.508 1-4.505 2.186-5.55 2.196-1.267.011-1.637.45-1.637 1.938 0 1.9.786 2.98 3.222 4.427 6.032 3.583 8.96 9.046 10.661 19.897.223 1.418.404 2.941.404 3.386 0 .977-.981 2.052-2.074 2.27l-.765.154.009 3.876c.016 6.984-.22 12.5-.544 12.7-.217.135-.05 1.158.591 3.62 1.49 5.723 2.346 10.572 1.984 11.248-.336.628-4.208 2.558-6.642 3.31l-1.489.46-.159 1.615c-.4 4.075-1.087 15.334-1.059 17.358.017 1.237.112 3.261.211 4.498.16 1.99.119 2.348-.355 3.1-1.12 1.778-4.356 3.094-8.63 3.51-2.976.289-3.218.288-5.878-.022zm7.709-2.258c2.777-.561 4.882-1.55 5.227-2.453.16-.42.176-1.251.04-2.141-.19-1.241-.3-1.444-.747-1.38-1.555.223-5.676.057-6.615-.266-1.04-.359-1.117-.34-3.704.868-2.882 1.346-4.229 2.407-4.518 3.557-.249.992.136 1.522 1.376 1.896 1.54.465 6.459.42 8.94-.081zm-16.907-1.828c3.75-.64 4.613-1.005 5.884-2.481.938-1.09 1.096-1.432.965-2.086l-.156-.783-2.216.138c-1.777.111-2.683.018-4.582-.472-2.326-.6-2.388-.602-3.644-.135-2.339.868-4.066 1.997-4.522 2.953-1.288 2.7 2.19 3.905 8.27 2.866zm10.735-5.422c.876-.442 1.66-.982 1.745-1.201.083-.219.064-4.262-.043-8.986l-.195-8.588h-3.298l-.169 2.976c-.456 8.042-.522 13.707-.176 15.15.192.799.393 1.453.446 1.453.054 0 .814-.362 1.69-.804zm10.384-.766c.625-.237.655-.365.83-3.505.1-1.793.286-4.272.413-5.509.128-1.237.314-4.055.414-6.263l.182-4.015-1.11.249c-.61.137-2.541.416-4.291.62-1.75.204-3.229.416-3.284.472-.056.056-.027 4.043.064 8.86l.167 8.756.817.264c1.06.342 4.96.39 5.798.071zm-14.994-1.428c.207-.211.363-2.927.491-8.537l.187-8.228-3.27-.323c-1.797-.178-3.715-.422-4.26-.542l-.993-.218-.004 1.096c-.005 1.351.5 11.768.699 14.395.113 1.501.251 1.978.632 2.182 1.399.749 5.837.868 6.518.175zm14.777-19.466c4.119-.88 8.6-2.456 10.01-3.52.53-.401.45-1.244-.54-5.766-.515-2.35-.871-2.917-.871-1.386 0 2.484-1.8 5.354-3.358 5.354-.29 0-.745.239-1.008.53-.326.36-.823.532-1.562.538-.596.005-1.381.18-1.745.388-1.586.906-3.175-.073-3.175-1.955 0-.861-.108-1.085-.596-1.234-1.632-.497-1.956-2.015-.98-4.583.297-.782.496-1.467.44-1.521-.054-.055-1.677.04-3.606.212-2.726.243-4.401.24-7.519-.012-3.734-.302-9.234-1.203-11.217-1.839-.575-.184-.911-.186-1.022-.007-.216.35-1.694 10.63-1.694 11.785 0 .951 3.596 2.29 8.334 3.104 3.621.621 3.769.629 10.848.55 5.56-.061 7.037-.163 9.26-.638zm.719-6.045c.222-.255.609-1.095.86-1.867.335-1.029.574-1.381.894-1.32.538.102.708 1.284.338 2.346-.235.674-.207.775.217.775.532 0 .808-.497.808-1.455 0-.969.277-1.456.829-1.456.353 0 .556.244.668.803.147.736.189.763.497.323.65-.93.995-2.878 1.039-5.888a28.69 28.69 0 0 1 .655-5.821c.495-2.252.636-3.85.74-8.441l.13-5.663-1.419.183c-.78.1-2.503.255-3.828.342l-2.41.158-.171 6.777c-.183 7.219-.54 10.226-1.458 12.297-.593 1.338-1.622 4.324-1.622 4.71 0 .424.98.216 1.455-.309 1.013-1.12 1.63-.4 1.05 1.225-.75 2.107-.314 3.475.728 2.28zm-30.22-3.837c0-.327.193-1.488.43-2.58.257-1.187.414-3.032.39-4.594-.037-2.596.693-10.304 1.408-14.852.782-4.979.787-4.63-.059-4.63-.716 0-.765.083-1.195 2.05-1.136 5.201-1.812 9.616-2.282 14.91-.124 1.397-.431 3.385-.682 4.417-.304 1.251-.396 2.278-.275 3.08.284 1.897 2.264 3.82 2.265 2.2zm25.085-5.334c1.064-.19 2.038-.452 2.164-.582.359-.367.804-5.776.98-11.902l.16-5.582-.874-.174c-1.442-.289-1.586-.553-1.588-2.916-.001-1.183-.14-3.222-.309-4.532-.484-3.757-.452-4.483.202-4.577.304-.043.691.09.862.295.456.55.819 2.838 1.038 6.55l.193 3.288 4.101-.009c3.118-.007 4.632-.133 6.315-.526l2.213-.518-.168-1.855c-.421-4.651-1.98-10.205-3.796-13.518-1.143-2.087-3.87-4.991-5.667-6.034l-1.236-.717-1.787 1.224c-3.654 2.502-8.268 4.36-10.817 4.357-2.71-.004-4.86-1.494-5.475-3.794-.18-.678-.416-1.232-.522-1.232-.42 0-4.148 3.923-5.063 5.327-1.957 3.003-3.765 7.146-4.982 11.417-.679 2.381-.6 2.565 1.197 2.767 1.121.127 1.213.092 1.213-.457 0-.806.985-4.916 1.49-6.22.587-1.513 1.194-1.845 1.687-.924.204.38.204.816.001 1.521-1.413 4.913-3.032 15.5-3.84 25.115-.188 2.228-.28 2.132 2.938 3.012 5.16 1.41 14.835 2.007 19.37 1.195zm-3.786-40.827c1.702-.7 4.882-2.441 6.035-3.304.456-.342.44-.434-.33-1.899-1.218-2.315-1.063-5.051.353-6.227.356-.294.309-.417-.379-.996-1.474-1.24-.719-2.755.81-1.625.688.51.883.538 1.8.263 1.32-.396 3.35-2.184 4.066-3.583.418-.817.557-1.564.549-2.964-.017-2.885-1.065-4.346-3.119-4.346-1.376 0-2.393.634-3.186 1.986-.731 1.248-1.215 1.452-1.875.792-.218-.218-.667-.397-.998-.397-1.118 0-3.622-1.036-5.467-2.262-2.573-1.711-4.881-4.37-6.469-7.454l-.575-1.117-.545.588c-.3.323-.72 1.183-.932 1.911l-.386 1.323-1.556-.022c-1.762-.024-3.172-.742-4.463-2.268-.92-1.089-1.856-3.157-2.108-4.652-.168-1-.243-1.093-.693-.852-.943.504-3.112 2.986-3.802 4.35-.783 1.549-1.197 4.406-1.206 8.339-.004 1.382-.094 2.646-.2 2.808-.108.163-.493.385-.857.495-2.133.642-2.133 2.56.001 3.413 1.24.496 1.528 1.004 1.064 1.871-.856 1.6.784 5.786 3.247 8.291 2.733 2.78 6.223 3.836 10.791 3.266 1.432-.178 3.53-.601 4.664-.939 2.27-.676 2.725-.642 2.719.204-.008 1.072-.59 1.485-2.827 2.01-.757.178-1.512.486-1.677.686-.63.758.312 2.6 1.598 3.125.915.375 4.13-.065 5.953-.814zm-19.05-9.968c-1.814-.57-2.25-.905-2.25-1.73 0-.977.6-1.197 1.671-.614.608.331 1.434.457 2.96.449 2.317-.012 3.545-.458 4.513-1.639 1.012-1.233 2.37-.165 1.551 1.221-.545.923-1.998 1.745-4.004 2.265-1.894.49-2.996.503-4.441.048zm7.335-10.627c-1.264-.885-.404-4.086 1.098-4.086.914 0 1.224.515 1.224 2.038 0 1.049-.133 1.535-.53 1.931-.636.637-1.015.662-1.792.117zm-10.491-1.327c-.63-.629-.558-2.882.113-3.553 1.153-1.152 2.381-.235 2.381 1.78 0 1.795-1.445 2.823-2.494 1.773zm52.236 16.059c0-.128-.187-.388-.416-.578-1.494-1.24-1.8-4-.911-8.212.289-1.368.527-3.153.529-3.966.011-4.119-2.275-6.896-5.998-7.285l-1.59-.167-.18 1.757c-.1.965-.3 2.069-.445 2.451-.206.542-.17.801.167 1.173.381.42.41 1.032.24 5.225-.19 4.7-.186 4.764.47 6.196 1.077 2.354 3.261 3.601 6.348 3.625.982.007 1.786-.091 1.786-.219zm-15.273-9.294c2.607-2.299 3.909-5.022 4.576-9.573.477-3.249.262-6.109-.73-9.74-1.658-6.072-5.918-10.72-11.937-13.024-7.689-2.944-19.27-1.52-25.648 3.15-2.69 1.97-4.92 5.322-5.161 7.755l-.118 1.193 1.265-1.308c2.415-2.496 4.846-3.68 5.597-2.727.143.182.333.866.423 1.521.463 3.383 2.007 5.857 4.029 6.457.458.136.644-.051 1.14-1.149.797-1.763 2.196-2.983 3.3-2.875.716.07.938.286 1.57 1.536 1.374 2.72 2.643 4.504 4.307 6.061 1.795 1.68 4.712 3.3 6.476 3.598 1.038.175 1.148.13 1.886-.766.952-1.154 3.133-1.901 4.78-1.638 2.944.47 4.437 2.579 4.437 6.268 0 2.585-.754 4.417-2.562 6.224l-1.448 1.45 1.277-.65c.703-.356 1.846-1.15 2.541-1.763z" transform="translate(-3.57 -2.856)"/></svg>