<svg width="210mm" height="297mm" viewBox="0 0 210 297" xmlns="http://www.w3.org/2000/svg"><path style="fill:#b9b9b9;fill-opacity:1;stroke-width:.264583" d="M97.215 186.523a3.768 3.768 0 0 1 1.19 0c.328.063.06.114-.595.114s-.923-.051-.595-.114zm30.708-82.28c.191-.076.42-.067.507.021.088.088-.068.15-.347.139-.308-.013-.371-.075-.16-.16z"/><path style="fill:#8c8c8c;fill-opacity:1;stroke-width:.264583" d="M54.914 169.578c-.33-.42-.32-.43.1-.1.254.2.463.408.463.463 0 .217-.218.077-.563-.363z"/><path style="fill:#767676;fill-opacity:1;stroke-width:.264583" d="m53.996 168.651-.504-.595.596.504c.56.474.715.687.504.687-.05 0-.318-.268-.596-.596zm83.237-40.515c0-.054.208-.263.463-.463.42-.329.429-.32.1.1-.346.441-.563.581-.563.363z"/><path style="fill:#606060;fill-opacity:1;stroke-width:.264583" d="M134.984 163.161c.263-.29.538-.529.611-.529.073 0-.083.238-.346.53-.264.29-.539.529-.612.529-.072 0 .084-.239.347-.53z"/><path style="fill:#333;fill-opacity:1;stroke-width:.264583" d="M92.386 186.28c-15.542-1.593-28.748-7.858-39.052-18.526-4.178-4.325-8.044-9.905-8.335-12.029-.354-2.583 1.347-4.247 4.37-4.275 2.117-.02 2.916.497 4.284 2.768 3.184 5.287 8.226 10.746 13.21 14.303 3.23 2.305 9.362 5.388 13.2 6.638 6.344 2.064 12.91 2.973 19.834 2.746 18.357-.603 33.935-9.531 42.455-24.333.893-1.551 1.957-2.138 3.877-2.137 2.744.002 4.498 1.463 4.498 3.749 0 1.875-2.518 5.914-6.758 10.842-6.393 7.43-15.721 13.67-25.373 16.971-7.063 2.416-11.69 3.203-19.463 3.312-3.129.044-6.165.031-6.747-.029zm-27.553-54.735c-5.06-1.1-9.326-5.343-10.537-10.48-1.07-4.541.273-9.11 3.698-12.575 5.28-5.34 13.044-5.384 18.37-.104 5.71 5.662 5.466 14.366-.562 20.022-1.714 1.609-3.551 2.595-5.834 3.134-1.992.47-2.99.47-5.135.004zm61.18.116c-4.574-.766-9.289-5.414-10.6-10.45-2.132-8.182 4.305-16.745 12.613-16.78 3.171-.014 5.922.987 8.56 3.116 5.41 4.366 6.608 12.072 2.794 17.962-1.25 1.93-3.578 4.07-5.393 4.958-1.486.727-4.573 1.482-5.882 1.438-.437-.015-1.378-.125-2.092-.244z"/></svg>