<?xml version="1.0" encoding="UTF-8"?>
<svg id="Layer_1" data-name="Layer 1" xmlns="http://www.w3.org/2000/svg" viewBox="0 0 99 121.93">
  <defs>
    <style>
      .cls-1 {
        fill: #66bf00;
      }

      .cls-2 {
        fill: #b9873c;
      }

      .cls-3 {
        fill: #58ab23;
      }

      .cls-4 {
        fill: #72ccc5;
      }

      .cls-5 {
        fill: #ffc552;
      }

      .cls-6 {
        fill: #11bba3;
      }

      .cls-7 {
        fill: #a3682d;
      }
    </style>
  </defs>
  <path class="cls-4" d="M70.02,29.81c-5.61-6.14-13.05-9.46-20.93-9.33-15.85.25-28.78,14.76-28.8,32.36-.02,11.34,5.17,21.68,13.87,27.65,1.62,1.11,2.63,3.13,2.63,5.28v11.89c0,1.05.77,1.91,1.72,1.91h22c.95,0,1.72-.85,1.72-1.91v-11.94c0-2.14,1-4.1,2.69-5.26,8.65-5.97,13.81-16.27,13.81-27.55,0-8.75-3.09-16.94-8.7-23.09Z"/>
  <path class="cls-6" d="M44,97.65v-11.89c0-2.14-1.01-4.16-2.63-5.28-8.7-5.97-13.89-16.31-13.87-27.65.03-16.41,11.26-30.14,25.63-32.12-1.33-.18-2.68-.27-4.05-.24-15.85.25-28.77,14.76-28.8,32.36-.02,11.34,5.17,21.68,13.87,27.65,1.62,1.11,2.63,3.13,2.63,5.28v11.89c0,1.05.77,1.91,1.72,1.91h7.22c-.95,0-1.72-.85-1.72-1.91Z"/>
  <g>
    <path class="cls-1" d="M63.97,48.22l-1.08-3.59h3.12c.57,0,1.11-.32,1.43-.85l3.67-6.1c.07-.11.12-.23.17-.35l1.1-3.07c.23-.65.13-1.38-.27-1.92-5.58-7.55-13.82-11.87-22.6-11.87-5.46,0-10.79,1.68-15.41,4.87-.51.35-.82.97-.81,1.63,0,.66.32,1.28.83,1.62l5.34,3.55s.08.05.12.07l5.59,3.1-2.59,4.31c-.34.57-.38,1.3-.11,1.91l3.67,8.14c.29.65.89,1.05,1.54,1.05h6.41l3.16,5.25c.67,1.11,2.19,1.11,2.86,0l3.67-6.1c.29-.49.37-1.1.2-1.66Z"/>
    <path class="cls-1" d="M47.37,58.14c-.29-.65-.89-1.05-1.54-1.05h-6.62l-5-5.54c-.32-.36-.76-.56-1.22-.56h-4.98l-4.84-3.58c-1.04-.77-2.5-.03-2.66,1.35-.16,1.37-.24,2.76-.24,4.15,0,6.22,1.59,12.26,4.6,17.47,2.93,5.07,7.06,9.14,11.94,11.75.92.49,2.05-.04,2.38-1.11l2.76-9.19c.14-.48.11-1-.09-1.46l-.59-1.31h8.22c1.25,0,2.1-1.51,1.54-2.76l-3.67-8.14Z"/>
  </g>
  <g>
    <path class="cls-3" d="M49.5,20.47c-5.46,0-10.79,1.68-15.41,4.87-1.07.74-1.06,2.53.02,3.26l2.03,1.35c4.49-4.96,10.4-8.32,16.97-9.23-1.19-.16-2.4-.25-3.62-.25Z"/>
    <path class="cls-3" d="M27.5,52.84c0-.73.03-1.46.07-2.18l-4.4-3.25c-.49-.37-1.13-.42-1.67-.15-.54.27-.92.84-.99,1.49-.16,1.37-.24,2.76-.24,4.15,0,6.22,1.59,12.26,4.6,17.47,2.93,5.07,7.06,9.14,11.94,11.75.24.13.49.19.75.19.23,0,.46-.05.67-.15.46-.21.81-.63.96-1.15l.52-1.73c-7.71-6.1-12.24-15.83-12.22-26.43Z"/>
  </g>
  <path class="cls-1" d="M78.13,52.34c-.38-.37-.89-.54-1.39-.47l-7.32,1.16c-.43.07-.83.32-1.1.7l-7.33,10.17c-.47.65-.5,1.56-.09,2.25l3.48,5.79.88,4.91c.25,1.38,1.79,2,2.78,1.1,6.54-5.97,10.43-14.76,10.66-24.13.01-.56-.2-1.1-.57-1.48Z"/>
  <path class="cls-2" d="M64.17,89.64h-29.33c-.95,0-1.72.85-1.72,1.91v16.27c0,7.78,5.71,14.11,12.72,14.11h7.33c7.01,0,12.72-6.33,12.72-14.11v-16.27c0-1.05-.77-1.91-1.72-1.91Z"/>
  <path class="cls-7" d="M65.89,101.72v-4.07h-25.55v-8.01h-5.5c-.95,0-1.72.85-1.72,1.91,0,0-.03,16.95.12,18.2.85,6.87,6.17,12.19,12.6,12.19h7.22c-6.4,0-11.7-5.25-12.59-12.08h25.29c.09-.66.13-1.34.13-2.03v-2.03h-25.55v-4.07h25.55Z"/>
  <g>
    <path class="cls-5" d="M49.5,14.24c-1.01,0-1.83-.91-1.83-2.03V2.03c0-1.12.82-2.03,1.83-2.03s1.83.91,1.83,2.03v10.17c0,1.12-.82,2.03-1.83,2.03Z"/>
    <path class="cls-5" d="M30.25,19.96c-.63,0-1.25-.36-1.59-1.02l-4.58-8.81c-.51-.97-.21-2.22.67-2.78.88-.56,2-.23,2.5.74l4.58,8.81c.69,1.33-.2,3.05-1.59,3.05Z"/>
    <path class="cls-5" d="M16.16,35.6c-.31,0-.63-.09-.91-.27l-7.94-5.09c-.88-.56-1.18-1.81-.67-2.78.51-.97,1.63-1.31,2.5-.74l7.94,5.09c.68.44,1.04,1.34.87,2.2-.18.92-.94,1.6-1.79,1.6Z"/>
    <path class="cls-5" d="M11,56.96H1.83c-1.01,0-1.83-.91-1.83-2.03s.82-2.03,1.83-2.03h9.17c1.01,0,1.83.91,1.83,2.03s-.82,2.03-1.83,2.03Z"/>
    <path class="cls-5" d="M8.22,83.41c-.85,0-1.61-.68-1.79-1.6-.17-.86.19-1.76.87-2.2l7.94-5.09c.88-.56,2-.23,2.5.74.51.97.21,2.22-.67,2.78l-7.94,5.09c-.29.18-.6.27-.92.27Z"/>
    <path class="cls-5" d="M90.78,83.41c-.31,0-.63-.09-.91-.27l-7.94-5.09c-.88-.56-1.18-1.81-.67-2.78.51-.97,1.63-1.31,2.5-.74l7.94,5.09c.68.44,1.04,1.34.87,2.2-.18.92-.94,1.6-1.79,1.6Z"/>
    <path class="cls-5" d="M97.17,56.96h-9.17c-1.01,0-1.83-.91-1.83-2.03s.82-2.03,1.83-2.03h9.17c1.01,0,1.83.91,1.83,2.03,0,1.12-.82,2.03-1.83,2.03Z"/>
    <path class="cls-5" d="M82.85,35.6c-.85,0-1.61-.68-1.79-1.6-.17-.86.19-1.76.87-2.2l7.94-5.09c.88-.56,2-.23,2.5.74.51.97.21,2.22-.67,2.78l-7.94,5.09c-.29.19-.6.27-.92.27Z"/>
    <path class="cls-5" d="M68.75,19.96c-1.39,0-2.28-1.72-1.59-3.05l4.58-8.81c.51-.97,1.63-1.31,2.5-.74.88.56,1.18,1.81.67,2.78l-4.58,8.81c-.34.65-.96,1.02-1.59,1.02Z"/>
  </g>
</svg>