<?xml version="1.0" encoding="UTF-8" standalone="no"?>
<!-- Created with Inkscape (http://www.inkscape.org/) -->

<svg
   width="210mm"
   height="297mm"
   viewBox="0 0 210 297"
   version="1.1"
   id="svg5"
   inkscape:version="1.1 (c68e22c387, 2021-05-23)"
   sodipodi:docname="machine.svg"
   xmlns:inkscape="http://www.inkscape.org/namespaces/inkscape"
   xmlns:sodipodi="http://sodipodi.sourceforge.net/DTD/sodipodi-0.dtd"
   xmlns="http://www.w3.org/2000/svg"
   xmlns:svg="http://www.w3.org/2000/svg">
  <sodipodi:namedview
     id="namedview7"
     pagecolor="#ffffff"
     bordercolor="#666666"
     borderopacity="1.0"
     inkscape:pageshadow="2"
     inkscape:pageopacity="0.0"
     inkscape:pagecheckerboard="0"
     inkscape:document-units="mm"
     showgrid="false"
     inkscape:zoom="0.74118967"
     inkscape:cx="448.60312"
     inkscape:cy="494.47532"
     inkscape:window-width="1920"
     inkscape:window-height="1017"
     inkscape:window-x="-8"
     inkscape:window-y="-8"
     inkscape:window-maximized="1"
     inkscape:current-layer="layer1" />
  <defs
     id="defs2" />
  <g
     inkscape:label="Layer 1"
     inkscape:groupmode="layer"
     id="layer1">
    <g
       id="g39"
       transform="translate(6.4254809,-3.9266827)">
      <path
         style="fill:#a3a3a3;fill-opacity:1;stroke-width:0.264583"
         d="m 168.78138,212.34966 c 0.0127,-0.30822 0.0754,-0.37092 0.15986,-0.15985 0.0764,0.19099 0.067,0.4192 -0.0209,0.50712 -0.0879,0.0879 -0.15045,-0.0684 -0.13896,-0.34727 z m 0.0405,-41.91441 c 0,-0.50932 0.0545,-0.71768 0.121,-0.46302 0.0666,0.25466 0.0666,0.67138 0,0.92604 -0.0666,0.25467 -0.121,0.0463 -0.121,-0.46302 z m 0,-29.36875 c 0,-0.50932 0.0545,-0.71768 0.121,-0.46302 0.0666,0.25467 0.0666,0.67138 0,0.92605 -0.0666,0.25466 -0.121,0.0463 -0.121,-0.46303 z m 0.0107,-19.04999 c 0,-0.65485 0.0516,-0.92274 0.11466,-0.59532 0.0631,0.32742 0.0631,0.86321 0,1.19063 -0.0631,0.32742 -0.11466,0.0595 -0.11466,-0.59531 z m -0.0512,-12.85434 c 0.0127,-0.30823 0.0754,-0.37092 0.15985,-0.15986 0.0764,0.191 0.067,0.4192 -0.0209,0.50712 -0.0879,0.0879 -0.15045,-0.0683 -0.13896,-0.34726 z m 0,-19.579169 c 0.0127,-0.308226 0.0754,-0.370919 0.15985,-0.159853 0.0764,0.190995 0.067,0.4192 -0.0209,0.507119 -0.0879,0.08792 -0.15045,-0.06835 -0.13896,-0.347266 z m 0,-1.322917 c 0.0127,-0.308226 0.0754,-0.370919 0.15985,-0.159853 0.0764,0.190995 0.067,0.419201 -0.0209,0.507119 -0.0879,0.08792 -0.15045,-0.06835 -0.13896,-0.347266 z m 0.0458,-3.152952 c 0.003,-0.582083 0.0571,-0.789053 0.1204,-0.459935 0.0633,0.329117 0.0609,0.805367 -0.005,1.058333 -0.0662,0.252965 -0.118,-0.01632 -0.11507,-0.598398 z m 0.0126,-3.307291 c 0,-0.800365 0.0496,-1.127787 0.11022,-0.727604 0.0606,0.400182 0.0606,1.055026 0,1.455208 -0.0606,0.400182 -0.11022,0.07276 -0.11022,-0.727604 z m -0.0375,-4.7625 c 0,-0.363802 0.06,-0.51263 0.13345,-0.330729 0.0734,0.181901 0.0734,0.479557 0,0.661458 -0.0734,0.181901 -0.13345,0.03307 -0.13345,-0.330729 z m 0,-2.645833 c 0,-0.363802 0.06,-0.51263 0.13345,-0.330729 0.0734,0.181901 0.0734,0.479557 0,0.661458 -0.0734,0.181901 -0.13345,0.03307 -0.13345,-0.330729 z m 0.0249,-5.688542 c 0.003,-0.582083 0.0571,-0.789053 0.1204,-0.459935 0.0633,0.329118 0.0609,0.805368 -0.005,1.058333 -0.0662,0.252965 -0.11801,-0.01633 -0.11507,-0.598398 z m 0,-2.116666 c 0.003,-0.582083 0.0571,-0.789054 0.1204,-0.459936 0.0633,0.329118 0.0609,0.805368 -0.005,1.058333 -0.0662,0.252966 -0.11801,-0.01632 -0.11507,-0.598397 z m -0.0151,-2.645833 c 0.005,-0.436563 0.0647,-0.583126 0.13178,-0.325694 0.0671,0.257431 0.0627,0.614619 -0.01,0.79375 -0.0725,0.17913 -0.12736,-0.03149 -0.12197,-0.468056 z m -0.01,-1.455209 c 0,-0.363802 0.06,-0.51263 0.13345,-0.330729 0.0734,0.181901 0.0734,0.479558 0,0.661459 -0.0734,0.181901 -0.13345,0.03307 -0.13345,-0.33073 z"
         id="path51" />
      <path
         style="fill:#8c8c8c;fill-opacity:1;stroke-width:0.264583"
         d="m 45.815133,246.17229 c 5.940829,-0.0397 15.584891,-0.0397 21.431249,4e-5 5.84636,0.0397 0.985681,0.0722 -10.801506,0.0722 -11.787187,-2e-5 -16.57057,-0.0325 -10.629743,-0.0722 z m 32.391721,0.0232 c 0.181901,-0.0734 0.479558,-0.0734 0.661459,0 0.181901,0.0734 0.03307,0.13345 -0.33073,0.13345 -0.363802,0 -0.51263,-0.0601 -0.330729,-0.13345 z m 9.657291,-0.0231 c 4.765808,-0.0404 12.564405,-0.0404 17.330205,0 4.76581,0.0404 0.86651,0.0735 -8.665101,0.0735 -9.531614,0 -13.430911,-0.0331 -8.665104,-0.0735 z m 26.726555,0.008 c 0.40218,-0.0608 0.99749,-0.0592 1.32292,0.004 0.32542,0.0628 -0.004,0.11256 -0.73125,0.11058 -0.7276,-0.002 -0.99385,-0.0534 -0.59167,-0.11419 z m 9.65365,-0.008 c 4.25649,-0.0409 11.22164,-0.0409 15.47813,0 4.25648,0.0409 0.7739,0.0743 -7.73907,0.0743 -8.51296,0 -11.99554,-0.0334 -7.73906,-0.0743 z m -89.287341,-1.52152 c 0.0021,-0.7276 0.05337,-0.99385 0.114186,-0.59167 0.06082,0.40218 0.05919,0.9975 -0.0036,1.32292 -0.0628,0.32542 -0.112559,-0.004 -0.110575,-0.73125 z M 147.65963,144.04185 147.59383,42.109914 91.262843,42.177274 c -30.982043,0.03705 -56.275796,-0.02194 -56.20834,-0.131077 0.06746,-0.109141 25.420136,-0.198438 56.33929,-0.198438 44.729977,0 56.242297,0.06758 56.342177,0.33073 0.069,0.181901 0.0949,46.110258 0.0575,102.063011 l -0.068,101.73229 z m -112.678237,96.2434 c 0,-1.67349 0.04296,-2.3581 0.09547,-1.52135 0.05251,0.83674 0.05251,2.20596 0,3.0427 -0.05251,0.83675 -0.09547,0.15214 -0.09547,-1.52135 z m -0.0094,-5.15938 c 0.0011,-1.16416 0.04748,-1.6075 0.10337,-0.98519 0.05589,0.62231 0.0551,1.57481 -0.0019,2.11667 -0.05685,0.54185 -0.102582,0.0327 -0.101621,-1.13148 z m 133.864137,-2.64583 c 0.002,-0.7276 0.0534,-0.99386 0.11418,-0.59167 0.0608,0.40218 0.0592,0.99749 -0.004,1.32291 -0.0628,0.32543 -0.11256,-0.004 -0.11058,-0.73124 z M 34.998109,223.48421 c 1.25e-4,-4.22011 0.03666,-5.90946 0.08118,-3.75413 0.04452,2.15534 0.04442,5.60815 -2.28e-4,7.67292 -0.04465,2.06477 -0.08108,0.30131 -0.08095,-3.91879 z m 133.864351,4.36562 c 0,-1.81901 0.0423,-2.56315 0.0939,-1.65364 0.0517,0.9095 0.0517,2.39778 0,3.30729 -0.0517,0.9095 -0.0939,0.16536 -0.0939,-1.65365 z m -0.0602,-4.7625 c 0,-0.3638 0.0601,-0.51263 0.13345,-0.33073 0.0734,0.18191 0.0734,0.47956 0,0.66146 -0.0734,0.1819 -0.13345,0.0331 -0.13345,-0.33073 z m 0,-1.32291 c 0,-0.3638 0.0601,-0.51263 0.13345,-0.33073 0.0734,0.1819 0.0734,0.47956 0,0.66146 -0.0734,0.1819 -0.13345,0.0331 -0.13345,-0.33073 z m 0.0521,-3.30729 c -7.9e-4,-1.30969 0.0439,-1.87883 0.0994,-1.26476 0.0555,0.61407 0.0562,1.68564 0.002,2.38125 -0.0547,0.69562 -0.10008,0.19319 -0.10089,-1.11649 z m -0.0272,-3.43959 c 0.003,-0.58208 0.0571,-0.78905 0.1204,-0.45993 0.0633,0.32911 0.0609,0.80536 -0.005,1.05833 -0.0662,0.25297 -0.118,-0.0163 -0.11507,-0.5984 z M 34.982343,212.10713 c 5.29e-4,-1.74625 0.04334,-2.4262 0.09516,-1.51099 0.05181,0.91521 0.05139,2.34396 -0.0011,3.175 -0.05234,0.83104 -0.09473,0.0822 -0.09421,-1.66401 z m 133.829737,-0.79375 c 0.005,-0.43657 0.0647,-0.58313 0.13177,-0.3257 0.0671,0.25743 0.0627,0.61462 -0.01,0.79375 -0.0725,0.17913 -0.12736,-0.0315 -0.12197,-0.46805 z m 0.0205,-2.51355 c 0,-0.65484 0.0516,-0.92273 0.11467,-0.59531 0.0631,0.32742 0.0631,0.86321 0,1.19063 -0.0631,0.32742 -0.11467,0.0595 -0.11467,-0.59532 z M 34.989598,204.43421 c -2.65e-4,-2.47385 0.03946,-3.5215 0.08837,-2.3281 0.04891,1.19341 0.04916,3.21747 5.29e-4,4.49792 -0.0486,1.28045 -0.08862,0.30403 -0.08893,-2.16982 z m 133.870952,-0.13229 c 0,-1.67349 0.043,-2.3581 0.0955,-1.52136 0.0525,0.83675 0.0525,2.20597 0,3.04271 -0.0525,0.83675 -0.0955,0.15214 -0.0955,-1.52135 z m -0.0792,-3.59392 c 0.0127,-0.30823 0.0754,-0.37092 0.15986,-0.15986 0.0764,0.191 0.067,0.4192 -0.0209,0.50712 -0.0879,0.0879 -0.15045,-0.0684 -0.13896,-0.34726 z M 34.975252,197.55504 c -7.94e-4,-1.30968 0.04393,-1.87882 0.09942,-1.26475 0.05549,0.61407 0.05615,1.68563 0.0016,2.38125 -0.05468,0.69561 -0.100084,0.19319 -0.100888,-1.1165 z m 133.896418,-5.55625 c -2.3e-4,-2.91041 0.0384,-4.13714 0.0859,-2.72605 0.0475,1.41109 0.0477,3.79234 5.3e-4,5.29167 -0.0472,1.49933 -0.0861,0.3448 -0.0863,-2.56562 z m -133.894952,0.39688 c 0,-1.38245 0.04459,-1.948 0.0991,-1.25677 0.0545,0.69122 0.0545,1.82232 0,2.51354 -0.0545,0.69122 -0.0991,0.12568 -0.0991,-1.25677 z m 0.0232,-11.37708 c 0,-4.87495 0.03572,-6.86925 0.07939,-4.43177 0.04366,2.43747 0.04366,6.42606 0,8.86354 -0.04366,2.43747 -0.07939,0.44317 -0.07939,-4.43177 z m 38.992385,6.68086 c 4.121295,-0.041 10.788795,-0.041 14.816665,7e-5 4.027871,0.0411 0.655903,0.0746 -7.493264,0.0746 -8.149166,-4e-5 -11.444697,-0.0336 -7.323401,-0.0747 z m 24.058296,0.002 c 1.055026,-0.0502 2.781441,-0.0502 3.836461,0 1.05503,0.0502 0.19182,0.0913 -1.918232,0.0913 -2.110052,0 -2.973255,-0.0411 -1.918229,-0.0913 z m 7.805211,-2.1e-4 c 1.12779,-0.0496 2.97326,-0.0496 4.10104,0 1.12779,0.0496 0.20505,0.0902 -2.05052,0.0902 -2.25557,0 -3.17831,-0.0406 -2.05052,-0.0902 z m 7.40833,0.002 c 0.69123,-0.0545 1.82232,-0.0545 2.51355,0 0.69122,0.0545 0.12567,0.0991 -1.25678,0.0991 -1.38244,0 -1.94799,-0.0446 -1.25677,-0.0991 z m -48.368178,-0.48158 c -0.505372,-0.40488 -0.505124,-0.40757 0.01558,-0.16804 0.291042,0.13389 0.707761,0.30965 0.926042,0.39058 0.342831,0.12712 0.340712,0.15 -0.01558,0.16805 -0.226848,0.0115 -0.643567,-0.16428 -0.926042,-0.39059 z m -1.676807,-1.31752 c -0.451636,-0.51432 -0.821158,-1.01439 -0.821158,-1.11119 0,-0.0968 0.09022,-0.0629 0.200488,0.0753 0.110268,0.13825 0.549262,0.63831 0.975542,1.11125 0.426281,0.47295 0.705583,0.8599 0.620671,0.8599 -0.08491,0 -0.523905,-0.42086 -0.975543,-0.93525 z m 56.725715,0.14156 c 0.26339,-0.29104 0.53842,-0.52917 0.61119,-0.52917 0.0728,0 -0.0832,0.23813 -0.3466,0.52917 -0.26339,0.29104 -0.53843,0.52917 -0.61119,0.52917 -0.0728,0 0.0832,-0.23813 0.3466,-0.52917 z m 0.81076,-1.13589 c 0.0994,-0.26094 0.24731,-0.40778 0.32877,-0.32632 0.0815,0.0815 1.7e-4,0.29495 -0.18065,0.47443 -0.26131,0.25936 -0.2917,0.22897 -0.14812,-0.14811 z m 48.02575,-0.0768 c 0.0127,-0.30823 0.0754,-0.37092 0.15986,-0.15986 0.0764,0.191 0.067,0.4192 -0.0209,0.50712 -0.0879,0.0879 -0.15045,-0.0684 -0.13896,-0.34726 z M 62.033813,184.05107 c -0.09074,-0.23646 -0.157433,-0.56902 -0.148207,-0.73902 0.0092,-0.17 0.130845,-0.0239 0.270267,0.32464 0.139422,0.34854 0.206115,0.6811 0.148206,0.73901 -0.05791,0.0579 -0.17953,-0.0882 -0.270266,-0.32463 z m 106.826737,-3.03248 c 0,-1.67349 0.043,-2.3581 0.0955,-1.52136 0.0525,0.83675 0.0525,2.20597 0,3.04271 -0.0525,0.83674 -0.0955,0.15214 -0.0955,-1.52135 z m -47.39909,1.85208 c 0,-0.50932 0.0545,-0.71768 0.12101,-0.46302 0.0665,0.25466 0.0665,0.67138 0,0.92604 -0.0666,0.25466 -0.12101,0.0463 -0.12101,-0.46302 z m -59.785147,-1.85208 c 0,-0.65485 0.0516,-0.92274 0.114662,-0.59532 0.06307,0.32743 0.06307,0.86321 0,1.19063 -0.06306,0.32742 -0.114662,0.0595 -0.114662,-0.59531 z m 0.0099,-2.77813 c 0.0016,-0.87312 0.05088,-1.19841 0.109765,-0.72286 0.05889,0.47554 0.05767,1.18992 -0.0027,1.5875 -0.06037,0.39757 -0.108551,0.008 -0.107065,-0.86464 z m 107.163217,-3.04271 c 0,-1.0914 0.0467,-1.53789 0.10379,-0.99218 0.0571,0.5457 0.0571,1.43867 0,1.98437 -0.0571,0.5457 -0.10379,0.0992 -0.10379,-0.99219 z M 61.691071,174.80088 c 0.0011,-1.01865 0.049,-1.40294 0.106273,-0.854 0.05727,0.54895 0.05631,1.38239 -0.0021,1.85209 -0.05845,0.46969 -0.105312,0.0206 -0.104137,-0.99809 z m 107.121009,-2.38125 c 0.005,-0.43656 0.0647,-0.58313 0.13177,-0.3257 0.0671,0.25744 0.0627,0.61462 -0.01,0.79375 -0.0725,0.17913 -0.12736,-0.0315 -0.12197,-0.46805 z M 61.655831,172.15504 c 0.0054,-0.43656 0.06469,-0.58312 0.131774,-0.32569 0.06708,0.25743 0.06267,0.61462 -0.0098,0.79375 -0.07248,0.17913 -0.127362,-0.0315 -0.12197,-0.46806 z m -26.73272,-0.66145 c 0,-0.36381 0.06005,-0.51263 0.133453,-0.33073 0.0734,0.1819 0.0734,0.47955 0,0.66146 -0.0734,0.1819 -0.133453,0.0331 -0.133453,-0.33073 z m 0.05923,-3.83646 c 5.29e-4,-1.74625 0.04334,-2.4262 0.09516,-1.51099 0.05181,0.91521 0.05139,2.34396 -0.0011,3.175 -0.05234,0.83104 -0.09473,0.0822 -0.09421,-1.66401 z m 26.69397,1.71979 c 0,-0.65484 0.0516,-0.92273 0.114662,-0.59531 0.06307,0.32742 0.06307,0.8632 0,1.19062 -0.06306,0.32742 -0.114662,0.0595 -0.114662,-0.59531 z m 107.202419,-8.20208 c 0,-4.72943 0.0359,-6.6642 0.0797,-4.29948 0.0438,2.36471 0.0438,6.23424 0,8.59896 -0.0438,2.36471 -0.0797,0.42994 -0.0797,-4.29948 z M 61.688936,166.4665 c 0,-0.94588 0.04802,-1.33284 0.106714,-0.85989 0.05869,0.47294 0.05869,1.24685 0,1.71979 -0.05869,0.47294 -0.106714,0.086 -0.106714,-0.8599 z m -0.01262,-2.91041 c 0,-0.65485 0.0516,-0.92274 0.114663,-0.59532 0.06307,0.32743 0.06307,0.86321 0,1.19063 -0.06306,0.32742 -0.114663,0.0595 -0.114663,-0.59531 z M 34.9534,163.02692 c 0,-0.65484 0.0516,-0.92273 0.114663,-0.59531 0.06307,0.32742 0.06307,0.8632 0,1.19062 -0.06306,0.32742 -0.114663,0.0595 -0.114663,-0.59531 z m 26.751861,-3.83646 c 5.29e-4,-1.74625 0.04334,-2.42619 0.09516,-1.51098 0.05181,0.9152 0.05139,2.34395 -0.0011,3.175 -0.05234,0.83104 -0.09473,0.0822 -0.09421,-1.66402 z m -26.7572,1.5875 c 0.0029,-0.58208 0.05712,-0.78905 0.120406,-0.45993 0.06329,0.32911 0.06088,0.80536 -0.0053,1.05833 -0.06622,0.25296 -0.118004,-0.0163 -0.115067,-0.5984 z m 0.0089,-2.38125 c 0.0021,-0.7276 0.05337,-0.99385 0.114186,-0.59167 0.06082,0.40218 0.05919,0.99749 -0.0036,1.32291 -0.0628,0.32543 -0.112559,-0.004 -0.110575,-0.73124 z m -0.0339,-1.98437 c 0,-0.3638 0.06005,-0.51263 0.133454,-0.33073 0.0734,0.1819 0.0734,0.47956 0,0.66146 -0.0734,0.1819 -0.133454,0.0331 -0.133454,-0.33073 z m 0.07168,-7.54063 c 1.85e-4,-3.34698 0.0381,-4.67971 0.08426,-2.96163 0.04616,1.71808 0.04601,4.45652 -2.65e-4,6.08541 -0.04634,1.6289 -0.08411,0.2232 -0.08392,-3.12378 z m 27.138637,5.77687 c 0,-0.13756 0.297656,-0.65355 0.661458,-1.14666 0.363802,-0.49311 0.661458,-0.81918 0.661458,-0.72461 0,0.0946 -0.297656,0.61056 -0.661458,1.14666 -0.363802,0.53609 -0.661458,0.86216 -0.661458,0.72461 z m 57.785752,-1.69135 c -0.4451,-0.4451 -1.27625,-0.97566 -1.84699,-1.17901 -0.57075,-0.20336 -0.82345,-0.37497 -0.56156,-0.38135 0.69577,-0.017 1.79518,0.61929 2.68219,1.55226 1.00622,1.05836 0.78322,1.06496 -0.27364,0.008 z m -56.036867,-0.56072 c 0.194042,-0.31397 1.6873,-1.05969 1.924695,-0.96118 0.108969,0.0452 -0.310279,0.32977 -0.931661,0.63233 -0.621382,0.30257 -1.068247,0.45055 -0.993034,0.32885 z m 104.899077,-0.37185 c 0.0127,-0.30822 0.0754,-0.37091 0.15986,-0.15985 0.0764,0.191 0.067,0.4192 -0.0209,0.50712 -0.0879,0.0879 -0.15045,-0.0683 -0.13896,-0.34727 z m -89.648484,-0.83778 c 6.948619,-0.0392 18.319088,-0.0392 25.267704,0 6.94862,0.0392 1.26339,0.0713 -12.633851,0.0713 -13.897238,0 -19.582473,-0.0321 -12.633853,-0.0713 z m 89.703274,-1.786 c 0.002,-0.7276 0.0534,-0.99386 0.11419,-0.59168 0.0608,0.40219 0.0592,0.9975 -0.004,1.32292 -0.0628,0.32542 -0.11256,-0.004 -0.11058,-0.73124 z m -0.0143,-2.24896 c 0,-0.50932 0.0545,-0.71768 0.121,-0.46302 0.0666,0.25466 0.0666,0.67138 0,0.92604 -0.0666,0.25466 -0.121,0.0463 -0.121,-0.46302 z m 0.0311,-3.175 c 0,-1.23693 0.0456,-1.74294 0.10128,-1.12448 0.0557,0.61847 0.0557,1.6305 0,2.24896 -0.0557,0.61846 -0.10128,0.11245 -0.10128,-1.12448 z M 35.005187,127.57276 c 0,-8.36745 0.03349,-11.7905 0.07442,-7.60678 0.04093,4.18373 0.04093,11.02982 0,15.21355 -0.04093,4.18372 -0.07442,0.76067 -0.07442,-7.60677 z m 133.797083,11.64166 c 0,-0.3638 0.0601,-0.51263 0.13345,-0.33073 0.0734,0.1819 0.0734,0.47956 0,0.66146 -0.0734,0.1819 -0.13345,0.0331 -0.13345,-0.33073 z m 0.0619,-4.23333 c 0,-1.96453 0.0417,-2.7682 0.0926,-1.78594 0.0509,0.98227 0.0509,2.58961 0,3.57188 -0.0509,0.98226 -0.0926,0.17859 -0.0926,-1.78594 z m -0.0129,-5.68854 c 0.001,-1.16417 0.0475,-1.60751 0.10337,-0.9852 0.0559,0.62231 0.0551,1.57481 -0.002,2.11667 -0.0568,0.54185 -0.10258,0.0327 -0.10162,-1.13147 z m -0.0293,-3.04271 c 0,-0.50932 0.0545,-0.71768 0.121,-0.46302 0.0666,0.25466 0.0666,0.67138 0,0.92604 -0.0666,0.25466 -0.121,0.0463 -0.121,-0.46302 z m -0.0405,-1.74184 c 0.0127,-0.30823 0.0754,-0.37092 0.15986,-0.15985 0.0764,0.19099 0.067,0.4192 -0.0209,0.50711 -0.0879,0.0879 -0.15045,-0.0683 -0.13896,-0.34726 z m 0.0716,-5.66649 c 0,-1.23693 0.0456,-1.74295 0.10129,-1.12448 0.0557,0.61846 0.0557,1.63049 0,2.24895 -0.0557,0.61847 -0.10129,0.11245 -0.10129,-1.12447 z m -0.0257,-4.10105 c 0.003,-0.58208 0.0571,-0.78905 0.1204,-0.45993 0.0633,0.32912 0.0609,0.80537 -0.005,1.05833 -0.0662,0.25297 -0.11801,-0.0163 -0.11507,-0.5984 z m 0,-2.11666 c 0.003,-0.58209 0.0571,-0.78906 0.1204,-0.45994 0.0633,0.32912 0.0609,0.80537 -0.005,1.05834 -0.0662,0.25296 -0.11801,-0.0163 -0.11507,-0.5984 z M 34.983295,109.05192 c 0,-1.81901 0.04227,-2.56315 0.09394,-1.65364 0.05166,0.9095 0.05166,2.39778 0,3.30729 -0.05166,0.9095 -0.09394,0.16536 -0.09394,-1.65365 z m 133.818975,1.85209 c 0,-0.36381 0.0601,-0.51263 0.13345,-0.33073 0.0734,0.1819 0.0734,0.47955 0,0.66146 -0.0734,0.1819 -0.13345,0.0331 -0.13345,-0.33073 z m 0.0489,-4.63021 c 0.001,-1.16417 0.0475,-1.60751 0.10337,-0.9852 0.0559,0.62231 0.0551,1.57481 -0.002,2.11667 -0.0569,0.54186 -0.10259,0.0327 -0.10163,-1.13147 z M 34.976718,103.23109 c 0,-1.38245 0.04459,-1.94799 0.0991,-1.25677 0.0545,0.69122 0.0545,1.82232 0,2.51354 -0.0545,0.69122 -0.0991,0.12568 -0.0991,-1.25677 z m 133.804662,0.11024 c 0.0127,-0.30822 0.0754,-0.37092 0.15986,-0.15985 0.0764,0.191 0.067,0.4192 -0.0209,0.50712 -0.0879,0.0879 -0.15045,-0.0683 -0.13896,-0.34727 z m -91.757168,-0.83421 c 0.695616,-0.0547 1.767178,-0.054 2.38125,0.002 0.614074,0.0555 0.04493,0.10023 -1.264754,0.0994 -1.309687,-8e-4 -1.81211,-0.0462 -1.116496,-0.10089 z m 91.818268,-1.26041 c 0.002,-0.87312 0.0509,-1.19841 0.10977,-0.72286 0.0589,0.47555 0.0577,1.18992 -0.003,1.5875 -0.0604,0.39758 -0.10855,0.008 -0.10707,-0.86464 z m -94.604376,1.0154 c 0.181901,-0.0734 0.479558,-0.0734 0.661459,0 0.181901,0.0734 0.03307,0.13345 -0.330729,0.13345 -0.363802,0 -0.512631,-0.0601 -0.33073,-0.13345 z m 7.408333,0 c 0.181901,-0.0734 0.479558,-0.0734 0.661459,0 0.181901,0.0734 0.03307,0.13345 -0.330729,0.13345 -0.363802,0 -0.512631,-0.0601 -0.33073,-0.13345 z m 1.339453,-0.27009 c 0.190995,-0.0764 0.419201,-0.067 0.507119,0.0209 0.08792,0.0879 -0.06835,0.15046 -0.347265,0.13897 -0.308227,-0.0127 -0.37092,-0.0754 -0.159854,-0.15985 z m -11.988931,-0.49003 c -0.661623,-0.31868 -0.683644,-0.35541 -0.132292,-0.22065 0.749697,0.18324 1.592395,0.61276 1.190625,0.60685 -0.145521,-0.002 -0.621771,-0.17593 -1.058333,-0.3862 z m 16.029338,-0.75261 c 0.269902,-0.24596 2.888369,-1.48219 2.888369,-1.363662 0,0.14918 -2.526763,1.464122 -2.813425,1.464122 -0.101852,0 -0.135576,-0.0452 -0.07494,-0.10046 z M 34.960621,99.26234 c 0,-0.800365 0.0496,-1.127786 0.110222,-0.727604 0.06062,0.400182 0.06062,1.055026 0,1.455208 -0.06062,0.400186 -0.110222,0.07276 -0.110222,-0.727604 z m 32.598628,0.79678 c -0.09269,-0.149982 0.01352,-0.194337 0.248967,-0.103984 0.45837,0.175894 0.542235,0.365534 0.16165,0.365534 -0.136932,0 -0.321712,-0.1177 -0.410617,-0.26155 z m -1.075783,-0.679085 c -0.493188,-0.395127 -0.489944,-0.400011 0.08172,-0.122981 0.327422,0.158668 0.595313,0.343828 0.595313,0.411469 0,0.202464 -0.137216,0.143997 -0.677035,-0.288488 z M 168.80227,98.997757 c 0,-0.363802 0.0601,-0.512631 0.13345,-0.330729 0.0734,0.181901 0.0734,0.479557 0,0.661458 -0.0734,0.181901 -0.13345,0.03307 -0.13345,-0.330729 z m -78.62302,0.172029 c 0,-0.06114 0.312316,-0.315807 0.694033,-0.56592 0.38172,-0.25011 0.613214,-0.323977 0.514432,-0.164142 -0.188769,0.305432 -1.208465,0.921456 -1.208465,0.730062 z M 64.480917,98.005569 c -0.329107,-0.419645 -0.319749,-0.429003 0.0999,-0.0999 0.254662,0.199721 0.463021,0.40808 0.463021,0.463021 0,0.217763 -0.217273,0.0776 -0.562917,-0.363125 z M 92.163624,97.67484 c 0.26339,-0.291042 0.538422,-0.529167 0.611183,-0.529167 0.07276,0 -0.08321,0.238125 -0.346599,0.529167 -0.26339,0.291042 -0.538422,0.529167 -0.611182,0.529167 -0.07276,0 0.08321,-0.238125 0.346598,-0.529167 z M 34.982343,94.632132 c 5.29e-4,-1.74625 0.04334,-2.426195 0.09516,-1.510985 0.05181,0.915207 0.05139,2.343957 -0.0011,3.175 -0.05234,0.83104 -0.09473,0.08223 -0.09421,-1.664015 z m 133.844877,2.116666 c 0.003,-0.582083 0.0571,-0.789053 0.1204,-0.459935 0.0633,0.329118 0.0609,0.805367 -0.005,1.058333 -0.0662,0.252965 -0.118,-0.01632 -0.11507,-0.598398 z m -106.834376,-0.992187 -1.579218,-1.653646 1.653646,1.579219 c 1.536096,1.466958 1.774719,1.728073 1.579218,1.728073 -0.04094,0 -0.785077,-0.744141 -1.653646,-1.653646 z m 32.287447,0.06615 c 0.716664,-0.727604 1.362556,-1.322917 1.435317,-1.322917 0.07276,0 -0.45407,0.595313 -1.170734,1.322917 -0.716663,0.727604 -1.362556,1.322916 -1.435317,1.322916 -0.07276,0 0.45407,-0.595312 1.170734,-1.322916 z m 74.579179,-3.042708 c 5.3e-4,-1.600729 0.0442,-2.22146 0.0968,-1.379403 0.0527,0.842058 0.0522,2.151745 -10e-4,2.910417 -0.0533,0.758671 -0.0964,0.06972 -0.0958,-1.531014 z M 96.132374,93.70609 c 0.26339,-0.291041 0.538422,-0.529166 0.611182,-0.529166 0.07276,0 -0.08321,0.238125 -0.346598,0.529166 -0.263391,0.291042 -0.538422,0.529167 -0.611183,0.529167 -0.07276,0 0.08321,-0.238125 0.346599,-0.529167 z M 59.983001,93.507653 c -0.329108,-0.419645 -0.319749,-0.429004 0.0999,-0.0999 0.440729,0.345643 0.580887,0.562917 0.363125,0.562917 -0.05494,0 -0.263301,-0.20836 -0.463021,-0.463021 z m -0.969053,-1.322917 c -0.280318,-0.400182 -0.649803,-0.995495 -0.821076,-1.322916 -0.557154,-1.065107 -0.127698,-0.628124 0.715069,0.727604 0.880271,1.416058 0.948221,1.797656 0.106007,0.595312 z M 34.902224,90.905918 c 0.0127,-0.308227 0.07539,-0.37092 0.159851,-0.159854 0.07643,0.190995 0.06703,0.419201 -0.02088,0.507119 -0.08792,0.08792 -0.150452,-0.06835 -0.138964,-0.347265 z M 98.434672,90.14002 c 0.316598,-0.65165 0.621012,-1.139438 0.676479,-1.083974 0.119692,0.119695 -0.949396,2.268794 -1.128633,2.268794 -0.06791,0 0.135559,-0.533169 0.452154,-1.18482 z M 34.984978,86.826924 c 0,-1.964531 0.04165,-2.768203 0.09256,-1.785937 0.05091,0.982265 0.05091,2.589609 0,3.571874 -0.05091,0.982266 -0.09256,0.178594 -0.09256,-1.785937 z m 22.021751,1.709563 c -0.255317,-0.665345 -0.179998,-0.837023 0.131903,-0.300657 0.154435,0.265576 0.225055,0.538602 0.156932,0.606724 -0.06812,0.06812 -0.198098,-0.06961 -0.288835,-0.306067 z M 168.81208,86.694632 c 0.005,-0.436562 0.0647,-0.583125 0.13177,-0.325694 0.0671,0.257432 0.0627,0.614619 -0.01,0.79375 -0.0725,0.179131 -0.12736,-0.03149 -0.12197,-0.468056 z M 56.06889,85.614251 c 0.0127,-0.308226 0.07539,-0.370919 0.159851,-0.159853 0.07643,0.190995 0.06703,0.4192 -0.02088,0.507119 -0.08792,0.08792 -0.150453,-0.06835 -0.138964,-0.347266 z m 44.18541,-0.264583 c 0.0127,-0.308226 0.0754,-0.370919 0.15986,-0.159853 0.0764,0.190994 0.067,0.4192 -0.0209,0.507119 -0.0879,0.08792 -0.15045,-0.06835 -0.13896,-0.347266 z m -44.449993,-0.79375 c 0.0127,-0.308226 0.07539,-0.370919 0.15985,-0.159853 0.07643,0.190994 0.06703,0.4192 -0.02087,0.507119 -0.08792,0.08792 -0.150453,-0.06835 -0.138965,-0.347266 z m 44.714583,-0.529167 c 0.0127,-0.308226 0.0754,-0.370919 0.15985,-0.159853 0.0764,0.190995 0.067,0.419201 -0.0209,0.507119 -0.0879,0.08792 -0.15045,-0.06835 -0.13896,-0.347266 z M 55.570415,83.255049 c 0.0054,-0.436562 0.06469,-0.583126 0.131773,-0.325694 0.06708,0.257432 0.06267,0.614619 -0.0098,0.79375 -0.07248,0.179131 -0.127362,-0.03149 -0.12197,-0.468056 z M 34.99789,75.714424 c 0,-4.147343 0.03658,-5.843984 0.08128,-3.770312 0.0447,2.073672 0.0447,5.466953 0,7.540625 -0.0447,2.073672 -0.08128,0.377031 -0.08128,-3.770313 z m 65.83141,6.482292 c 0.003,-0.582083 0.0571,-0.789054 0.12041,-0.459936 0.0633,0.329118 0.0609,0.805368 -0.005,1.058333 -0.0662,0.252966 -0.11801,-0.01632 -0.11507,-0.598397 z M 55.353224,79.550883 c 5.29e-4,-1.600729 0.04418,-2.22146 0.09684,-1.379403 0.05267,0.842058 0.05218,2.151745 -0.0011,2.910417 -0.05326,0.758671 -0.09635,0.06972 -0.09576,-1.531014 z M 100.8293,77.434216 c 0.003,-0.582083 0.0571,-0.789054 0.12041,-0.459936 0.0633,0.329118 0.0609,0.805368 -0.005,1.058334 -0.0662,0.252965 -0.11801,-0.01632 -0.11507,-0.598398 z m 67.95208,0.507119 c 0.0127,-0.308226 0.0754,-0.370919 0.15986,-0.159853 0.0764,0.190994 0.067,0.419198 -0.0209,0.507119 -0.0879,0.08792 -0.15045,-0.06835 -0.13896,-0.347266 z M 55.570415,75.846716 c 0.0054,-0.436562 0.06469,-0.583126 0.131773,-0.325694 0.06708,0.257432 0.06267,0.614619 -0.0098,0.79375 -0.07248,0.179131 -0.127362,-0.03149 -0.12197,-0.468056 z m 44.948475,-0.286631 c 0.0127,-0.308226 0.0754,-0.370919 0.15985,-0.159853 0.0764,0.190995 0.067,0.419198 -0.0209,0.507119 -0.0879,0.08792 -0.15045,-0.06835 -0.13896,-0.347266 z m 68.26249,-0.264583 c 0.0127,-0.308227 0.0754,-0.37092 0.15986,-0.159854 0.0764,0.190995 0.067,0.419198 -0.0209,0.507119 -0.0879,0.08792 -0.15045,-0.06835 -0.13896,-0.347265 z M 55.804307,74.501752 c 0.0127,-0.308227 0.07539,-0.37092 0.15985,-0.159853 0.07643,0.190994 0.06703,0.419197 -0.02087,0.507118 -0.08792,0.08792 -0.150453,-0.06835 -0.138965,-0.347265 z M 100.2543,74.237168 c 0.0127,-0.308226 0.0754,-0.370919 0.15986,-0.159853 0.0764,0.190995 0.067,0.419198 -0.0209,0.507119 -0.0879,0.08792 -0.15045,-0.06835 -0.13896,-0.347266 z m 68.56758,-1.168577 c 0,-0.509323 0.0545,-0.717682 0.121,-0.463021 0.0666,0.254662 0.0666,0.671381 0,0.926042 -0.0666,0.254662 -0.121,0.0463 -0.121,-0.463021 z m -0.0405,-1.477256 c 0.0127,-0.308226 0.0754,-0.370919 0.15986,-0.159853 0.0764,0.190995 0.067,0.419198 -0.0209,0.507119 -0.0879,0.08792 -0.15045,-0.06835 -0.13896,-0.347266 z M 56.841751,71.120769 c 0,-0.287192 1.579047,-3.343844 1.727409,-3.343844 0.07276,0 -0.24072,0.74414 -0.696624,1.653646 -0.864134,1.7239 -1.030785,1.997162 -1.030785,1.690198 z m 42.233726,-0.311365 c -0.255317,-0.665345 -0.179998,-0.837022 0.131903,-0.300656 0.154435,0.265575 0.225055,0.538601 0.156932,0.606724 -0.06812,0.06812 -0.198098,-0.06961 -0.288835,-0.306068 z m 69.705903,-0.805569 c 0.0127,-0.308226 0.0754,-0.370919 0.15986,-0.159853 0.0764,0.190995 0.067,0.419198 -0.0209,0.507119 -0.0879,0.08792 -0.15045,-0.06835 -0.13896,-0.347266 z m -70.796923,-1.43316 c -0.225755,-0.436563 -0.350932,-0.79375 -0.278172,-0.79375 0.07276,0 0.317,0.357187 0.542756,0.79375 0.225756,0.436562 0.350933,0.79375 0.278172,0.79375 -0.07276,0 -0.317,-0.357188 -0.542756,-0.79375 z M 34.987153,64.20505 c 2.65e-4,-2.182812 0.04135,-3.040573 0.09107,-1.906135 0.04971,1.134435 0.04941,2.920373 -7.94e-4,3.96875 -0.05009,1.048374 -0.09076,0.120197 -0.09039,-2.062615 z m 24.718443,1.785937 c 0.285244,-0.400182 0.792474,-0.965729 1.127178,-1.25677 0.334703,-0.291042 0.143748,0.03638 -0.424347,0.727604 -1.137232,1.383718 -1.514306,1.667618 -0.702831,0.529166 z m 36.789903,0.264584 c -0.329107,-0.419645 -0.319749,-0.429004 0.0999,-0.0999 0.44073,0.345643 0.580887,0.562917 0.363125,0.562917 -0.05494,0 -0.2633,-0.20836 -0.463021,-0.463021 z m -1.303409,-1.5875 -0.911799,-0.992188 0.992187,0.9118 c 0.923507,0.84868 1.113841,1.072575 0.9118,1.072575 -0.04422,0 -0.490699,-0.446484 -0.992188,-0.992187 z m 73.61018,0.463021 c 0,-0.363802 0.0601,-0.512631 0.13345,-0.330729 0.0734,0.181901 0.0734,0.479557 0,0.661458 -0.0734,0.181901 -0.13345,0.03307 -0.13345,-0.330729 z M 61.868834,63.4113 c 0.341776,-0.363802 0.68094,-0.661458 0.7537,-0.661458 0.07276,0 -0.147341,0.297656 -0.489116,0.661458 -0.341776,0.363802 -0.68094,0.661458 -0.7537,0.661458 -0.07276,0 0.147341,-0.297656 0.489116,-0.661458 z m 30.942006,-1.124479 -0.911799,-0.992187 0.992188,0.911799 c 0.545703,0.501488 0.992187,0.947973 0.992187,0.992187 0,0.202041 -0.223896,0.01172 -1.072576,-0.911799 z m -29.642587,0.109395 c 0.386797,-0.481534 1.875581,-1.615409 1.875581,-1.428465 0,0.05832 -0.506016,0.508162 -1.124479,0.99966 -0.618464,0.491495 -0.956461,0.684458 -0.751102,0.428805 z M 168.87078,57.0613 c 2.6e-4,-2.764895 0.0395,-3.86004 0.0871,-2.433653 0.0477,1.426387 0.0474,3.688575 -5.3e-4,5.027083 -0.0479,1.338509 -0.0869,0.171466 -0.0867,-2.59343 z M 66.102167,60.247056 c 0,-0.07276 0.47625,-0.375256 1.058334,-0.672214 0.582083,-0.296958 1.058333,-0.480391 1.058333,-0.40763 0,0.07276 -0.47625,0.375256 -1.058333,0.672213 -0.582084,0.296958 -1.058334,0.480391 -1.058334,0.407631 z m 23.217187,-0.294381 c -0.989129,-0.536612 -0.928921,-0.760111 0.06615,-0.245541 0.436562,0.225755 0.79375,0.466936 0.79375,0.535961 0,0.170259 -0.02843,0.160657 -0.859896,-0.29042 z M 34.991622,55.209217 c 2.54e-4,-2.764896 0.03946,-3.86004 0.08713,-2.433653 0.04766,1.426387 0.04746,3.688574 -5.29e-4,5.027083 -0.04792,1.338508 -0.08692,0.171466 -0.08666,-2.59343 z M 86.739666,58.6488 c -0.363802,-0.207967 -0.542395,-0.378124 -0.396875,-0.378124 0.145521,0 0.56224,0.170157 0.926042,0.378124 0.363802,0.207968 0.542396,0.378124 0.396875,0.378124 -0.145521,0 -0.56224,-0.170156 -0.926042,-0.378124 z M 69.471194,58.483677 c 0.179478,-0.180822 0.39297,-0.262115 0.474432,-0.180653 0.08146,0.08146 -0.06538,0.229407 -0.326318,0.328766 -0.377084,0.143584 -0.407474,0.113194 -0.148114,-0.148113 z m 1.87303,-0.677074 c 0.190995,-0.07643 0.419201,-0.06703 0.507119,0.02087 0.08792,0.08792 -0.06835,0.150453 -0.347265,0.138965 -0.308227,-0.0127 -0.37092,-0.07539 -0.159854,-0.159851 z m 2.116667,-0.529167 c 0.190995,-0.07643 0.4192,-0.06703 0.507119,0.02087 0.08792,0.08792 -0.06835,0.150453 -0.347266,0.138965 -0.308226,-0.0127 -0.370919,-0.07539 -0.159853,-0.159851 z m 8.995833,0 c 0.190995,-0.07643 0.4192,-0.06703 0.507119,0.02087 0.08792,0.08792 -0.06835,0.150453 -0.347266,0.138965 -0.308226,-0.0127 -0.370919,-0.07539 -0.159853,-0.159851 z m -7.552126,-0.267198 c 0.257431,-0.06708 0.614619,-0.06267 0.79375,0.0098 0.179131,0.07248 -0.03149,0.127362 -0.468056,0.12197 -0.436563,-0.0054 -0.583126,-0.06469 -0.325694,-0.131773 z m 5.948089,0.0081 c 0.181902,-0.0734 0.479558,-0.0734 0.661459,0 0.181901,0.0734 0.03307,0.133453 -0.330729,0.133453 -0.363802,0 -0.512631,-0.06005 -0.33073,-0.133453 z m -3.439583,-0.276079 c 0.327422,-0.06307 0.863203,-0.06307 1.190625,0 0.327422,0.06306 0.05953,0.114662 -0.595312,0.114662 -0.654844,0 -0.922735,-0.0516 -0.595313,-0.114662 z M 34.986478,46.345676 c 0,-2.110052 0.04109,-2.973255 0.09131,-1.918229 0.05022,1.055026 0.05022,2.781432 0,3.836458 -0.05022,1.055026 -0.09131,0.191823 -0.09131,-1.918229 z"
         id="path49" />
      <path
         style="fill:#767676;fill-opacity:1;stroke-width:0.264583"
         d="m 34.851543,246.03517 c 0.440664,-0.56156 0.534353,-1.4279 0.244333,-2.25931 -0.117118,-0.33574 -0.119899,-0.55293 -0.0062,-0.48265 0.113718,0.0703 0.202655,-1.28075 0.197636,-3.00229 -0.0052,-1.79657 -0.111077,-3.06707 -0.248438,-2.9822 -0.137054,0.0847 -0.144963,-0.005 -0.01852,-0.20941 0.241546,-0.39082 0.362574,-3.95769 0.134302,-3.958 -0.07758,-1e-4 -0.158231,-0.29775 -0.179215,-0.66146 -0.02098,-0.36369 0.08289,-0.66127 0.230833,-0.66127 0.175588,0 0.171124,-0.11792 -0.01286,-0.3396 -0.155017,-0.18678 -0.199361,-0.47304 -0.09854,-0.63614 0.259369,-0.41958 0.186066,-14.46668 -0.07772,-14.89349 -0.158255,-0.25607 -0.11625,-0.29102 0.153996,-0.12815 0.299482,0.18049 0.310353,0.14819 0.05602,-0.16643 -0.173577,-0.21471 -0.22638,-0.53474 -0.11734,-0.71117 0.109037,-0.17643 0.156982,-1.54165 0.106542,-3.03383 -0.05044,-1.49219 -0.07492,-3.01072 -0.05441,-3.37452 0.0205,-0.3638 0.02836,-2.32833 0.01744,-4.36562 -0.02474,-4.61396 -0.0263,-4.36602 0.04193,-6.74688 0.03127,-1.0914 -0.06221,-2.07367 -0.20773,-2.18281 -0.17639,-0.13229 -0.17639,-0.26458 0,-0.39688 0.30425,-0.22818 0.334365,-4.28763 0.0354,-4.77137 -0.109405,-0.17702 -0.102598,-0.32185 0.01513,-0.32185 0.25908,1e-5 0.26308,-17.10479 0.004,-17.36381 -0.100261,-0.10027 -0.04968,-0.34208 0.112392,-0.53737 0.218104,-0.2628 0.20909,-0.45821 -0.03469,-0.75195 -0.181157,-0.21828 -0.225502,-0.39699 -0.09854,-0.39714 0.302114,-2.6e-4 0.30073,-5.57988 -0.0016,-6.04858 -0.133389,-0.20687 -0.133389,-0.43223 0,-0.52917 0.283972,-0.20639 0.289865,-1.63204 0.0086,-2.0871 -0.116835,-0.18924 -0.07773,-0.33072 0.09154,-0.33072 0.162697,0 0.224999,-0.11457 0.138448,-0.25462 -0.161972,-0.26208 -0.179033,-1.91558 -0.03423,-3.31725 0.0451,-0.43656 -0.04919,-0.88123 -0.209547,-0.98814 -0.203634,-0.13577 -0.193794,-0.1956 0.03263,-0.19844 0.235066,-0.003 0.256026,-0.1833 0.07625,-0.65614 -0.156456,-0.41151 -0.15404,-0.71011 0.0065,-0.80936 0.13996,-0.0865 0.254474,-0.27634 0.254474,-0.42186 0,-0.14552 -0.137459,-0.17963 -0.305464,-0.0758 -0.199903,0.12355 -0.233162,0.0718 -0.09624,-0.14973 0.11507,-0.18619 0.193415,-2.85373 0.174101,-5.92786 -0.01931,-3.07414 -0.03335,-5.82746 -0.03118,-6.1185 0.10845,-14.57299 0.08729,-29.04581 -0.04343,-29.70089 -0.09453,-0.47372 -0.09093,-0.91133 0.008,-0.97247 0.143351,-0.0886 0.155213,-2.3288 0.03372,-6.36831 -0.0044,-0.14552 0.02792,-1.30638 0.07178,-2.57969 0.04424,-1.28443 -0.02822,-2.3151 -0.162756,-2.3151 -0.141358,0 -0.136998,-0.13794 0.01045,-0.33073 0.210444,-0.27514 0.260135,-2.125098 0.06929,-2.579687 -0.03054,-0.07276 -0.02754,-0.251354 0.0067,-0.396875 0.183388,-0.779851 0.118226,-5.363776 -0.08226,-5.786617 -0.148328,-0.312838 -0.13978,-0.4363 0.02323,-0.335552 0.141848,0.08767 0.257908,-0.133919 0.257908,-0.492414 0,-0.358494 -0.102817,-0.588264 -0.228481,-0.510598 -0.125664,0.07766 -0.159885,-0.03754 -0.07605,-0.256016 0.208899,-0.544385 0.27831,-6.77414 0.07547,-6.774068 -0.0896,3.1e-5 -0.0896,-0.446427 0,-0.99213 0.122193,-0.744191 0.145124,-9.972412 0.03501,-14.089061 -0.0058,-0.218282 0.0094,-2.015231 0.03387,-3.993224 0.02447,-1.977991 -0.03043,-3.717557 -0.121989,-3.8657 -0.09156,-0.148143 -0.09154,-0.344279 4e-5,-0.435859 0.24938,-0.249378 0.207865,-9.281911 -0.04454,-9.690306 -0.124093,-0.200787 -0.114951,-0.289155 0.02119,-0.204999 0.138472,0.08559 0.239318,-1.458074 0.239318,-3.663259 0,-2.230652 -0.104238,-3.811191 -0.251354,-3.811209 -0.149543,-1.6e-5 -0.143936,-0.107445 0.01384,-0.265226 0.175961,-0.175961 19.134681,-0.242734 56.343018,-0.198438 l 56.07785,0.06676 0.0273,44.243152 c 0.0198,32.187486 -0.0523,44.195556 -0.26458,44.068486 -0.20094,-0.12027 -0.19831,-0.0558 0.008,0.20684 0.22219,0.28226 0.29102,15.32905 0.26459,57.83699 -0.0213,34.20248 0.0611,57.3956 0.20359,57.30755 0.13162,-0.0813 0.15416,-0.0101 0.0501,0.15827 -0.11601,0.18771 -0.36218,0.22246 -0.6362,0.0898 -0.37371,-0.18091 -30.07745,-0.2262 -30.47717,-0.0465 -0.0728,0.0327 -0.25135,0.0279 -0.39687,-0.0107 -0.7059,-0.18734 -2.24896,-0.12403 -2.24896,0.0923 0,0.14555 -0.13398,0.1423 -0.33073,-0.008 -0.37396,-0.28571 -33.938125,-0.29185 -34.223716,-0.006 -0.09655,0.0966 -0.422085,0.0436 -0.723416,-0.11767 -0.405601,-0.21707 -0.574209,-0.21423 -0.649269,0.011 -0.05577,0.1673 -0.225248,0.22763 -0.376627,0.13407 -0.482777,-0.29837 -42.368124,-0.27048 -42.806649,0.0285 -0.345091,0.23528 -0.348978,0.20955 -0.02979,-0.1972 z m 61.413123,-58.1188 c 0.509323,0.005 2.176198,0.0337 3.704166,0.0626 1.527968,0.029 3.046018,-0.034 3.373438,-0.14003 0.32742,-0.106 0.59528,-0.10637 0.59525,-8e-4 -4e-5,0.10554 1.75613,0.15818 3.9026,0.11697 4.6786,-0.0898 4.2094,-0.0855 6.79341,-0.0627 1.21038,0.0107 2.17019,-0.1 2.27011,-0.26163 0.0952,-0.15407 0.37196,-0.20381 0.61499,-0.11056 0.25708,0.0986 0.44187,0.0405 0.44187,-0.13894 0,-0.16968 0.11906,-0.23492 0.26458,-0.14499 0.14552,0.0899 0.26458,0.0304 0.26458,-0.13229 0,-0.1627 0.11991,-0.22171 0.26646,-0.13113 0.14655,0.0906 0.33761,-0.0208 0.4246,-0.24745 0.087,-0.22667 0.24882,-0.35609 0.35964,-0.2876 0.11083,0.0685 0.42577,-0.13125 0.69988,-0.44387 0.33598,-0.38319 0.36906,-0.503 0.10151,-0.36768 -0.21828,0.11041 -0.12348,-0.0226 0.21068,-0.29562 0.33415,-0.27299 0.62738,-0.75957 0.65161,-1.08129 0.0242,-0.32172 0.18479,-0.58494 0.35677,-0.58494 0.22189,0 0.25089,-0.27409 0.0999,-0.94374 -0.11706,-0.51906 -0.21708,-6.85914 -0.22225,-14.08906 -0.005,-7.22993 -0.03,-13.26439 -0.0552,-13.40991 -0.0252,-0.14552 -0.0317,-0.35388 -0.0145,-0.46302 0.0172,-0.10914 -0.0948,-0.19844 -0.24886,-0.19844 -0.15411,0 -0.20662,-0.11906 -0.11668,-0.26458 0.0899,-0.14552 0.0304,-0.26458 -0.13229,-0.26458 -0.1627,0 -0.23024,-0.1061 -0.1501,-0.23578 0.22383,-0.36215 -1.95166,-2.20781 -2.39971,-2.03587 -0.24653,0.0946 -0.31982,0.0385 -0.20092,-0.15393 0.13277,-0.21483 -0.0548,-0.25446 -0.64535,-0.13635 -0.50658,0.10131 -0.80756,0.0621 -0.76875,-0.10026 0.0882,-0.36873 -49.857303,-0.33548 -50.085247,0.0333 -0.09026,0.14603 -0.352198,0.19334 -0.582089,0.10512 -0.512318,-0.19659 -1.928884,0.50327 -2.296636,1.13466 -0.148328,0.25466 -0.273309,0.3506 -0.277733,0.21318 -0.0044,-0.13741 -0.308242,0.15706 -0.675151,0.65437 -0.366905,0.49732 -0.608769,1.05623 -0.537469,1.24203 0.0713,0.1858 0.01204,0.33782 -0.131688,0.33782 -0.150546,0 -0.186749,0.29712 -0.0854,0.70092 0.123807,0.49329 0.08611,0.64542 -0.127251,0.51355 -0.34671,-0.21428 -0.333611,-0.34848 -0.307589,3.15116 0.01082,1.4552 0.0029,2.94348 -0.01765,3.30729 -0.02053,0.3638 -0.02679,0.86981 -0.01392,1.12448 0.04852,0.96024 0.0522,1.15739 0.04567,2.44739 -0.01318,2.60218 -7.94e-4,3.55882 0.0688,5.35793 0.0296,0.76405 -0.0069,1.38913 -0.08116,1.38907 -0.07424,-7e-5 -0.108606,0.92261 -0.07637,2.0504 0.114171,3.9947 0.104532,5.49834 -0.03968,6.18938 -0.102293,0.4902 -0.02096,0.74724 0.272058,0.85968 0.306763,0.11772 0.373497,0.36295 0.250788,0.92163 -0.111998,0.50993 -0.03577,0.89267 0.230915,1.15935 0.218959,0.21896 0.340342,0.45587 0.269738,0.52648 -0.0706,0.0706 0.292253,0.63182 0.806349,1.24715 0.514096,0.61533 0.93472,0.9657 0.93472,0.7786 0,-0.20417 0.142632,-0.14512 0.356738,0.14768 0.22462,0.30719 0.484727,0.40877 0.702336,0.27428 0.242284,-0.14974 0.282035,-0.11074 0.132969,0.13045 -0.163782,0.26501 -0.0439,0.3017 0.521751,0.15974 0.546938,-0.13728 0.700674,-0.0965 0.60231,0.15984 -0.107595,0.28038 2.546699,0.33271 14.320181,0.28235 7.948739,-0.034 14.868974,-0.0573 15.378297,-0.0518 z m -29.888607,-5.29289 c -0.177999,-0.3326 -0.273892,-5.00395 -0.273892,-13.34256 0,-11.31157 0.04923,-12.88002 0.415775,-13.24656 0.579826,-0.57983 0.821171,-0.52251 0.286691,0.0681 -0.394885,0.43634 -0.437485,1.74185 -0.433832,13.29531 0.0021,7.0463 0.09732,12.9583 0.211321,13.13777 0.153934,0.24234 2.042159,0.34562 7.338136,0.40138 l 7.130867,0.0751 -7.200587,0.0616 c -6.881918,0.0589 -7.212708,0.039 -7.474479,-0.45014 z m 17.651628,0.31426 c 1.63711,-0.0464 4.316016,-0.0464 5.953125,0 1.637109,0.0464 0.297656,0.0844 -2.976562,0.0844 -3.274219,0 -4.613672,-0.038 -2.976563,-0.0844 z m 9.276953,0.0168 c 0.190995,-0.0764 0.419201,-0.067 0.507119,0.0209 0.08792,0.0879 -0.06835,0.15045 -0.347266,0.13896 -0.308226,-0.0127 -0.370919,-0.0754 -0.159853,-0.15985 z m 11.93225,-0.0176 c 7.74309,-0.0497 11.33101,-0.16315 11.57552,-0.36608 0.28406,-0.23575 0.36687,-2.53111 0.41753,-11.57261 l 0.0632,-11.27855 0.072,11.22075 c 0.0652,10.16235 0.0304,11.26669 -0.36879,11.70781 -0.4167,0.46046 -1.05646,0.48362 -11.71071,0.42387 l -11.269932,-0.0632 11.221182,-0.072 z m 11.9788,-24.7386 c -0.0361,-1.12313 -0.18745,-1.65986 -0.57811,-2.05052 -0.29104,-0.29104 -0.41285,-0.52916 -0.27068,-0.52916 0.61473,0 1.09269,1.2902 0.99575,2.68791 l -0.098,1.41313 z M 81.646437,102.43886 c 0.472943,-0.001 0.859896,-0.12502 0.859896,-0.27557 0,-0.18695 0.159391,-0.18843 0.502719,-0.005 0.379571,0.20314 0.539149,0.17411 0.651441,-0.11853 0.08418,-0.21936 0.325316,-0.3198 0.555617,-0.23142 0.22379,0.0859 0.40689,0.0281 0.40689,-0.12845 0,-0.15653 0.178594,-0.21606 0.396875,-0.1323 0.218281,0.0838 0.396875,0.0242 0.396875,-0.13229 0,-0.15652 0.178593,-0.21605 0.396875,-0.13229 0.218281,0.0838 0.396875,0.031 0.396875,-0.1173 0,-0.14827 0.297656,-0.23691 0.661458,-0.19698 0.363802,0.0399 0.661458,-0.006 0.661458,-0.10287 0,-0.0965 0.535782,-0.43578 1.190625,-0.75392 0.654844,-0.318153 1.190625,-0.70609 1.190625,-0.862091 0,-0.156001 0.118065,-0.210669 0.262366,-0.121486 0.144301,0.08918 0.56102,-0.136504 0.926042,-0.501526 0.365022,-0.365021 0.668515,-0.579792 0.674428,-0.477266 0.0059,0.102527 0.378799,-0.230306 0.828633,-0.739629 0.449834,-0.509323 0.719013,-0.747448 0.598178,-0.529167 -0.291918,0.527331 1.503455,-1.014579 2.130226,-1.82949 0.270251,-0.351375 0.333568,-0.541338 0.1407,-0.42214 -0.240374,0.148558 -0.287782,0.114975 -0.150733,-0.106778 0.109964,-0.177924 0.372671,-0.257215 0.58379,-0.176202 0.211119,0.08101 0.31945,0.04309 0.240734,-0.08428 -0.07872,-0.127365 0.03285,-0.377616 0.247928,-0.556114 0.215077,-0.178499 0.333512,-0.417637 0.263189,-0.531421 -0.07032,-0.113784 0.0576,-0.278048 0.284268,-0.365027 0.226668,-0.08698 0.345731,-0.265576 0.264583,-0.396875 -0.08115,-0.131303 0.03791,-0.309896 0.264583,-0.396875 0.226669,-0.08698 0.338019,-0.278051 0.247449,-0.424601 -0.09057,-0.146553 -0.03666,-0.266457 0.119801,-0.266457 0.156464,0 0.483198,-0.416718 0.726078,-0.926041 0.242879,-0.509323 0.553188,-0.926042 0.689575,-0.926042 0.136385,0 0.09976,-0.178594 -0.0814,-0.396875 -0.245451,-0.295751 -0.249727,-0.396875 -0.01677,-0.396875 0.171929,0 0.239011,-0.119062 0.149074,-0.264583 -0.08994,-0.145521 -0.02469,-0.264583 0.144984,-0.264583 0.169677,0 0.239974,-0.178594 0.15621,-0.396875 -0.08376,-0.218282 -0.02424,-0.396875 0.132291,-0.396875 0.156525,0 0.216056,-0.178594 0.132292,-0.396875 -0.08376,-0.218282 -0.02424,-0.396875 0.132295,-0.396875 0.15653,0 0.21606,-0.178594 0.13229,-0.396875 -0.0838,-0.218282 -0.0231,-0.396875 0.13485,-0.396875 0.15792,0 0.22489,-0.238006 0.14882,-0.528902 -0.0761,-0.290899 -0.0208,-0.601544 0.12288,-0.690325 0.14365,-0.08878 0.18973,-0.446087 0.10241,-0.794012 -0.0873,-0.347927 -0.063,-0.632595 0.0542,-0.632595 0.11711,0 0.21293,-1.488281 0.21293,-3.307291 0,-1.81901 -0.0958,-3.307292 -0.21293,-3.307292 -0.11711,0 -0.14148,-0.284667 -0.0542,-0.632594 0.0873,-0.347925 0.0412,-0.705231 -0.10241,-0.794012 -0.14366,-0.08878 -0.19895,-0.399426 -0.12288,-0.690325 0.0761,-0.290896 0.009,-0.528902 -0.14882,-0.528902 -0.15793,0 -0.21861,-0.178594 -0.13485,-0.396875 0.0838,-0.218281 0.0242,-0.396875 -0.13229,-0.396875 -0.156526,0 -0.216057,-0.178593 -0.132295,-0.396875 0.08376,-0.218281 0.02424,-0.396875 -0.132292,-0.396875 -0.156522,0 -0.216053,-0.178593 -0.132291,-0.396875 0.08376,-0.218281 0.02424,-0.396875 -0.132292,-0.396875 -0.156522,0 -0.221943,-0.163242 -0.145381,-0.362759 0.07656,-0.199517 -0.04057,-0.542531 -0.260289,-0.762252 -0.21972,-0.21972 -0.325786,-0.473199 -0.235701,-0.563282 0.09007,-0.09009 0.005,-0.16379 -0.188997,-0.16379 -0.194027,0 -0.278151,-0.07463 -0.186942,-0.165835 0.224399,-0.224399 -0.55046,-1.686248 -0.893802,-1.686248 -0.15037,0 -0.199297,-0.119904 -0.108725,-0.266451 0.09057,-0.14655 -0.02077,-0.337619 -0.247449,-0.424601 -0.226671,-0.08698 -0.351287,-0.256588 -0.276929,-0.376902 0.07436,-0.120316 -0.13141,-0.405497 -0.457266,-0.633735 -0.380643,-0.266613 -0.455268,-0.414978 -0.208724,-0.414978 0.211055,0 -0.08799,-0.386953 -0.664552,-0.859895 -0.576558,-0.472943 -1.627534,-1.455209 -2.335503,-2.182813 -0.707967,-0.727604 -1.205532,-1.144323 -1.105702,-0.926042 0.09983,0.218282 -0.0643,0.09922 -0.36473,-0.264583 -0.300432,-0.363802 -0.552511,-0.542396 -0.560171,-0.396875 -0.0077,0.145521 -0.136689,0.05372 -0.286729,-0.204001 -0.15004,-0.257723 -0.384543,-0.399524 -0.52112,-0.315117 -0.136578,0.08441 -0.248322,0.03044 -0.248322,-0.11993 0,-0.343342 -1.46185,-1.1182 -1.686248,-0.893802 -0.09121,0.09121 -0.165836,0.0071 -0.165836,-0.186941 0,-0.194027 -0.07371,-0.279072 -0.16379,-0.18899 -0.09008,0.09009 -0.343561,-0.01598 -0.563282,-0.235701 -0.219721,-0.219721 -0.568918,-0.334478 -0.775994,-0.255013 -0.238649,0.09158 -0.307139,0.03225 -0.187063,-0.162039 0.126513,-0.204703 0.04319,-0.250396 -0.250843,-0.137565 -0.242478,0.09305 -0.440278,0.04109 -0.440278,-0.115636 0,-0.156525 -0.174781,-0.217519 -0.3884,-0.135543 -0.213622,0.08197 -0.459975,0.03324 -0.547449,-0.108302 -0.08748,-0.141539 -0.261657,-0.193927 -0.387067,-0.11642 -0.12541,0.07751 -0.307822,0.0118 -0.405355,-0.146013 -0.09754,-0.157816 -0.340074,-0.224488 -0.538977,-0.148164 -0.198901,0.07633 -0.435531,0.01921 -0.525841,-0.126912 -0.09031,-0.14613 -0.362016,-0.246282 -0.603787,-0.222562 -0.241771,0.02373 -0.558644,0.0096 -0.704165,-0.03141 -0.145521,-0.04099 -0.740833,-0.10823 -1.322917,-0.149412 -0.582083,-0.04118 -1.56659,-0.153136 -2.187789,-0.248783 -0.677685,-0.104344 -1.266449,-0.06021 -1.471938,0.110331 -0.193497,0.160589 -0.766818,0.215374 -1.31794,0.125939 -0.650459,-0.105555 -0.975457,-0.05693 -0.975457,0.145947 0,0.188706 -0.240229,0.243949 -0.632595,0.145471 -0.347925,-0.08732 -0.708925,-0.03526 -0.802222,0.115697 -0.0933,0.150955 -0.344411,0.207396 -0.558033,0.125423 -0.213619,-0.08198 -0.3884,-0.02839 -0.3884,0.119076 0,0.147465 -0.238125,0.205851 -0.529167,0.129741 -0.291042,-0.07611 -0.529167,-0.0092 -0.529167,0.148756 0,0.157928 -0.178593,0.218607 -0.396875,0.134845 -0.218281,-0.08376 -0.396875,-0.01347 -0.396875,0.15621 0,0.169678 -0.11422,0.237914 -0.25382,0.151636 -0.267737,-0.165471 -1.330743,0.338452 -1.660358,0.787098 -0.106913,0.145521 -0.19621,0.172865 -0.198437,0.06077 -0.0062,-0.31102 -2.120718,0.836473 -2.120718,1.150848 0,0.151151 -0.119904,0.200715 -0.266451,0.110143 -0.14655,-0.09057 -0.337619,0.02077 -0.424601,0.247449 -0.08698,0.226671 -0.257175,0.350922 -0.378211,0.276119 -0.253412,-0.156617 -4.915995,4.366906 -4.820891,4.677109 0.03464,0.112966 -0.133723,0.129915 -0.374131,0.03766 -0.280638,-0.10769 -0.372668,-0.06347 -0.257093,0.123532 0.099,0.160197 0.05706,0.367249 -0.09321,0.460121 -0.150267,0.09287 -0.212426,0.267216 -0.138128,0.387432 0.0743,0.120218 -0.05037,0.289745 -0.277037,0.376724 -0.226669,0.08698 -0.338019,0.278051 -0.247449,0.424601 0.09057,0.146547 0.0403,0.266451 -0.111713,0.266451 -0.36582,0 -1.934535,3.123546 -1.732716,3.450098 0.08636,0.139737 0.0182,0.254068 -0.151482,0.254068 -0.169677,0 -0.239974,0.178594 -0.15621,0.396875 0.08376,0.218282 0.02424,0.396875 -0.132292,0.396875 -0.156524,0 -0.216056,0.178594 -0.132291,0.396875 0.08376,0.218282 0.02895,0.396875 -0.121814,0.396875 -0.153705,0 -0.200335,0.232442 -0.106159,0.529167 0.103399,0.325781 0.04754,0.529167 -0.14532,0.529167 -0.18301,0 -0.255733,0.220032 -0.174892,0.529166 0.07611,0.291042 0.0149,0.529167 -0.136051,0.529167 -0.166204,0 -0.214789,0.36754 -0.123196,0.931971 0.08971,0.552807 0.04997,0.869384 -0.09767,0.778134 -0.294399,-0.181946 -0.317307,0.09455 -0.252907,3.052395 0.02693,1.236927 0.136861,2.281629 0.244292,2.321562 0.107429,0.03993 0.143328,0.426884 0.07978,0.859896 -0.06373,0.434234 0.0055,0.787291 0.154291,0.787291 0.148413,0 0.207574,0.238125 0.131464,0.529167 -0.07611,0.291042 -0.01659,0.529167 0.132292,0.529167 0.14887,0 0.208401,0.238125 0.132291,0.529166 -0.07611,0.291042 -0.0092,0.529167 0.148757,0.529167 0.157927,0 0.218607,0.178594 0.134845,0.396875 -0.08376,0.218281 -0.02424,0.396875 0.132291,0.396875 0.156523,0 0.216054,0.178594 0.132292,0.396875 -0.08376,0.218281 -0.02424,0.396875 0.132292,0.396875 0.156522,0 0.221943,0.163243 0.14538,0.362759 -0.07656,0.199517 0.04057,0.542531 0.260289,0.762252 0.219721,0.21972 0.325787,0.473199 0.235702,0.563282 -0.09008,0.09009 -0.01786,0.16379 0.160507,0.16379 0.178363,0 0.250711,0.119063 0.160774,0.264583 -0.08994,0.145521 -0.03041,0.264584 0.132291,0.264584 0.162698,0 0.232993,0.101645 0.156213,0.22588 -0.182906,0.29595 1.334714,2.684536 1.705658,2.684536 0.157316,0 0.217477,0.110916 0.133694,0.246481 -0.08378,0.135564 0.114276,0.433221 0.440131,0.661458 0.325856,0.228238 0.480402,0.414978 0.343437,0.414978 -0.136964,0 0.452327,0.70875 1.309537,1.574998 0.857213,0.866249 1.644134,1.522116 1.748716,1.457481 0.104582,-0.06463 0.386995,0.182909 0.627589,0.550098 0.240591,0.367191 0.538795,0.604978 0.662675,0.528415 0.123878,-0.07656 0.300046,0.05575 0.391478,0.294021 0.09143,0.238273 0.235468,0.364001 0.320077,0.279395 0.08461,-0.08461 0.438991,0.15386 0.787521,0.529931 0.364464,0.393264 0.633691,0.533456 0.633691,0.329975 0,-0.229034 0.125793,-0.181753 0.356737,0.134081 0.196205,0.268325 0.493861,0.403115 0.661459,0.299535 0.167595,-0.10358 0.30472,-0.0552 0.30472,0.10748 0,0.1627 0.119063,0.22223 0.264584,0.13229 0.14552,-0.0899 0.264583,-0.0304 0.264583,0.1323 0,0.16269 0.119062,0.22223 0.264583,0.13229 0.145521,-0.0899 0.264584,-0.0247 0.264584,0.14498 0,0.16968 0.178593,0.23998 0.396875,0.15621 0.218281,-0.0838 0.396874,-0.0486 0.396874,0.0781 0,0.30386 1.578486,0.84813 1.894065,0.65309 0.135181,-0.0835 0.404069,-0.0205 0.597532,0.14003 0.193461,0.16056 0.545434,0.2176 0.782159,0.12676 0.25396,-0.0975 0.430411,-0.0315 0.430411,0.1608 0,0.22198 0.256426,0.27468 0.80382,0.1652 0.522155,-0.10443 0.847513,-0.0465 0.928513,0.16537 0.09403,0.24593 0.725913,0.27774 2.56962,0.12936 1.344707,-0.10821 2.831875,-0.19758 3.304817,-0.19859 z M 64.745501,92.449319 c -0.329108,-0.419645 -0.319749,-0.429003 0.0999,-0.0999 0.254661,0.199721 0.46302,0.40808 0.46302,0.463021 0,0.217763 -0.217273,0.07761 -0.562916,-0.363125 z m 26.492082,0.363125 c 0,-0.05494 0.208359,-0.2633 0.463021,-0.463021 0.419645,-0.329107 0.429003,-0.319749 0.0999,0.0999 -0.345644,0.44073 -0.562917,0.580888 -0.562917,0.363125 z m 4.783388,-17.252359 c 0.0127,-0.308226 0.07539,-0.370919 0.159851,-0.159853 0.07643,0.190995 0.06703,0.419198 -0.02088,0.507119 -0.08792,0.08792 -0.150452,-0.06835 -0.138964,-0.347266 z m -28.728179,-6.98941 c 0.26339,-0.291042 0.538422,-0.529167 0.611182,-0.529167 0.07276,0 -0.08321,0.238125 -0.346598,0.529167 -0.26339,0.291041 -0.538422,0.529166 -0.611183,0.529166 -0.07276,0 0.08321,-0.238125 0.346599,-0.529166 z m 24.195132,-1.521354 -0.9118,-0.992188 0.992188,0.911799 c 0.545703,0.501489 0.992187,0.947973 0.992187,0.992188 0,0.202041 -0.223895,0.01172 -1.072575,-0.911799 z M 75.577558,61.510769 c 0.190994,-0.07643 0.4192,-0.06703 0.507118,0.02088 0.08792,0.08792 -0.06835,0.150452 -0.347265,0.138964 -0.308227,-0.0127 -0.37092,-0.07539 -0.159853,-0.159851 z M 62.133418,63.4113 c 0.341775,-0.363802 0.561877,-0.661458 0.489116,-0.661458 -0.07276,0 -0.411924,0.297656 -0.7537,0.661458 -0.341775,0.363802 -0.561877,0.661458 -0.489116,0.661458 0.07276,0 0.411924,-0.297656 0.7537,-0.661458 z m 89.958332,80.25694 c 0,-55.322166 0.0602,-100.525607 0.13366,-100.45209 0.0735,0.07352 0.13275,45.292413 0.13161,100.48643 -0.002,95.59122 0.0199,100.33571 0.46165,99.99324 0.36833,-0.28558 8.65261,-7.07663 11.70849,-9.59804 l 0.66146,-0.54578 -0.52917,0.56653 c -0.81247,0.86985 -12.10234,10.13547 -12.34974,10.13547 -0.11988,0 -0.21796,-45.26359 -0.21796,-100.58576 z m 12.43541,36.04305 c 0,-0.13694 0.1177,-0.32172 0.26156,-0.41062 0.14998,-0.0927 0.19433,0.0135 0.10398,0.24897 -0.17589,0.45836 -0.36554,0.54223 -0.36554,0.16165 z m 0,-39.15834 c 0,-0.13693 0.1177,-0.32171 0.26156,-0.41061 0.14998,-0.0927 0.19433,0.0135 0.10398,0.24896 -0.17589,0.45837 -0.36554,0.54224 -0.36554,0.16165 z m 0,-14.68437 c 0,-0.20969 0.10796,-0.44798 0.23991,-0.52953 0.13195,-0.0816 0.17759,0.09 0.10143,0.38126 -0.16155,0.6178 -0.34134,0.69589 -0.34134,0.14827 z m 0.0209,-8.76891 c 0.0127,-0.30823 0.0754,-0.37092 0.15985,-0.15986 0.0764,0.191 0.067,0.4192 -0.0209,0.50712 -0.0879,0.0879 -0.15045,-0.0683 -0.13896,-0.34726 z m -0.31921,-64.867015 c -0.32911,-0.419645 -0.31975,-0.429004 0.0999,-0.0999 0.44072,0.345643 0.58088,0.562917 0.36312,0.562917 -0.0549,0 -0.2633,-0.20836 -0.46302,-0.463021 z m -3.87928,-2.713649 c -1.7769,-1.310608 -3.23072,-2.45628 -3.23072,-2.54594 0,-0.08966 0.14883,-0.04818 0.33073,0.09217 0.1819,0.140357 1.58088,1.18464 3.10885,2.320629 2.96233,2.202381 3.3552,2.516058 3.15134,2.516058 -0.0712,0 -1.58331,-1.072314 -3.3602,-2.38292 z m -5.34739,-4.000076 c -2.12297,-1.635795 -2.67479,-2.201545 -1.00954,-1.035026 1.343,0.940776 3.07526,2.372283 2.86163,2.364798 -0.0728,-0.0026 -0.9062,-0.600948 -1.85209,-1.329772 z"
         id="path47" />
      <path
         style="fill:#606060;fill-opacity:1;stroke-width:0.264583"
         d="m 34.747692,143.97692 c 0,-56.243798 0.03037,-79.252625 0.0675,-51.130726 0.03712,28.121896 0.03712,74.139556 0,102.261456 -0.03712,28.1219 -0.0675,5.11307 -0.0675,-51.13073 z m 2.200701,101.94842 c 0.190995,-0.0764 0.4192,-0.067 0.507119,0.0209 0.08792,0.0879 -0.06835,0.15045 -0.347266,0.13896 -0.308226,-0.0127 -0.370919,-0.0754 -0.159853,-0.15985 z m 17.197916,0 c 0.190994,-0.0764 0.4192,-0.067 0.507118,0.0209 0.08792,0.0879 -0.06835,0.15045 -0.347265,0.13896 -0.308226,-0.0127 -0.370919,-0.0754 -0.159853,-0.15985 z m 15.874999,0 c 0.190995,-0.0764 0.4192,-0.067 0.507119,0.0209 0.08792,0.0879 -0.06835,0.15045 -0.347266,0.13896 -0.308226,-0.0127 -0.370919,-0.0754 -0.159853,-0.15985 z m 16.933332,0 c 0.190995,-0.0764 0.419201,-0.067 0.507119,0.0209 0.08792,0.0879 -0.06835,0.15045 -0.347265,0.13896 -0.308227,-0.0127 -0.37092,-0.0754 -0.159854,-0.15985 z m 8.995833,0 c 0.190995,-0.0764 0.419201,-0.067 0.507119,0.0209 0.08792,0.0879 -0.06835,0.15045 -0.347266,0.13896 -0.308226,-0.0127 -0.370919,-0.0754 -0.159853,-0.15985 z m 1.972874,-0.003 c 0.257431,-0.0671 0.614619,-0.0627 0.79375,0.01 0.17913,0.0725 -0.03149,0.12737 -0.468056,0.12197 -0.436563,-0.005 -0.583126,-0.0647 -0.325694,-0.13177 z m 2.111633,0.001 c 0.25466,-0.0665 0.67138,-0.0665 0.92604,0 0.25466,0.0666 0.0463,0.121 -0.46302,0.121 -0.509324,0 -0.717683,-0.0545 -0.46302,-0.121 z m 5.96966,0.002 c 0.19099,-0.0764 0.4192,-0.067 0.50712,0.0209 0.0879,0.0879 -0.0683,0.15045 -0.34727,0.13896 -0.30822,-0.0127 -0.37092,-0.0754 -0.15985,-0.15985 z m 1.30638,0.006 c 0.1819,-0.0734 0.47956,-0.0734 0.66146,0 0.1819,0.0734 0.0331,0.13345 -0.33073,0.13345 -0.3638,0 -0.51263,-0.0601 -0.33073,-0.13345 z m 20.91862,-0.006 c 0.19099,-0.0764 0.4192,-0.067 0.50712,0.0209 0.0879,0.0879 -0.0684,0.15045 -0.34727,0.13896 -0.30822,-0.0127 -0.37092,-0.0754 -0.15985,-0.15985 z m 1.17409,-0.002 c 0.25466,-0.0665 0.67138,-0.0665 0.92604,0 0.25466,0.0666 0.0463,0.121 -0.46302,0.121 -0.50933,0 -0.71768,-0.0545 -0.46302,-0.121 z m 14.68437,0.007 c 0.1819,-0.0734 0.47956,-0.0734 0.66146,0 0.1819,0.0734 0.0331,0.13345 -0.33073,0.13345 -0.3638,0 -0.51263,-0.0601 -0.33073,-0.13345 z m 3.28292,-0.35401 c 0,-0.36381 0.0601,-0.51263 0.13345,-0.33073 0.0734,0.1819 0.0734,0.47955 0,0.66146 -0.0734,0.1819 -0.13345,0.0331 -0.13345,-0.33073 z m 4.98669,-101.62414 c 1e-5,-55.311193 -0.0809,-100.703769 -0.1798,-100.87239 -0.0989,-0.168625 0.32169,0.203869 0.93464,0.827764 0.62605,0.637241 1.24423,1.054137 1.41062,0.951307 0.16963,-0.104841 0.22283,-0.06438 0.12452,0.09469 -0.1675,0.27102 0.53509,0.729929 0.96945,0.633219 0.11996,-0.02671 0.16199,0.04369 0.0934,0.156432 -0.0686,0.112747 0.18029,0.433694 0.55305,0.713219 0.43103,0.323212 0.6066,0.371372 0.48229,0.132291 -0.10751,-0.206763 2.6e-4,-0.137808 0.2397,0.153234 0.23935,0.291042 0.55468,0.496451 0.70075,0.456464 0.14606,-0.03998 0.19386,0.04334 0.1062,0.185164 -0.19601,0.317164 0.76282,0.868444 1.05371,0.605835 0.11523,-0.104021 0.12755,-0.04628 0.0274,0.128325 -0.18499,0.322448 0.67735,0.960625 0.98854,0.73157 0.0919,-0.06764 0.10914,-0.04521 0.0383,0.04985 -0.17189,0.230764 1.47321,1.432568 1.73744,1.269265 0.11375,-0.0703 0.29297,0.01159 0.39827,0.181964 0.12696,0.205428 0.0663,0.244835 -0.18016,0.116986 -0.20438,-0.106037 -0.14571,-0.0092 0.13039,0.215228 0.2761,0.224411 0.5953,0.350361 0.70932,0.279889 0.11403,-0.07047 0.29348,0.01127 0.39878,0.181647 0.12934,0.209264 0.0709,0.240996 -0.18015,0.09779 -0.25838,-0.147394 -0.29099,-0.125299 -0.10703,0.07251 0.14552,0.156475 0.44318,0.322771 0.66146,0.369544 0.21828,0.04678 0.55385,0.295397 0.74571,0.552492 0.19185,0.257096 0.45974,0.398897 0.59531,0.315114 0.15108,-0.09337 0.24648,5.338492 0.24648,14.034105 0,11.278732 -0.0678,14.145712 -0.33073,13.987742 -0.26002,-0.156215 -0.26282,-0.114705 -0.0131,0.194165 0.41145,0.508883 0.48764,44.303185 0.0775,44.556655 -0.14457,0.0893 -0.25449,0.36379 -0.24426,0.60987 0.0152,0.36472 0.0606,0.34961 0.24599,-0.0818 0.14977,-0.34854 0.23373,0.31155 0.24598,1.93385 0.0143,1.89761 -0.0573,2.42014 -0.31213,2.27629 -0.26458,-0.14938 -0.26458,-0.11546 0,0.16959 0.41492,0.44702 0.47639,9.65423 0.0661,9.90777 -0.14553,0.0899 -0.26277,0.30533 -0.26054,0.47864 0.002,0.18951 0.10662,0.15692 0.26137,-0.0818 0.16795,-0.25904 0.25673,6.37559 0.25564,19.10355 -0.001,12.46855 -0.0953,19.5583 -0.26136,19.66092 -0.14283,0.0883 -0.25788,0.30231 -0.25565,0.47562 0.002,0.18988 0.10703,0.15739 0.26317,-0.0818 0.16992,-0.26027 0.25334,9.05347 0.24235,27.05803 -0.009,15.10019 -0.0979,27.40472 -0.19715,27.34341 -0.0992,-0.0613 -0.53752,0.1879 -0.97401,0.55382 -0.43649,0.36592 -0.62639,0.57432 -0.42201,0.4631 0.24864,-0.13529 0.30826,-0.0997 0.18016,0.10757 -0.1053,0.17038 -0.27259,0.25964 -0.37174,0.19836 -0.0992,-0.0613 -0.53742,0.18796 -0.97391,0.55389 -0.43649,0.36592 -0.62639,0.57431 -0.42201,0.4631 0.24864,-0.13529 0.30826,-0.0997 0.18016,0.10757 -0.1053,0.17038 -0.27585,0.25762 -0.37901,0.19386 -0.10315,-0.0637 -0.48188,0.12324 -0.84161,0.41552 -0.35974,0.29229 -0.48684,0.44318 -0.28245,0.3353 0.2472,-0.13047 0.30751,-0.0924 0.18015,0.11365 -0.1053,0.17038 -0.27258,0.25964 -0.37174,0.19836 -0.0992,-0.0613 -0.53741,0.18796 -0.9739,0.55389 -0.43649,0.36592 -0.6264,0.57431 -0.42201,0.4631 0.24863,-0.13529 0.30825,-0.0997 0.18015,0.10757 -0.1053,0.17038 -0.27258,0.25964 -0.37174,0.19836 -0.0992,-0.0613 -0.53741,0.18796 -0.9739,0.55388 -0.43649,0.36592 -0.6264,0.57432 -0.42201,0.46311 0.24863,-0.1353 0.30825,-0.0997 0.18015,0.10756 -0.1053,0.17038 -0.27258,0.25965 -0.37174,0.19836 -0.0992,-0.0613 -0.53741,0.18797 -0.9739,0.55389 -0.43649,0.36592 -0.6264,0.57432 -0.42201,0.4631 0.24863,-0.13529 0.30825,-0.0997 0.18015,0.10757 -0.1053,0.17038 -0.27258,0.25964 -0.37174,0.19836 -0.0992,-0.0613 -0.53741,0.18796 -0.9739,0.55389 -0.43649,0.36592 -0.6264,0.57431 -0.42201,0.4631 0.24863,-0.13529 0.30825,-0.0997 0.18015,0.10757 -0.1053,0.17038 -0.27585,0.25762 -0.37901,0.19386 -0.10315,-0.0637 -0.48188,0.12324 -0.84161,0.41552 -0.35973,0.29229 -0.47547,0.43872 -0.25718,0.3254 0.34173,-0.17742 0.34642,-0.14385 0.0337,0.24162 -0.19972,0.24621 -0.40777,0.44766 -0.46234,0.44766 -0.0546,0 -0.0992,-45.25461 -0.0992,-100.5658 z m 12.35019,-27.01297 c -0.0845,-0.21106 -0.14715,-0.14837 -0.15985,0.15986 -0.0115,0.27891 0.0511,0.43518 0.13897,0.34726 0.0879,-0.0879 0.0973,-0.31612 0.0209,-0.50712 z m -17.35776,126.3661 c 0.0127,-0.30823 0.0754,-0.37092 0.15985,-0.15985 0.0764,0.19099 0.067,0.4192 -0.0209,0.50712 -0.0879,0.0879 -0.15045,-0.0684 -0.13896,-0.34727 z M 35.166808,243.04133 c 0.0127,-0.30823 0.07539,-0.37092 0.15985,-0.15986 0.07643,0.191 0.06703,0.4192 -0.02088,0.50712 -0.08792,0.0879 -0.150453,-0.0683 -0.138965,-0.34726 z M 167.173,237.27494 c 0,-0.0549 0.20836,-0.2633 0.46302,-0.46302 0.41964,-0.32911 0.429,-0.31975 0.0999,0.0999 -0.34564,0.44073 -0.56291,0.58089 -0.56291,0.36313 z m -19.80198,-13.12927 c 0,-0.3638 0.0601,-0.51263 0.13345,-0.33073 0.0734,0.1819 0.0734,0.47956 0,0.66146 -0.0734,0.1819 -0.13345,0.0331 -0.13345,-0.33073 z M 35.166808,220.28716 c 0.0127,-0.30823 0.07539,-0.37092 0.15985,-0.15985 0.07643,0.19099 0.06703,0.4192 -0.02088,0.50712 -0.08792,0.0879 -0.150453,-0.0684 -0.138965,-0.34727 z m 0,-6.87917 c 0.0127,-0.30822 0.07539,-0.37091 0.15985,-0.15985 0.07643,0.191 0.06703,0.4192 -0.02088,0.50712 -0.08792,0.0879 -0.150453,-0.0683 -0.138965,-0.34727 z m 0,-1.85208 c 0.0127,-0.30822 0.07539,-0.37092 0.15985,-0.15985 0.07643,0.19099 0.06703,0.4192 -0.02088,0.50712 -0.08792,0.0879 -0.150453,-0.0684 -0.138965,-0.34727 z m 31.662963,-24.09797 c 0.181902,-0.0734 0.479558,-0.0734 0.661459,0 0.181901,0.0734 0.03307,0.13345 -0.330729,0.13345 -0.363802,0 -0.512631,-0.06 -0.33073,-0.13345 z m 3.96875,-0.0212 c 1.055026,-0.0502 2.781432,-0.0502 3.836458,0 1.055026,0.0502 0.191823,0.0913 -1.918229,0.0913 -2.110052,0 -2.973255,-0.0411 -1.918229,-0.0913 z m 7.415326,0.002 c 0.622311,-0.0559 1.574811,-0.0551 2.116667,0.002 0.541856,0.0569 0.03269,0.10259 -1.131472,0.10163 -1.164167,-0.001 -1.607505,-0.0475 -0.985195,-0.10337 z m 3.564882,0.0117 c 0.254662,-0.0665 0.67138,-0.0665 0.926042,0 0.254661,0.0666 0.0463,0.121 -0.463021,0.121 -0.509323,0 -0.717682,-0.0545 -0.463021,-0.121 z m 1.736328,0.002 c 0.190995,-0.0764 0.419201,-0.067 0.507119,0.0209 0.08792,0.0879 -0.06835,0.15045 -0.347266,0.13896 -0.308226,-0.0127 -0.370919,-0.0754 -0.159853,-0.15985 z m 3.031207,-0.003 c 0.257432,-0.0671 0.614619,-0.0627 0.79375,0.01 0.179131,0.0725 -0.03149,0.12737 -0.468056,0.12197 -0.436562,-0.005 -0.583126,-0.0647 -0.325694,-0.13177 z m 1.5875,0 c 0.257431,-0.0671 0.614619,-0.0627 0.79375,0.01 0.179131,0.0725 -0.03149,0.12737 -0.468056,0.12197 -0.436563,-0.005 -0.583126,-0.0647 -0.325694,-0.13177 z m 1.46671,0.003 c 0.190994,-0.0764 0.4192,-0.067 0.507118,0.0209 0.08792,0.0879 -0.06835,0.15045 -0.347265,0.13896 -0.308227,-0.0127 -0.37092,-0.0754 -0.159853,-0.15985 z m 1.703255,-0.012 c 0.545703,-0.0571 1.438671,-0.0571 1.984375,0 0.545703,0.0571 0.09922,0.10379 -0.992188,0.10379 -1.091406,0 -1.53789,-0.0467 -0.992187,-0.10379 z m 6.349999,0.0103 c 0.254662,-0.0665 0.67138,-0.0665 0.926042,0 0.254661,0.0666 0.0463,0.121 -0.463021,0.121 -0.509323,0 -0.717682,-0.0545 -0.463021,-0.121 z m 2.513542,0.007 c 0.1819,-0.0734 0.47956,-0.0734 0.66146,0 0.1819,0.0734 0.0331,0.13345 -0.33073,0.13345 -0.3638,0 -0.512631,-0.06 -0.33073,-0.13345 z m 1.32292,0 c 0.1819,-0.0734 0.47955,-0.0734 0.66145,0 0.18191,0.0734 0.0331,0.13345 -0.33072,0.13345 -0.36381,0 -0.51263,-0.06 -0.33073,-0.13345 z m 1.33945,-0.006 c 0.19099,-0.0764 0.4192,-0.067 0.50712,0.0209 0.0879,0.0879 -0.0683,0.15045 -0.34727,0.13896 -0.30822,-0.0127 -0.37092,-0.0754 -0.15985,-0.15985 z m 1.57096,0.006 c 0.1819,-0.0734 0.47956,-0.0734 0.66146,0 0.1819,0.0734 0.0331,0.13345 -0.33073,0.13345 -0.3638,0 -0.51263,-0.06 -0.33073,-0.13345 z m 1.32292,0 c 0.1819,-0.0734 0.47956,-0.0734 0.66146,0 0.1819,0.0734 0.0331,0.13345 -0.33073,0.13345 -0.3638,0 -0.51263,-0.06 -0.33073,-0.13345 z m 3.83646,-0.007 c 0.25466,-0.0665 0.67138,-0.0665 0.92604,0 0.25466,0.0666 0.0463,0.121 -0.46302,0.121 -0.50932,0 -0.71768,-0.0545 -0.46302,-0.121 z m 3.83646,0.007 c 0.1819,-0.0734 0.47955,-0.0734 0.66145,0 0.18191,0.0734 0.0331,0.13345 -0.33072,0.13345 -0.36381,0 -0.51264,-0.06 -0.33073,-0.13345 z m -78.229632,-2.62495 c 0.0127,-0.30822 0.07539,-0.37092 0.15985,-0.15985 0.07643,0.19099 0.06703,0.4192 -0.02088,0.50712 -0.08792,0.0879 -0.150453,-0.0683 -0.138965,-0.34727 z m 38.872859,-1.69769 7.011458,-0.14554 -7.209896,-0.0595 c -4.860604,-0.0401 -7.209895,-0.15082 -7.209895,-0.33972 0,-0.15411 -0.0893,-0.22501 -0.198437,-0.15756 -0.109141,0.0675 -0.198438,-5.80919 -0.198438,-13.05921 0,-8.64091 0.09114,-13.16666 0.264583,-13.13775 0.145521,0.0243 0.231868,-0.11358 0.191881,-0.3063 -0.03998,-0.19272 0.04931,-0.27499 0.198438,-0.18282 0.149127,0.0922 0.27114,0.0493 0.27114,-0.0952 0,-0.17188 8.515288,-0.2704 24.624777,-0.28491 17.636262,-0.0159 24.574442,0.0593 24.447402,0.26481 -0.10815,0.175 0.0137,0.25428 0.3122,0.20315 0.35157,-0.0602 0.46594,0.0542 0.40574,0.40573 -0.0461,0.26927 0.0134,0.42937 0.13229,0.35578 0.1934,-0.11971 0.20386,11.42065 0.0202,22.25091 l -0.0686,4.04626 -11.50938,0.0478 -11.509372,0.0478 11.244792,0.14363 c 7.4341,0.0949 2.86127,0.1444 -13.49375,0.14593 -13.606197,0.001 -21.583384,-0.0632 -17.727082,-0.14324 z m 15.941145,-0.19751 c -1.637109,-0.0464 -4.316015,-0.0464 -5.953125,0 -1.637109,0.0464 -0.297656,0.0844 2.976563,0.0844 3.274218,0 4.613671,-0.038 2.976562,-0.0844 z m 3.830947,0.0377 c -0.08792,-0.0879 -0.316124,-0.0973 -0.507119,-0.0209 -0.211066,0.0845 -0.148373,0.14716 0.159853,0.15985 0.278913,0.0115 0.435184,-0.051 0.347266,-0.13896 z M 61.991447,169.37692 c 0,-7.20328 0.03403,-10.15008 0.07561,-6.54844 0.04158,3.60164 0.04158,9.49524 0,13.09688 -0.04158,3.60164 -0.07561,0.65484 -0.07561,-6.54844 z m -26.803753,10.84792 c 0,-0.36381 0.06005,-0.51263 0.133453,-0.33073 0.0734,0.1819 0.0734,0.47955 0,0.66146 -0.0734,0.1819 -0.133453,0.0331 -0.133453,-0.33073 z m -0.02088,-6.76893 c 0.0127,-0.30822 0.07539,-0.37092 0.159851,-0.15985 0.07643,0.191 0.06703,0.4192 -0.02088,0.50712 -0.08792,0.0879 -0.150452,-0.0684 -0.138964,-0.34727 z m 0,-7.40833 c 0.0127,-0.30823 0.07539,-0.37092 0.159851,-0.15985 0.07643,0.19099 0.06703,0.4192 -0.02088,0.50712 -0.08792,0.0879 -0.150452,-0.0684 -0.138964,-0.34727 z m 0,-7.9375 c 0.0127,-0.30823 0.07539,-0.37092 0.159851,-0.15985 0.07643,0.19099 0.06703,0.4192 -0.02088,0.50712 -0.08792,0.0879 -0.150452,-0.0684 -0.138964,-0.34727 z m 112.183336,-2.38125 c 0.0127,-0.30823 0.0754,-0.37092 0.15985,-0.15985 0.0764,0.19099 0.067,0.4192 -0.0209,0.50712 -0.0879,0.0879 -0.15045,-0.0684 -0.13896,-0.34727 z m -80.520383,-4.25422 c 0.181902,-0.0734 0.479558,-0.0734 0.661459,0 0.181901,0.0734 0.03307,0.13345 -0.330729,0.13345 -0.363802,0 -0.512631,-0.06 -0.33073,-0.13345 z m 48.947923,0 c 0.1819,-0.0734 0.47955,-0.0734 0.66145,0 0.18191,0.0734 0.0331,0.13345 -0.33073,0.13345 -0.3638,0 -0.51263,-0.06 -0.33072,-0.13345 z M 35.187694,138.94984 c 0,-0.3638 0.06005,-0.51263 0.133453,-0.33073 0.0734,0.1819 0.0734,0.47956 0,0.66146 -0.0734,0.1819 -0.133453,0.0331 -0.133453,-0.33073 z m 112.162446,-2.27101 c 0.0127,-0.30822 0.0754,-0.37092 0.15985,-0.15985 0.0764,0.19099 0.067,0.4192 -0.0209,0.50712 -0.0879,0.0879 -0.15045,-0.0684 -0.13896,-0.34727 z M 35.187694,130.74776 c 0,-0.36381 0.06005,-0.51264 0.133453,-0.33073 0.0734,0.1819 0.0734,0.47955 0,0.66145 -0.0734,0.18191 -0.133453,0.0331 -0.133453,-0.33072 z m -0.02088,-6.76893 c 0.0127,-0.30822 0.07539,-0.37092 0.159851,-0.15985 0.07643,0.19099 0.06703,0.4192 -0.02088,0.50712 -0.08792,0.0879 -0.150452,-0.0683 -0.138964,-0.34727 z m 112.204206,-3.54982 c 0,-0.36381 0.0601,-0.51263 0.13345,-0.33073 0.0734,0.1819 0.0734,0.47955 0,0.66145 -0.0734,0.18191 -0.13345,0.0331 -0.13345,-0.33072 z M 35.187694,119.37067 c 0,-0.3638 0.06005,-0.51263 0.133453,-0.33073 0.0734,0.1819 0.0734,0.47956 0,0.66146 -0.0734,0.1819 -0.133453,0.0331 -0.133453,-0.33073 z m 0.0098,-12.03854 c 0.0054,-0.43656 0.06469,-0.58312 0.131773,-0.32569 0.06708,0.25743 0.06267,0.61462 -0.0098,0.79375 -0.07248,0.17913 -0.127362,-0.0315 -0.12197,-0.46806 z m 40.644631,-5.07553 c 0.190995,-0.0764 0.4192,-0.067 0.507119,0.0209 0.08792,0.0879 -0.06835,0.15045 -0.347266,0.13896 -0.308226,-0.0127 -0.370919,-0.0754 -0.159853,-0.15985 z m 4.497916,0 c 0.190995,-0.0764 0.419201,-0.067 0.507119,0.0209 0.08792,0.0879 -0.06835,0.15045 -0.347265,0.13896 -0.308227,-0.0127 -0.37092,-0.0754 -0.159854,-0.15985 z m -6.432682,-4.430601 c -2.854923,-0.801015 -6.746874,-2.73281 -6.746874,-3.348852 0,-0.133041 -0.09812,-0.212124 -0.218049,-0.175744 -0.246771,0.07486 -3.219055,-2.839755 -3.226107,-3.163512 -0.0024,-0.115459 -0.275203,-0.466283 -0.605975,-0.779611 -0.533476,-0.505338 -1.9939,-3.150499 -2.156864,-3.906578 -0.03393,-0.157429 -0.202055,-0.629306 -0.373605,-1.048615 -1.101768,-2.692958 -1.241174,-5.647528 -0.475872,-10.085538 0.319643,-1.853615 2.27996,-6.054184 2.944336,-6.309132 0.227084,-0.08714 0.384588,-0.251044 0.350015,-0.364233 -0.03458,-0.113191 0.678696,-0.956659 1.585044,-1.874374 0.906352,-0.917716 1.64791,-1.607738 1.64791,-1.533382 0,0.07436 0.292246,-0.157049 0.649433,-0.514237 0.357187,-0.357187 0.823516,-0.649433 1.036283,-0.649433 0.21277,0 0.42654,-0.110132 0.475049,-0.244739 0.04851,-0.134607 0.266787,-0.283435 0.485068,-0.330729 0.218281,-0.04729 0.466601,-0.180412 0.55182,-0.295815 0.281983,-0.38186 4.03207,-1.563963 5.389835,-1.698985 1.192551,-0.118591 3.435863,-0.160351 5.898449,-0.109794 0.472942,0.0097 0.859896,0.129299 0.859896,0.265753 0,0.136456 0.238125,0.185833 0.529166,0.109723 0.291042,-0.07611 0.529252,-0.0352 0.529355,0.09092 10e-5,0.126113 0.282445,0.245512 0.627427,0.265334 0.851784,0.04894 3.870301,1.424702 3.870301,1.763983 0,0.149902 0.07586,0.196691 0.168572,0.103976 0.09271,-0.09272 0.52289,0.08372 0.955944,0.392088 0.793621,0.565105 4.431734,4.141975 4.431734,4.357129 0,0.06368 0.234008,0.366964 0.520017,0.67396 0.28601,0.306994 0.457576,0.659204 0.38126,0.782685 -0.07632,0.123484 -0.01572,0.224515 0.134646,0.224515 0.309264,0 0.981041,1.190895 1.120598,1.986542 0.05084,0.289848 0.187835,0.597329 0.304429,0.683284 0.116597,0.08596 0.257223,0.502676 0.3125,0.926041 0.05528,0.423368 0.12242,0.829289 0.149204,0.90205 0.02678,0.07276 0.0275,0.340651 0.0016,0.595312 -0.0259,0.254661 0.06685,0.463021 0.206126,0.463021 0.139272,0 0.268952,0.26789 0.288174,0.595312 0.01921,0.327422 0.101304,1.463265 0.182406,2.524096 0.14944,1.954734 -0.282752,5.492104 -0.702736,5.751668 -0.126103,0.07794 -0.16221,0.316484 -0.08024,0.530106 0.08198,0.21362 0.02098,0.388401 -0.135544,0.388401 -0.156522,0 -0.216053,0.178593 -0.132291,0.396875 0.08625,0.224758 0.0061,0.396875 -0.184693,0.396875 -0.185343,0 -0.26313,0.07386 -0.17286,0.164126 0.226267,0.226266 -1.340342,3.275457 -1.682856,3.275457 -0.152013,0 -0.20784,0.110916 -0.124057,0.24648 0.08378,0.135565 -0.114277,0.433221 -0.440132,0.661459 -0.325856,0.228237 -0.499848,0.414977 -0.386652,0.414977 0.240972,0 -2.447774,2.775188 -2.697514,2.78424 -0.09277,0.0034 -0.51108,0.328551 -0.929571,0.722646 -0.418489,0.394094 -0.864973,0.652205 -0.992188,0.573584 -0.127211,-0.07862 -0.231296,-0.03449 -0.231296,0.09808 0,0.300313 -3.468253,1.917814 -4.303016,2.006814 -0.337788,0.03601 -0.782831,0.169725 -0.988983,0.297135 -0.668584,0.413208 -7.142337,0.427257 -8.598625,0.01865 z m 8.995833,-2.707777 c 1.018646,-0.256797 1.94138,-0.441455 2.050521,-0.41035 0.109141,0.0311 0.198437,-0.0548 0.198437,-0.190905 0,-0.136102 0.416719,-0.398145 0.926042,-0.582319 0.509323,-0.184174 0.926042,-0.430006 0.926042,-0.546293 0,-0.116287 0.119062,-0.211431 0.264583,-0.211431 0.145521,0 0.48673,-0.20836 0.758246,-0.463021 0.271512,-0.254662 0.926356,-0.846296 1.455208,-1.314744 0.528849,-0.468447 0.961546,-0.978199 0.961546,-1.132782 0,-0.154585 0.178594,-0.349593 0.396875,-0.433355 0.218281,-0.08376 0.396875,-0.32189 0.396875,-0.529167 0,-0.20728 0.177911,-0.445143 0.395356,-0.528584 0.217445,-0.08344 0.32948,-0.2583 0.248968,-0.38857 -0.08051,-0.130273 -0.01327,-0.23686 0.149426,-0.23686 0.162697,0 0.228161,-0.109464 0.145476,-0.243253 -0.08269,-0.133789 0.02368,-0.417272 0.236368,-0.62996 0.212688,-0.21269 0.313002,-0.460414 0.222916,-0.550497 -0.09008,-0.09009 -0.05022,-0.16379 0.08859,-0.16379 0.138806,0 0.272423,-0.266129 0.296924,-0.591394 0.0245,-0.325266 0.162213,-0.630616 0.306025,-0.678553 0.143811,-0.04794 0.195894,-0.258059 0.115739,-0.46694 -0.08015,-0.208878 -0.03945,-0.37978 0.09046,-0.37978 0.129905,0 0.253807,-0.208359 0.275336,-0.463021 0.02154,-0.254661 0.09561,-0.879739 0.16464,-1.389062 0.145383,-1.07279 0.186324,-4.850762 0.06308,-5.820833 -0.04622,-0.363802 -0.23033,-1.018646 -0.409133,-1.455209 -0.178803,-0.436562 -0.343252,-1.061555 -0.365445,-1.388874 -0.0222,-0.327321 -0.136674,-0.595212 -0.254402,-0.595313 -0.117729,-1.03e-4 -0.140468,-0.11925 -0.05053,-0.264771 0.08994,-0.145521 0.05948,-0.264583 -0.06767,-0.264583 -0.220324,0 -1.231889,-1.872287 -1.127617,-2.087086 0.02742,-0.05649 -0.109135,-0.200975 -0.303467,-0.321077 -0.194331,-0.120103 -0.353327,-0.31346 -0.353327,-0.429681 0,-0.116221 -0.773906,-0.918374 -1.719791,-1.782561 -0.945886,-0.86419 -1.75948,-1.666412 -1.807986,-1.782715 -0.04851,-0.116306 -0.256868,-0.211463 -0.46302,-0.211463 -0.206156,0 -0.374828,-0.138906 -0.374828,-0.308681 0,-0.169773 -0.06947,-0.23921 -0.154376,-0.154303 -0.08491,0.08491 -0.709986,-0.119972 -1.389063,-0.455292 -4.005952,-1.978078 -8.899122,-1.929498 -13.114358,0.130204 -1.950267,0.952966 -5.259577,3.365309 -5.059875,3.688432 0.07895,0.127746 -0.133459,0.450159 -0.472022,0.716475 -0.338563,0.266314 -0.635987,0.574194 -0.660942,0.684176 -0.02495,0.109984 -0.407165,0.91667 -0.849353,1.792639 -0.442187,0.875967 -0.99728,2.333794 -1.23354,3.239614 -0.518731,1.988809 -0.578453,5.904489 -0.118454,7.766523 0.184388,0.746395 0.377251,1.579832 0.428583,1.852083 0.05133,0.272254 0.116541,0.554535 0.144907,0.627296 0.02837,0.07276 0.03748,0.221588 0.02024,0.330729 -0.01722,0.10914 0.07971,0.198437 0.215422,0.198437 0.221101,0 0.440264,0.438444 0.595151,1.190625 0.02996,0.145521 0.265395,0.490974 0.523179,0.767673 0.257786,0.276701 0.405741,0.604964 0.328789,0.729475 -0.07695,0.12451 0.04623,0.297809 0.273733,0.385111 0.227505,0.0873 0.413644,0.264673 0.413644,0.394161 0,0.317851 2.724235,2.991024 2.983926,2.927998 0.113189,-0.02748 0.274754,0.129746 0.359034,0.349377 0.08428,0.219633 0.268126,0.39933 0.408546,0.39933 0.14042,0 0.812289,0.326991 1.493046,0.726649 0.680757,0.399656 1.297271,0.733798 1.370031,0.74254 0.477089,0.05732 2.029037,0.471712 2.242447,0.59877 0.141939,0.08451 1.094439,0.200999 2.116667,0.258874 1.022225,0.05788 1.895258,0.14038 1.940068,0.183346 0.04481,0.04296 0.401999,-0.02193 0.793749,-0.144222 0.391753,-0.122285 1.545715,-0.432446 2.564361,-0.689242 z M 94.133757,95.7541 c 0.862076,-0.935709 1.476742,-1.398598 0.842684,-0.634603 -0.162075,0.195289 -0.236185,0.433414 -0.164687,0.529167 0.0715,0.09575 0.04953,0.113471 -0.04881,0.03938 -0.09834,-0.07409 -0.485298,0.133139 -0.859896,0.46051 -0.374599,0.327372 -0.270777,0.149868 0.230712,-0.394454 z M 61.041334,94.565986 c -0.329107,-0.419645 -0.319749,-0.429003 0.0999,-0.0999 0.44073,0.345644 0.580887,0.562917 0.363125,0.562917 -0.05494,0 -0.2633,-0.20836 -0.463021,-0.463021 z M 35.187694,72.804008 c 0,-0.363802 0.06005,-0.51263 0.133453,-0.330729 0.0734,0.181901 0.0734,0.479557 0,0.661458 -0.0734,0.181901 -0.133453,0.03307 -0.133453,-0.330729 z m 56.157042,-6.151562 -0.504028,-0.595313 0.595312,0.504029 c 0.327422,0.277214 0.595313,0.545105 0.595313,0.595312 0,0.211733 -0.212934,0.05542 -0.686597,-0.504028 z m 4.552977,-1.305184 c 0.07641,-0.12364 0.249769,-0.156303 0.385236,-0.07258 0.346175,0.213947 0.307197,0.297381 -0.138936,0.297381 -0.211881,0 -0.322715,-0.101161 -0.2463,-0.224803 z m -18.47987,-8.345421 c 0.475549,-0.05889 1.189924,-0.05767 1.5875,0.0027 0.397576,0.06037 0.0085,0.108551 -0.864635,0.107067 -0.873125,-0.0016 -1.198414,-0.05088 -0.722865,-0.109765 z"
         id="path45" />
      <path
         style="fill:#494949;fill-opacity:1;stroke-width:0.264583"
         d="m 62.72873,250.14099 c 15.82539,-0.0377 41.72148,-0.0377 57.54687,0 15.82539,0.0377 2.87735,0.0685 -28.773434,0.0685 -31.65078,0 -44.598826,-0.0308 -28.773436,-0.0685 z m -30.791561,-0.79376 c -0.329107,-0.41965 -0.319749,-0.429 0.0999,-0.0999 0.44073,0.34565 0.580887,0.56292 0.363125,0.56292 -0.05494,0 -0.2633,-0.20836 -0.463021,-0.46302 z m 118.831661,0.35904 c 0,-0.0572 0.18478,-0.17489 0.41062,-0.26156 0.23546,-0.0903 0.34166,-0.046 0.24896,0.10399 -0.15537,0.25141 -0.65958,0.37185 -0.65958,0.15757 z m 2.0029,-0.92437 c -0.0797,-0.12904 0.0621,-0.39693 0.31512,-0.59532 0.40644,-0.31863 0.4218,-0.31158 0.13167,0.0605 -0.18064,0.23167 -0.25009,0.49956 -0.15434,0.59532 0.0958,0.0958 0.10175,0.17409 0.0133,0.17409 -0.0884,0 -0.22602,-0.10557 -0.30577,-0.2346 z M 31.218944,247.429 c 0,-0.3638 0.06005,-0.51263 0.133453,-0.33073 0.0734,0.1819 0.0734,0.47956 0,0.66146 -0.0734,0.1819 -0.133453,0.0331 -0.133453,-0.33073 z m 32.06009,-0.99218 c 15.545974,-0.0377 40.906286,-0.0377 56.356246,10e-6 15.44996,0.0377 2.73053,0.0686 -28.265406,0.0686 -30.995936,0 -43.636814,-0.0309 -28.09084,-0.0686 z M 147.98935,144.10921 c 0,-56.171036 0.0304,-79.189557 0.0675,-51.152264 0.0371,28.037294 0.0371,73.995414 0,102.129164 -0.0371,28.13374 -0.0675,5.19414 -0.0675,-50.9769 z m 10.07738,100.44473 c -0.0779,-0.12607 0.12341,-0.45349 0.4474,-0.7276 0.58753,-0.49708 0.58786,-0.49694 0.12548,0.0523 -0.25498,0.30285 -0.38397,0.63027 -0.28664,0.7276 0.0973,0.0973 0.10462,0.17697 0.0162,0.17697 -0.0884,0 -0.22453,-0.10315 -0.30244,-0.22923 z M 31.198058,244.09966 c 0.0127,-0.30823 0.07539,-0.37092 0.159851,-0.15985 0.07643,0.19099 0.06703,0.4192 -0.02088,0.50712 -0.08792,0.0879 -0.150453,-0.0684 -0.138964,-0.34727 z m 131.102002,-2.9853 c -0.0779,-0.12607 0.12341,-0.45349 0.4474,-0.7276 0.58754,-0.49708 0.58787,-0.49695 0.12548,0.0522 -0.25498,0.30285 -0.38396,0.63027 -0.28663,0.72761 0.0973,0.0973 0.10462,0.17696 0.0162,0.17696 -0.0884,0 -0.22452,-0.10315 -0.30244,-0.22922 z M 31.198058,240.39549 c 0.0127,-0.30822 0.07539,-0.37092 0.159851,-0.15985 0.07643,0.191 0.06703,0.4192 -0.02088,0.50712 -0.08792,0.0879 -0.150453,-0.0684 -0.138964,-0.34727 z m 132.535352,-0.7393 c 0,-0.0549 0.20836,-0.2633 0.46302,-0.46302 0.41965,-0.32911 0.42901,-0.31975 0.0999,0.0999 -0.34564,0.44073 -0.56292,0.58089 -0.56292,0.36313 z M 31.218944,238.16858 c 0,-0.3638 0.06005,-0.51263 0.133453,-0.33073 0.0734,0.18191 0.0734,0.47956 0,0.66146 -0.0734,0.1819 -0.133453,0.0331 -0.133453,-0.33073 z m 128.281136,0.42927 c 0,-0.0549 0.20836,-0.2633 0.46302,-0.46302 0.41965,-0.3291 0.429,-0.31975 0.0999,0.0999 -0.34565,0.44073 -0.56292,0.58089 -0.56292,0.36312 z m 7.67292,-2.11666 c 0,-0.0549 0.20836,-0.2633 0.46302,-0.46302 0.41964,-0.32911 0.429,-0.31975 0.0999,0.0999 -0.34564,0.44073 -0.56291,0.58089 -0.56291,0.36313 z m 0.92604,-93.15032 c 0,-50.694689 0.0875,-92.0347 0.19438,-91.866697 0.24462,0.384394 0.23015,182.969117 -0.0145,183.585697 -0.0989,0.24923 -0.17983,-41.02432 -0.17983,-91.719 z M 31.198058,212.08508 c 0.0127,-0.30823 0.07539,-0.37092 0.159851,-0.15985 0.07643,0.19099 0.06703,0.4192 -0.02088,0.50711 -0.08792,0.0879 -0.150453,-0.0684 -0.138964,-0.34726 z m 65.546165,-24.63265 c 0.190995,-0.0764 0.419201,-0.067 0.507119,0.0209 0.08792,0.0879 -0.06835,0.15045 -0.347266,0.13896 -0.308226,-0.0127 -0.370919,-0.0754 -0.159853,-0.15985 z m 11.497877,-0.003 c 0.25743,-0.0671 0.61462,-0.0627 0.79375,0.01 0.17913,0.0725 -0.0315,0.12736 -0.46806,0.12197 -0.43656,-0.005 -0.58313,-0.0647 -0.32569,-0.13177 z m 7.14375,0 c 0.25743,-0.0671 0.61461,-0.0627 0.79375,0.01 0.17913,0.0725 -0.0315,0.12736 -0.46806,0.12197 -0.43656,-0.005 -0.58313,-0.0647 -0.32569,-0.13177 z m -84.147298,-2.19786 c 0,-0.50932 0.05445,-0.71768 0.121002,-0.46302 0.06655,0.25466 0.06655,0.67138 0,0.92604 -0.06655,0.25466 -0.121002,0.0463 -0.121002,-0.46302 z m 34.721465,-15.875 c 0,-7.05776 0.0341,-9.94503 0.07578,-6.41615 0.04168,3.52888 0.04168,9.30342 0,12.8323 -0.04168,3.52888 -0.07578,0.64161 -0.07578,-6.41615 z M 31.198058,153.083 c 0.0127,-0.30823 0.07539,-0.37092 0.159851,-0.15986 0.07643,0.191 0.06703,0.41921 -0.02088,0.50712 -0.08792,0.0879 -0.150453,-0.0684 -0.138964,-0.34726 z m 88.457092,-0.17639 -0.50403,-0.59531 0.59532,0.50402 c 0.55944,0.47367 0.71576,0.6866 0.50402,0.6866 -0.0502,0 -0.31809,-0.26789 -0.59531,-0.59531 z m -40.145355,-1.45513 c 6.573829,-0.0394 17.408516,-0.0394 24.077085,-3e-5 6.66856,0.0394 1.28997,0.0716 -11.952422,0.0716 -13.242395,10e-6 -18.698495,-0.0322 -12.124663,-0.0716 z M 31.198058,134.033 c 0.0127,-0.30823 0.07539,-0.37092 0.159851,-0.15985 0.07643,0.19099 0.06703,0.4192 -0.02088,0.50711 -0.08792,0.0879 -0.150453,-0.0683 -0.138964,-0.34726 z m 0,-10.58333 c 0.0127,-0.30823 0.07539,-0.37092 0.159851,-0.15986 0.07643,0.191 0.06703,0.4192 -0.02088,0.50712 -0.08792,0.0879 -0.150453,-0.0684 -0.138964,-0.34726 z m 0.02089,-4.079 c 0,-0.3638 0.06005,-0.51263 0.133453,-0.33073 0.0734,0.1819 0.0734,0.47956 0,0.66146 -0.0734,0.1819 -0.133453,0.0331 -0.133453,-0.33073 z m -0.02088,-12.58975 c 0.0127,-0.30823 0.07539,-0.37092 0.15985,-0.15986 0.07643,0.191 0.06703,0.4192 -0.02088,0.50712 -0.08792,0.0879 -0.150453,-0.0683 -0.138965,-0.34726 z m 48.348238,-4.52432 c 0.190995,-0.0764 0.419201,-0.067 0.507119,0.0209 0.08792,0.0879 -0.06835,0.15045 -0.347265,0.13896 -0.308227,-0.0127 -0.37092,-0.0754 -0.159854,-0.15985 z m -2.133203,-3.97941 c 0.472943,-0.05869 1.246849,-0.05869 1.719792,0 0.472943,0.05869 0.08599,0.106715 -0.859896,0.106715 -0.945885,0 -1.332838,-0.04802 -0.859896,-0.106715 z m -15.16404,-2.520579 -0.777105,-0.859896 0.859896,0.777105 c 0.472943,0.427408 0.859896,0.814361 0.859896,0.859896 0,0.204407 -0.218316,0.02445 -0.942687,-0.777105 z m 14.65141,-0.114594 c 0.190995,-0.07643 0.419201,-0.06703 0.507119,0.02088 0.08792,0.08792 -0.06835,0.150453 -0.347266,0.138964 -0.308226,-0.0127 -0.370919,-0.07539 -0.159853,-0.15985 z m 2.629297,0.0055 c 0.181901,-0.0734 0.479557,-0.0734 0.661458,0 0.181901,0.0734 0.03307,0.133453 -0.330729,0.133453 -0.363802,0 -0.51263,-0.06006 -0.330729,-0.133453 z M 65.010084,92.978486 c -0.329107,-0.419645 -0.319749,-0.429003 0.0999,-0.0999 0.254661,0.199721 0.463021,0.40808 0.463021,0.463021 0,0.217763 -0.217273,0.07761 -0.562917,-0.363125 z m 23.713957,-1.124479 c 0.26339,-0.291042 0.538422,-0.529167 0.611182,-0.529167 0.07276,0 -0.08321,0.238125 -0.346598,0.529167 -0.26339,0.291042 -0.538422,0.529167 -0.611183,0.529167 -0.07276,0 0.08321,-0.238125 0.346599,-0.529167 z m 0.926042,-0.893646 c 0,-0.05494 0.208359,-0.2633 0.463021,-0.463021 0.419645,-0.329107 0.429003,-0.319749 0.0999,0.0999 -0.345644,0.44073 -0.562917,0.580888 -0.562917,0.363125 z m 6.900055,-8.52111 c 0.0127,-0.308226 0.07539,-0.370919 0.159851,-0.159853 0.07643,0.190995 0.06703,0.419201 -0.02088,0.507119 -0.08792,0.08792 -0.150453,-0.06835 -0.138964,-0.347266 z m -2.645833,-0.79375 c 0.0127,-0.308226 0.07539,-0.370919 0.159851,-0.159853 0.07643,0.190995 0.06703,0.419201 -0.02088,0.507119 -0.08792,0.08792 -0.150453,-0.06835 -0.138965,-0.347266 z m -38.33389,-0.507118 c 0.0054,-0.436563 0.06469,-0.583126 0.131773,-0.325695 0.06708,0.257432 0.06267,0.61462 -0.0098,0.79375 -0.07248,0.179131 -0.127362,-0.03149 -0.12197,-0.468055 z m 3.958944,0.132291 c 0,-0.363802 0.06006,-0.51263 0.133454,-0.330729 0.0734,0.181901 0.0734,0.479557 0,0.661458 -0.0734,0.181901 -0.133454,0.03307 -0.133454,-0.330729 z m 3.734454,-1.5875 c 0,-0.654843 0.0516,-0.922734 0.114662,-0.595312 0.06307,0.327422 0.06307,0.863203 0,1.190625 -0.06306,0.327422 -0.114662,0.05953 -0.114662,-0.595313 z m -3.734454,-1.852083 c 0,-0.363802 0.06006,-0.51263 0.133454,-0.330729 0.0734,0.181901 0.0734,0.479557 0,0.661458 -0.0734,0.181901 -0.133454,0.03307 -0.133454,-0.330729 z m 34.395832,-0.264583 c 0,-0.363802 0.06006,-0.51263 0.133453,-0.330729 0.0734,0.181901 0.0734,0.479557 0,0.661458 -0.0734,0.181901 -0.133453,0.03307 -0.133453,-0.330729 z m 2.624947,-0.418923 c 0.0127,-0.308226 0.07539,-0.370919 0.159851,-0.159853 0.07643,0.190994 0.06703,0.419198 -0.02088,0.507119 -0.08792,0.08792 -0.150453,-0.06835 -0.138964,-0.347266 z m -65.35208,-3.175 c 0.0127,-0.308226 0.07539,-0.370919 0.159851,-0.159853 0.07643,0.190995 0.06703,0.419198 -0.02088,0.507119 -0.08792,0.08792 -0.150453,-0.06835 -0.138964,-0.347266 z m 0.04049,-1.962327 c 0,-0.509323 0.05445,-0.717682 0.121002,-0.463021 0.06655,0.254662 0.06655,0.67138 0,0.926042 -0.06655,0.254661 -0.121002,0.0463 -0.121002,-0.463021 z m 35.921949,-2.993207 c 0,-0.04554 0.386953,-0.432488 0.859895,-0.859896 l 0.859896,-0.777105 -0.777105,0.859896 c -0.724371,0.801544 -0.942686,0.981511 -0.942686,0.777105 z m -2.513542,-2.298459 c 0.568389,-0.582084 1.092967,-1.058334 1.165728,-1.058334 0.07276,0 -0.332756,0.47625 -0.901145,1.058334 -0.568388,0.582083 -1.092967,1.058333 -1.165727,1.058333 -0.07276,0 0.332756,-0.47625 0.901144,-1.058333 z m 25.763124,-0.992188 c -0.329108,-0.419645 -0.319749,-0.429003 0.0999,-0.0999 0.254661,0.199721 0.46302,0.40808 0.46302,0.463021 0,0.217763 -0.217273,0.07761 -0.562916,-0.363125 z M 76.900474,63.892019 c 0.190995,-0.07643 0.419201,-0.06703 0.507119,0.02088 0.08792,0.08792 -0.06835,0.150453 -0.347266,0.138965 -0.308226,-0.0127 -0.370919,-0.07539 -0.159853,-0.159851 z m 3.158464,0.0055 c 0.181901,-0.0734 0.479557,-0.0734 0.661458,0 0.181901,0.0734 0.03307,0.133453 -0.330729,0.133453 -0.363802,0 -0.512631,-0.06005 -0.330729,-0.133453 z m -3.952214,-2.651344 c 0.190995,-0.07643 0.419201,-0.06703 0.507119,0.02087 0.08792,0.08792 -0.06835,0.150453 -0.347266,0.138965 -0.308226,-0.0127 -0.370919,-0.07539 -0.159853,-0.159851 z m 3.96875,0 c 0.190995,-0.07643 0.4192,-0.06703 0.507119,0.02087 0.08792,0.08792 -0.06835,0.150453 -0.347266,0.138965 -0.308226,-0.0127 -0.370919,-0.07539 -0.159853,-0.159851 z M 166.3455,49.322238 c -0.32911,-0.419645 -0.31975,-0.429003 0.0999,-0.0999 0.44073,0.345644 0.58089,0.562917 0.36313,0.562917 -0.0549,0 -0.2633,-0.208359 -0.46302,-0.463021 z m -1.30166,-0.927356 c -0.37068,-0.3267 -0.52472,-0.494451 -0.34233,-0.372782 0.1824,0.121668 0.48568,0.132344 0.67396,0.02373 0.18827,-0.108617 0.25405,-0.100058 0.14618,0.01902 -0.10788,0.119081 -0.0635,0.376296 0.0985,0.571585 0.44461,0.535731 0.17948,0.424609 -0.57635,-0.241554 z m -6.05338,-4.274608 c -0.23871,-0.287626 -0.23096,-0.418833 0.0337,-0.571588 0.18897,-0.109045 0.25531,-0.100835 0.14744,0.01826 -0.10788,0.119081 -0.0635,0.376295 0.0985,0.571584 0.16207,0.195292 0.23515,0.355074 0.16239,0.355074 -0.0728,0 -0.27171,-0.167995 -0.44212,-0.37332 z m -3.49288,-2.470952 c -0.32911,-0.419645 -0.31975,-0.429003 0.0999,-0.0999 0.44073,0.345644 0.58088,0.562917 0.36312,0.562917 -0.0549,0 -0.2633,-0.20836 -0.46302,-0.463021 z M 31.198058,41.164253 c 0.0127,-0.308226 0.07539,-0.370919 0.159851,-0.159853 0.07643,0.190995 0.06703,0.419198 -0.02088,0.507119 -0.08792,0.08792 -0.150453,-0.06835 -0.138964,-0.347266 z M 154.43925,40.855572 c -0.32911,-0.419645 -0.31975,-0.429003 0.0999,-0.0999 0.44073,0.345644 0.58089,0.562917 0.36313,0.562917 -0.0549,0 -0.2633,-0.20836 -0.46302,-0.463021 z M 31.441752,39.816196 c 0,-0.147219 0.267891,-0.494485 0.595313,-0.771699 l 0.595312,-0.504029 -0.526346,0.661458 c -0.289491,0.363802 -0.557382,0.711068 -0.595312,0.771703 -0.03793,0.06063 -0.06897,-0.01021 -0.06897,-0.157433 z M 151.56258,38.937343 c -0.23847,-0.154109 -0.2711,-0.258098 -0.0818,-0.260533 0.17331,-0.0021 0.3887,0.115012 0.47863,0.260533 0.20302,0.328488 0.11143,0.328488 -0.39687,0 z M 33.889148,38.225791 c 0.254662,-0.06655 0.67138,-0.06655 0.926042,0 0.254661,0.06655 0.0463,0.121002 -0.463021,0.121002 -0.509323,0 -0.717682,-0.05445 -0.463021,-0.121002 z m 12.848828,0.0016 c 0.190994,-0.07643 0.4192,-0.06703 0.507119,0.02088 0.08792,0.08792 -0.06835,0.150453 -0.347266,0.138965 -0.308226,-0.0127 -0.370919,-0.07539 -0.159853,-0.159851 z m 15.593879,0.0055 c 0.181901,-0.0734 0.479557,-0.0734 0.661458,0 0.181901,0.0734 0.03307,0.133453 -0.330729,0.133453 -0.363802,0 -0.51263,-0.06005 -0.330729,-0.133453 z m 2.253993,-0.0081 c 0.257432,-0.06708 0.614619,-0.06267 0.79375,0.0098 0.179131,0.07248 -0.03149,0.127362 -0.468056,0.12197 -0.436562,-0.0054 -0.583125,-0.06469 -0.325694,-0.131773 z m 38.359542,0.0011 c 0.25467,-0.06655 0.67138,-0.06655 0.92605,0 0.25466,0.06655 0.0463,0.121001 -0.46302,0.121001 -0.50933,0 -0.71769,-0.05445 -0.46303,-0.121001 z m 1.73633,0.0016 c 0.191,-0.07643 0.4192,-0.06703 0.50712,0.02088 0.0879,0.08792 -0.0683,0.150452 -0.34726,0.138964 -0.30823,-0.0127 -0.37092,-0.07539 -0.15986,-0.159851 z m 6.35,0 c 0.191,-0.07643 0.4192,-0.06703 0.50712,0.02088 0.0879,0.08792 -0.0683,0.150452 -0.34726,0.138964 -0.30823,-0.0127 -0.37092,-0.07539 -0.15986,-0.159851 z m 18.76888,0.0055 c 0.1819,-0.0734 0.47956,-0.0734 0.66146,0 0.1819,0.0734 0.0331,0.133454 -0.33073,0.133454 -0.3638,0 -0.51263,-0.06006 -0.33073,-0.133454 z m 8.4832,-0.0055 c 0.191,-0.07643 0.4192,-0.06703 0.50712,0.02088 0.0879,0.08792 -0.0684,0.150452 -0.34726,0.138964 -0.30823,-0.0127 -0.37092,-0.07539 -0.15986,-0.159851 z m 7.79371,-0.0026 c 0.25743,-0.06708 0.61462,-0.06267 0.79375,0.0098 0.17913,0.07248 -0.0315,0.127362 -0.46805,0.12197 -0.43657,-0.0054 -0.58313,-0.06469 -0.3257,-0.131773 z m 3.175,0 c 0.25743,-0.06708 0.61462,-0.06267 0.79375,0.0098 0.17913,0.07248 -0.0315,0.127362 -0.46806,0.12197 -0.43656,-0.0054 -0.58312,-0.06469 -0.32569,-0.131773 z"
         id="path43" />
      <path
         style="fill:#333333;fill-opacity:1;stroke-width:0.264583"
         d="m 32.586202,250.21888 c -0.46196,-0.20146 -1.057272,-0.698 -1.322916,-1.10343 -0.465529,-0.71049 -0.482992,-4.49677 -0.482992,-104.73002 0,-91.91488 0.04609,-104.083517 0.396875,-104.773281 0.218281,-0.42922 0.813594,-1.024532 1.322917,-1.322916 0.925007,-0.541909 0.99075,-0.542592 58.859562,-0.612169 48.164772,-0.05791 58.140092,-0.0091 59.158592,0.289462 1.31212,0.384638 8.54789,5.365197 8.32306,5.728975 -0.071,0.114932 0.0779,0.371284 0.33096,0.569674 0.41637,0.326417 0.42559,0.316691 0.097,-0.102311 -0.67025,-0.854628 -0.0146,-0.476679 3.62355,2.088676 4.18712,2.95248 4.85432,3.511505 4.62804,3.877643 -0.0914,0.147931 -0.034,0.186018 0.12882,0.0854 0.16161,-0.09988 0.47817,0.09972 0.70346,0.443558 0.36812,0.561824 0.40281,9.970113 0.34235,92.862489 l -0.0673,92.23732 -0.92604,0.96512 c -1.14755,1.19597 -4.90025,4.35593 -5.17301,4.35593 -0.11037,0 0.0261,-0.26789 0.30336,-0.59531 l 0.50403,-0.59532 -0.58908,0.49839 c -0.32399,0.27411 -0.53082,0.59263 -0.45962,0.70783 0.12856,0.20802 -3.6271,3.42399 -3.99859,3.42399 -0.10676,0 0.0327,-0.26789 0.30993,-0.59531 l 0.50402,-0.59531 -0.58907,0.49838 c -0.32399,0.27411 -0.53302,0.58907 -0.46451,0.69992 0.1205,0.19498 -4.70006,4.22566 -5.05376,4.22566 -0.0963,0 -0.0118,-0.20836 0.18797,-0.46302 0.3286,-0.41901 0.31938,-0.42873 -0.097,-0.10232 -0.25306,0.19839 -0.39765,0.46178 -0.3213,0.58532 0.0764,0.12353 -0.36274,0.55652 -0.97576,0.9622 l -1.11457,0.73761 -58.624546,0.0567 c -49.445233,0.0478 -58.75606,-5.3e-4 -59.464472,-0.30956 z m 87.689398,-0.0779 c -15.82539,-0.0377 -41.72148,-0.0377 -57.54687,0 -15.82539,0.0377 -2.877344,0.0685 28.773436,0.0685 31.650784,0 44.598824,-0.0308 28.773434,-0.0685 z m -87.775514,-0.43064 c 0,-0.0549 -0.20836,-0.2633 -0.463021,-0.46302 -0.419645,-0.3291 -0.429003,-0.31975 -0.0999,0.0999 0.345644,0.44073 0.562917,0.58089 0.562917,0.36312 z M 151.42841,249.5487 c 0.0927,-0.14999 -0.0135,-0.19434 -0.24896,-0.10399 -0.45837,0.17589 -0.54224,0.36554 -0.16165,0.36554 0.13693,0 0.32171,-0.1177 0.41061,-0.26155 z M 31.352397,247.09827 c -0.0734,-0.1819 -0.133453,-0.0331 -0.133453,0.33073 0,0.3638 0.06005,0.51263 0.133453,0.33073 0.0734,-0.1819 0.0734,-0.47956 0,-0.66146 z M 148.123,144.2415 V 41.847759 H 91.369874 34.616752 V 144.2415 246.63525 H 91.369874 148.123 Z m -82.951793,42.75837 c -1.079211,-0.47024 -2.420506,-2.04809 -2.775444,-3.26492 -0.199615,-0.68434 -0.265526,-5.35475 -0.210371,-14.90678 l 0.08032,-13.9102 0.710147,-1.07285 c 0.427641,-0.64605 1.171337,-1.2961 1.869472,-1.63406 1.157001,-0.5601 1.210879,-0.56122 26.85544,-0.56122 17.512149,0 25.933329,0.0896 26.440939,0.28141 1.05892,0.40009 2.18644,1.52946 2.75676,2.7613 0.45648,0.98596 0.49039,1.98331 0.4958,14.58496 0.005,11.49032 -0.0553,13.69978 -0.40001,14.67684 -0.48629,1.37831 -1.23767,2.23258 -2.5602,2.91082 -0.94549,0.48487 -1.92975,0.50303 -26.722912,0.49306 -20.675393,-0.008 -25.898448,-0.0788 -26.539938,-0.35836 z m 51.776273,-4.03792 c 0.45634,-0.41298 0.48385,-1.18287 0.48385,-13.53906 0,-11.81949 -0.0428,-13.14851 -0.43788,-13.58503 -0.41828,-0.4622 -1.5484,-0.48386 -25.248505,-0.48386 H 66.934324 l -0.54837,0.69714 c -0.537374,0.68317 -0.54837,0.95036 -0.54837,13.32578 0,12.37542 0.01101,12.64261 0.54837,13.32578 l 0.54837,0.69714 h 24.76465 c 22.672466,0 24.805526,-0.037 25.248506,-0.43789 z M 75.261412,102.13664 c -4.38286,-0.56265 -8.924821,-2.74948 -12.286974,-5.915855 -4.259006,-4.011003 -6.55016,-8.596931 -7.187133,-14.385614 -1.459281,-13.261686 8.927747,-24.641579 22.491672,-24.641579 8.488002,0 16.432275,4.954135 20.102035,12.535844 4.142748,8.558903 2.691928,18.621014 -3.65498,25.349074 -3.857117,4.088749 -8.399647,6.37537 -14.064842,7.07998 -2.501892,0.31117 -2.815487,0.3099 -5.399778,-0.0219 z m 7.641796,-4.332628 C 89.441329,96.113484 94.862634,90.619993 96.391079,84.136545 96.96234,81.71333 96.908283,77.569487 96.273006,75.085573 95.104648,70.517339 91.758248,66.035607 87.798,63.735259 81.157694,59.878173 72.566962,60.49243 66.360652,65.268074 c -4.170786,3.209348 -6.873068,8.824915 -6.873068,14.282809 0,5.415848 2.705442,11.078513 7.011458,14.675434 2.231015,1.863619 5.927744,3.510973 8.965988,3.995464 1.824334,0.290918 5.494586,0.08478 7.438178,-0.417769 z M 76.817792,95.648095 C 71.138577,94.824008 66.288797,90.777513 64.335693,85.233452 c -0.912522,-2.590281 -1.133687,-6.675598 -0.506101,-9.34866 1.625344,-6.922788 7.765161,-11.898616 14.707991,-11.91964 6.856648,-0.02077 12.500401,4.027326 14.720615,10.558648 0.619275,1.821756 0.719269,2.5406 0.717682,5.159374 -0.0016,2.643526 -0.100341,3.332626 -0.752607,5.252569 -2.148126,6.322986 -7.150137,10.20995 -13.759648,10.692355 -1.018646,0.07435 -2.209271,0.08335 -2.645833,0.02 z m 81.857068,143.716085 6.38147,-5.2867 V 143.27751 52.477543 l -1.78594,-1.271924 c -0.98226,-0.699556 -3.89852,-2.853132 -6.48057,-4.785725 -2.58206,-1.93259 -4.72518,-3.513801 -4.7625,-3.513801 -0.0373,0 -0.0679,45.422341 -0.0679,100.938537 0,55.51619 0.0751,100.90877 0.16698,100.87239 0.0918,-0.0364 3.03863,-2.44516 6.54843,-5.35284 z m -127.316951,4.57563 c -0.08446,-0.21107 -0.147156,-0.14838 -0.159851,0.15985 -0.01148,0.27891 0.05105,0.43518 0.138964,0.34727 0.08792,-0.0879 0.09732,-0.31613 0.02088,-0.50712 z m 0,-3.70417 c -0.08446,-0.21107 -0.147156,-0.14837 -0.159851,0.15985 -0.01148,0.27892 0.05105,0.43519 0.138964,0.34727 0.08792,-0.0879 0.09732,-0.31612 0.02088,-0.50712 z m 132.938421,-0.94258 c 0.32911,-0.41964 0.31975,-0.429 -0.0999,-0.0999 -0.25466,0.19972 -0.46302,0.40808 -0.46302,0.46302 0,0.21776 0.21728,0.0776 0.56292,-0.36313 z M 31.352397,237.83785 c -0.0734,-0.1819 -0.133453,-0.0331 -0.133453,0.33073 0,0.36381 0.06005,0.51263 0.133453,0.33073 0.0734,-0.1819 0.0734,-0.47955 0,-0.66146 z m 136.383513,-1.71979 c 0.32911,-0.41964 0.31975,-0.429 -0.0999,-0.0999 -0.25466,0.19972 -0.46302,0.40808 -0.46302,0.46302 0,0.21776 0.21727,0.0776 0.56291,-0.36313 z m 0.73735,-92.93489 c 0.008,-50.277444 -0.0729,-91.550992 -0.17984,-91.718997 -0.10691,-0.168003 -0.19438,41.172008 -0.19438,91.866697 0,50.69468 0.0809,91.96823 0.17984,91.719 0.0989,-0.24924 0.18639,-41.58925 0.19438,-91.8667 z M 31.357909,211.92523 c -0.08446,-0.21107 -0.147156,-0.14838 -0.159851,0.15985 -0.01148,0.27891 0.05105,0.43518 0.138964,0.34726 0.08792,-0.0879 0.09732,-0.31612 0.02088,-0.50711 z m 0.0016,-27.13633 c -0.06655,-0.25466 -0.121002,-0.0463 -0.121002,0.46302 0,0.50932 0.05445,0.71768 0.121002,0.46302 0.06655,-0.25466 0.06655,-0.67138 0,-0.92604 z m -0.0016,-31.86576 c -0.08446,-0.21106 -0.147156,-0.14837 -0.159851,0.15986 -0.01148,0.27891 0.05105,0.43518 0.138964,0.34726 0.08792,-0.0879 0.09732,-0.31612 0.02088,-0.50712 z m 0,-19.04999 c -0.08446,-0.21107 -0.147156,-0.14838 -0.159851,0.15985 -0.01148,0.27891 0.05105,0.43518 0.138964,0.34726 0.08792,-0.0879 0.09732,-0.31612 0.02088,-0.50711 z m 0,-10.58334 c -0.08446,-0.21106 -0.147156,-0.14837 -0.159851,0.15986 -0.01148,0.27891 0.05105,0.43518 0.138964,0.34726 0.08792,-0.0879 0.09732,-0.31612 0.02088,-0.50712 z m -0.0055,-4.24987 c -0.0734,-0.1819 -0.133453,-0.0331 -0.133453,0.33073 0,0.3638 0.06005,0.51263 0.133453,0.33073 0.0734,-0.1819 0.0734,-0.47956 0,-0.66146 z m 0.0055,-12.41888 c -0.08446,-0.21106 -0.147156,-0.14837 -0.159851,0.15986 -0.01148,0.27891 0.05105,0.43518 0.138964,0.34726 0.08792,-0.0879 0.09732,-0.31612 0.02088,-0.50712 z m 0,-32.808328 c -0.08446,-0.211066 -0.147156,-0.148373 -0.159851,0.159853 -0.01148,0.278913 0.05105,0.435184 0.138964,0.347266 0.08792,-0.08792 0.09732,-0.316124 0.02088,-0.507119 z m 0.0016,-2.265495 c -0.06655,-0.254661 -0.121002,-0.0463 -0.121002,0.463021 0,0.509323 0.05445,0.717682 0.121002,0.463021 0.06655,-0.254662 0.06655,-0.67138 0,-0.926042 z M 166.90841,49.685363 c 0,-0.05494 -0.20836,-0.2633 -0.46302,-0.463021 -0.41964,-0.329107 -0.429,-0.319749 -0.0999,0.0999 0.34564,0.44073 0.56291,0.580888 0.56291,0.363125 z m -1.05833,-0.80813 c 0,-0.06285 -0.38695,-0.370345 -0.8599,-0.683324 l -0.85989,-0.569049 0.79375,0.682011 c 0.814,0.699407 0.92604,0.768416 0.92604,0.570362 z m -9.78958,-6.864786 c 0,-0.05494 -0.20836,-0.2633 -0.46302,-0.463021 -0.41965,-0.329107 -0.42901,-0.319749 -0.0999,0.0999 0.34564,0.44073 0.56292,0.580887 0.56292,0.363125 z M 31.357909,41.0044 c -0.08446,-0.211066 -0.147156,-0.148373 -0.159851,0.159853 -0.01148,0.278914 0.05105,0.435184 0.138964,0.347266 0.08792,-0.08792 0.09732,-0.316124 0.02088,-0.507119 z m 123.644251,0.214297 c 0,-0.05494 -0.20836,-0.2633 -0.46302,-0.463021 -0.41964,-0.329107 -0.429,-0.319749 -0.0999,0.0999 0.34564,0.44073 0.56291,0.580887 0.56291,0.363125 z m -122.896129,-2.016771 0.526346,-0.661458 -0.595312,0.504029 c -0.327422,0.277214 -0.595313,0.62448 -0.595313,0.771699 0,0.147222 0.03104,0.218064 0.06897,0.157433 0.03793,-0.06064 0.305821,-0.407901 0.595312,-0.771703 z M 151.95945,38.937343 c -0.0899,-0.145521 -0.30532,-0.26276 -0.47863,-0.260533 -0.18934,0.0024 -0.15671,0.106424 0.0818,0.260533 0.5083,0.328488 0.59989,0.328488 0.39687,0 z M 34.81519,38.225791 c -0.254662,-0.06655 -0.67138,-0.06655 -0.926042,0 -0.254661,0.06655 -0.0463,0.121002 0.463021,0.121002 0.509323,0 0.717682,-0.05445 0.463021,-0.121002 z m 12.429905,0.02254 c -0.08792,-0.08792 -0.316125,-0.09732 -0.507119,-0.02088 -0.211066,0.08446 -0.148373,0.147156 0.159853,0.159851 0.278913,0.01148 0.435184,-0.05104 0.347266,-0.138965 z m 15.748218,-0.01537 c -0.181901,-0.0734 -0.479557,-0.0734 -0.661458,0 -0.181901,0.0734 -0.03307,0.133453 0.330729,0.133453 0.363802,0 0.51263,-0.06005 0.330729,-0.133453 z m 2.386285,0.0016 c -0.179131,-0.07248 -0.536318,-0.07689 -0.79375,-0.0098 -0.257431,0.06708 -0.110868,0.126381 0.325694,0.131773 0.436563,0.0054 0.647187,-0.04949 0.468056,-0.12197 z m 38.491842,-0.0088 c -0.25467,-0.06655 -0.67138,-0.06655 -0.92605,0 -0.25466,0.06655 -0.0463,0.121002 0.46303,0.121002 0.50932,0 0.71768,-0.05445 0.46302,-0.121002 z m 1.3174,0.02254 c -0.0879,-0.08792 -0.31612,-0.09732 -0.50712,-0.02088 -0.21106,0.08446 -0.14837,0.147156 0.15986,0.159851 0.27891,0.01148 0.43518,-0.05104 0.34726,-0.138965 z m 6.35,0 c -0.0879,-0.08792 -0.31612,-0.09732 -0.50712,-0.02088 -0.21106,0.08446 -0.14837,0.147156 0.15986,0.159851 0.27891,0.01148 0.43518,-0.05104 0.34726,-0.138965 z m 18.92322,-0.01537 c -0.1819,-0.0734 -0.47956,-0.0734 -0.66146,0 -0.1819,0.0734 -0.0331,0.133453 0.33073,0.133453 0.3638,0 0.51263,-0.06005 0.33073,-0.133453 z m 8.32886,0.01537 c -0.0879,-0.08792 -0.31612,-0.09732 -0.50712,-0.02088 -0.21106,0.08446 -0.14837,0.147156 0.15986,0.159851 0.27891,0.01148 0.43518,-0.05104 0.34726,-0.138965 z m 8.08034,-0.01371 c -0.17913,-0.07247 -0.53632,-0.07688 -0.79375,-0.0098 -0.25743,0.06708 -0.11087,0.12638 0.3257,0.131773 0.43656,0.0054 0.64718,-0.04949 0.46805,-0.121971 z m 3.175,0 c -0.17913,-0.07247 -0.53632,-0.07688 -0.79375,-0.0098 -0.25743,0.06708 -0.11087,0.12638 0.32569,0.131773 0.43657,0.0054 0.64719,-0.04949 0.46806,-0.121971 z"
         id="path41" />
    </g>
  </g>
</svg>
