<svg width="210mm" height="297mm" viewBox="0 0 210 297" xmlns="http://www.w3.org/2000/svg"><path style="fill:#d0d0d0;fill-opacity:1;stroke-width:.146759" d="M122.031 121.931c0-.03.116-.146.257-.257.233-.182.238-.177.055.056-.192.244-.312.322-.312.201zm6.017-5.87c0-.03.116-.146.257-.257.233-.182.238-.177.055.055-.191.245-.312.323-.312.202zm-3.229-2.055c0-.03.116-.146.257-.257.233-.182.238-.177.056.056-.192.244-.313.322-.313.201z" transform="translate(.356 -12.851)"/><path style="fill:#b9b9b9;fill-opacity:1;stroke-width:.146759" d="M87.8 215.521c.1-.04.265-.04.366 0 .101.041.019.074-.183.074-.202 0-.284-.033-.184-.074zm1.33-.003c.105-.042.232-.037.28.012.05.049-.037.083-.192.077-.17-.007-.206-.042-.089-.089zm32.935-64.473c0-.283.03-.398.067-.257.037.141.037.372 0 .514-.037.14-.067.025-.067-.257zm0-1.027c0-.283.03-.399.067-.257.037.141.037.372 0 .513-.037.142-.067.026-.067-.256zm-8.133-29.012c.106-.043.232-.037.281.011.049.05-.038.084-.193.078-.17-.007-.205-.042-.088-.09zm.587 0c.106-.043.232-.037.281.011.049.05-.038.084-.193.078-.17-.007-.205-.042-.088-.09zm17.051-8.32c0-.031.116-.147.257-.257.233-.183.238-.178.055.055-.191.244-.312.322-.312.201z" transform="translate(.356 -12.851)"/><path style="fill:#a3a3a3;fill-opacity:1;stroke-width:.146759" d="M88.463 215.517a.844.844 0 0 1 .44.005c.1.04-.017.07-.26.068-.242-.003-.323-.036-.18-.074zm33.58-66.172c.007-.171.041-.206.088-.089.043.106.037.233-.011.281-.05.05-.084-.037-.077-.192zm-16.449-.706c0-.032.102-.097.228-.145.13-.05.19-.026.138.058-.086.14-.366.206-.366.087zm19.841-.31c.003-.241.036-.323.073-.18a.844.844 0 0 1-.005.44c-.04.1-.07-.017-.068-.26zm-10.045-23.504c.101-.041.266-.041.367 0 .1.04.018.074-.183.074-.202 0-.285-.034-.184-.074zm9.43-1.133c0-.03.115-.146.256-.256.233-.183.238-.178.056.055-.192.244-.313.322-.313.201zm-2.202-2.348c0-.03.116-.146.257-.257.233-.182.238-.177.055.056-.192.244-.312.322-.312.201z" transform="translate(.356 -12.851)"/><path style="fill:#8c8c8c;fill-opacity:1;stroke-width:.146759" d="M122.043 151.84c.007-.171.041-.206.088-.089.043.106.037.233-.011.281-.05.05-.084-.038-.077-.192zm3.407-2.41c0-.443.028-.625.061-.403.034.222.034.585 0 .807-.033.222-.06.04-.06-.403zm-3.407-.525c.007-.171.041-.206.088-.09.043.107.037.233-.011.282-.05.049-.084-.038-.077-.192z" transform="translate(.356 -12.851)"/><path style="fill:#767676;fill-opacity:1;stroke-width:.146759" d="M125.457 151.265c0-.646.026-.892.057-.546.031.345.03.873-.001 1.174-.031.3-.057.018-.056-.628zm-15.497-26.147c.101-.04.266-.04.367 0 .1.04.018.074-.184.074-.201 0-.284-.033-.183-.074zm14.42-.985c0-.03.115-.146.256-.257.233-.183.238-.178.055.055-.191.245-.312.322-.312.202zm8.29-12.566c.147-.162.3-.294.34-.294.04 0-.046.132-.192.294-.146.161-.299.293-.34.293-.04 0 .047-.132.193-.293zm-3.448-1.817c0-.03.116-.146.257-.257.233-.182.238-.177.055.056-.191.244-.312.322-.312.201z" transform="translate(.356 -12.851)"/><path style="fill:#606060;fill-opacity:1;stroke-width:.146759" d="M68.299 160.768c-.183-.233-.178-.238.055-.056.244.192.322.312.201.312-.03 0-.146-.115-.256-.256zm57.136-8.035c.003-.243.036-.324.073-.181a.844.844 0 0 1-.005.44c-.04.1-.07-.017-.068-.26zm-1.643-37.7c0-.03.116-.145.257-.256.233-.183.238-.178.055.055-.191.245-.312.322-.312.202z" transform="translate(.356 -12.851)"/><path style="fill:#494949;fill-opacity:1;stroke-width:.146759" d="M105.154 205.877c0-.03.115-.146.257-.257.232-.182.237-.177.055.056-.192.244-.312.322-.312.201zM67.27 174.71c-.182-.233-.177-.238.056-.056.14.111.256.227.256.257 0 .12-.12.043-.312-.201zm54.802-27.114c0-.404.03-.551.063-.328.034.223.033.553-.002.734-.035.18-.062-.002-.061-.406zm-6.793-13.777c0-.03.116-.146.257-.257.233-.183.238-.178.055.055-.191.245-.312.322-.312.202zm14.236-19.226c0-.03.115-.146.256-.257.233-.182.238-.177.056.056-.192.244-.312.322-.312.201z" transform="translate(.356 -12.851)"/><path style="fill:#333;fill-opacity:1;stroke-width:.146759" d="M86.075 215.272c-2.37-.552-4.174-1.425-6.457-3.124-3.116-2.32-7.29-7.539-10.487-13.113-1.052-1.835-3.122-6.14-4.106-8.54-1.186-2.893-4.4-12.351-5.051-14.868-1.973-7.621-2.814-11.526-3.603-16.73l-.746-4.94c-.203-1.345-.369-2.798-.368-3.23.004-2.915 1.089-5.065 4.027-7.979 2.483-2.462 8.094-6.567 11.563-8.458a62.553 62.553 0 0 0 2.169-1.226c.544-.342 6.233-2.987 9.463-4.4 3.72-1.627 12.126-4.284 18.527-5.856 2.576-.632 6.969-1.35 9.578-1.563 1.09-.09 3.137-.142 4.55-.117l2.568.046 2.935-2.941c7.468-7.486 16.998-16.398 22.277-20.835 2.408-2.024 6.847-5.118 8.641-6.023 1.18-.595 3.67-1.554 4.972-1.914.725-.2 1.496-.263 3.294-.264 2.57-.002 3.248.143 5.357 1.143 2.779 1.318 4.718 5.13 4.265 8.384-.305 2.2-1.336 3.953-3.455 5.882-2.815 2.563-5.752 4.086-13.505 7.005-2.26.851-4.571 1.743-5.136 1.981-2.76 1.165-7.803 3.79-9.54 4.967-.484.328-1.474.965-2.2 1.415a42.558 42.558 0 0 0-2.79 1.94 671.87 671.87 0 0 1-2.64 2.008 41.893 41.893 0 0 0-2.496 2.095c-.726.665-1.837 1.66-2.467 2.21-1.598 1.394-1.608 1.422-1.272 3.381.152.883.382 2.101.512 2.706.13.606.294 2.026.364 3.156.07 1.13.238 3.54.374 5.356.311 4.179.233 13.107-.145 16.437-.522 4.604-1.26 9.103-1.987 12.108-.85 3.515-3.322 10.97-4.617 13.926-2.737 6.247-6.221 12.14-9.987 16.893-2.305 2.909-6.297 6.807-9.443 9.222-2.196 1.684-4.775 3.015-7.052 3.639-1.398.382-4.665.505-5.886.22zm4.668-3.34c1.097-.263 3.212-1.315 5.028-2.503 2.685-1.755 6.9-5.32 6.692-5.659-.055-.088-.578-.422-1.162-.743-.585-.321-2.072-1.219-3.305-1.995-1.233-.775-2.326-1.41-2.429-1.41-.103 0-.672.8-1.265 1.778-1.05 1.73-5.067 7.211-6.196 8.455-.31.341-.558.672-.551.734.006.062.37.427.809.81.868.76 1.157.825 2.38.533zm-7.965-1.736c-.101-.163-3.212-2.913-4.228-3.737-1.206-.977-.904-.486.59.96 1.825 1.768 4.076 3.487 3.638 2.777zm3.162-1.805c.485-.61 4.909-6.785 6.197-8.649.54-.781.982-1.543.982-1.692 0-.154-.208-.392-.476-.546-.263-.15-1.039-.687-1.725-1.193-2.133-1.57-5.565-3.608-5.994-3.558-.268.032-.554.288-.972.87-.952 1.327-4.049 5.076-5.419 6.561-.695.754-1.263 1.483-1.263 1.62 0 .314.81 1.092 2.778 2.667a84.663 84.663 0 0 1 3.277 2.811c.96.872 1.856 1.586 1.991 1.586s.416-.215.624-.477zm19.548-7.852c2.504-3.15 5.976-8.302 5.976-8.865 0-.125-.761-.644-1.797-1.225-2.125-1.19-3.551-2.087-4.66-2.93-1.062-.808-1.23-.857-1.579-.471-.445.492-1.931 2.784-2.967 4.576a73.129 73.129 0 0 1-2.156 3.435c-.673 1-1.223 1.897-1.223 1.992 0 .27.53.693 2.348 1.88 2.068 1.35 4.43 2.599 4.912 2.599.267 0 .56-.253 1.146-.99zm-28.727-2.252c1.047-1.097 2.807-3.184 3.911-4.639l2.009-2.644-.541-.507c-1.452-1.36-6.931-5.55-7.259-5.55-.31 0-.713.504-1.932 2.42-.616.97-1.582 2.356-2.147 3.083-.564.726-1.063 1.466-1.109 1.644-.092.356.273 1.073 2.558 5.033 1.806 3.131 1.895 3.256 2.288 3.2.185-.026 1.122-.886 2.222-2.04zm18.301-2.884c.125-.142.857-1.355 1.628-2.697 1.755-3.059 2.395-4.105 3.568-5.835.513-.758.933-1.423.933-1.477 0-.27-2.107-1.878-5.363-4.09-1.124-.764-1.91-1.2-2.16-1.2-.35 0-.53.233-1.669 2.164-1.118 1.898-2.242 3.608-4.566 6.946-.343.492-.624.986-.624 1.098 0 .11 1.14.957 2.531 1.88 1.393.922 3.093 2.077 3.78 2.567 1.342.958 1.592 1.04 1.942.644zm-25.237-8.3c1.442-2.006 2.602-3.85 2.602-4.136 0-.105-.615-.685-1.367-1.289a75.088 75.088 0 0 1-3.096-2.694c-3.156-2.91-3.61-3.284-3.985-3.284-.197 0-.358.03-.358.067 0 .037.765 2.398 1.7 5.247 1.732 5.272 2.748 7.9 3.049 7.887.092-.004.747-.813 1.455-1.798zm44.365-.639c1.075-2.15 2.998-6.937 2.998-7.462 0-.117-.182-.324-.404-.459-.891-.543-1.97-1.289-3.999-2.764-1.302-.947-2.242-1.533-2.421-1.51-.296.037-.94 1.2-2.458 4.44a55.966 55.966 0 0 1-1.616 3.082c-.549.968-1.037 1.913-1.085 2.1-.106.409.247.82 1.38 1.605 1.155.8 5.941 3.399 6.2 3.367.126-.016.726-1.04 1.405-2.399zm-29.649 2.055c.138-.053.732-.83 1.319-1.725.587-.895 1.753-2.62 2.59-3.83 1.905-2.756 2.908-4.36 2.908-4.65 0-.123-.38-.476-.843-.783-.465-.308-1.759-1.248-2.876-2.09-2.376-1.79-4.61-3.263-4.95-3.263-.359 0-.607.346-1.683 2.348-1.596 2.97-2.27 4.112-3.163 5.363-1.006 1.409-1.612 2.512-1.514 2.753.04.097.841.704 1.781 1.35 2.234 1.534 3.422 2.426 4.59 3.446.774.677 1.396 1.142 1.565 1.173.014.002.138-.04.276-.092zm18.59-6.46c.988-1.465 4.664-8.893 4.664-9.425 0-.187-.556-.658-1.724-1.46a69.191 69.191 0 0 1-3.467-2.584c-.958-.771-1.796-1.402-1.86-1.402-.17 0-.58.433-.58.611 0 .293-2.348 4.823-3.291 6.348-1.114 1.803-1.699 2.917-1.699 3.239 0 .425 7 5.445 7.407 5.312.083-.027.33-.315.55-.64zm-26.92-4.56c.966-1.595 2.103-3.527 2.527-4.294.424-.766.96-1.67 1.192-2.007.232-.338.421-.706.421-.82 0-.113-.366-.458-.814-.767-.448-.308-1.29-.988-1.871-1.512-1.198-1.078-4.044-3.26-5.297-4.062-1.174-.751-1.358-.687-2.079.73-1.573 3.089-3.171 5.993-3.857 7.01-.417.617-.757 1.183-.757 1.258 0 .18 3.2 3.18 5.87 5.504 1.566 1.363 2.231 1.852 2.518 1.855.352.003.567-.289 2.147-2.896zm42.213-1.96c.784-1.96 2.722-11.042 2.494-11.69-.086-.246-.61-.724-1.406-1.285a43.162 43.162 0 0 1-1.93-1.437c-1.062-.869-1.115-.83-2.075 1.475a146.992 146.992 0 0 0-1.403 3.503c-.31.817-1.002 2.36-1.538 3.429-.535 1.069-.94 2.032-.898 2.14.042.11.582.548 1.2.975a61.067 61.067 0 0 1 2.392 1.767c1.107.866 2.512 1.725 2.821 1.725.056 0 .21-.27.343-.601zm-24.437-1.772 1.996-3.57a98.512 98.512 0 0 0 1.734-3.244l.667-1.336-.614-.591c-.338-.325-1.407-1.118-2.376-1.761l-3.889-2.586c-1.17-.78-2.2-1.416-2.288-1.416-.088 0-.414.545-.723 1.211-.31.666-.935 1.871-1.389 2.678-.454.808-1.343 2.545-1.977 3.862l-1.152 2.393.292.395c.16.217.913.828 1.673 1.357.76.53 2.372 1.678 3.583 2.552 2.372 1.712 2.947 2.032 3.306 1.84.125-.067.646-.87 1.157-1.784zm-30.005-3.26c.736-.898 1.822-2.739 3.04-5.153.57-1.13 1.264-2.432 1.541-2.894.393-.655.471-.899.357-1.112-.187-.35-1.601-1.58-3.465-3.013a90.35 90.35 0 0 1-2.759-2.223c-.924-.783-1.446-1.12-1.834-1.184a8.427 8.427 0 0 1-.964-.224c-.503-.16-.68-.075-.68.326 0 .567 2.367 13.717 2.633 14.63.079.27.229.595.333.722.2.242 1 .767 1.17.768.055 0 .338-.289.628-.643zm45.35-.77c.283-.108 1.495-2.47 2.027-3.95.204-.57.716-1.791 1.137-2.715 1.242-2.725 1.912-4.575 1.735-4.788-.084-.102-.613-.45-1.174-.774-.562-.324-1.86-1.27-2.884-2.104-1.977-1.607-2.587-2.055-3-2.204-.323-.117-.585.378-1.647 3.112-.431 1.11-1.079 2.607-1.439 3.327-1.012 2.026-2.016 4.413-2.012 4.787.002.252.42.678 1.622 1.66 2.009 1.638 4.609 3.446 5.37 3.733.014.005.133-.033.265-.083zm-26.403-3.98c.518-1.11 1.175-2.447 1.46-2.971.927-1.702 2.586-5.153 2.539-5.28-.06-.16-3.423-2.689-4.742-3.564a40.218 40.218 0 0 1-1.647-1.153l-.62-.47-1.581.34c-2.252.485-2.247.481-2.979 2.16a57 57 0 0 1-.96 2.096c-.51 1.015-1.826 3.902-1.826 4.008 0 .052.71.569 1.578 1.148 1.427.953 4.576 3.393 6.529 5.06.415.354.879.644 1.03.644.212 0 .498-.473 1.219-2.018zm17.058-3.333c.156-.198.6-1.14.986-2.091.981-2.415 2.81-6.822 3.317-7.992.233-.538.39-1.067.348-1.174-.041-.108-.375-.386-.743-.619-.367-.232-1.175-.832-1.796-1.332-2-1.612-4.147-3.158-4.514-3.25-.904-.227-2.139.424-2.327 1.226-.051.222-1.13 2.477-2.396 5.01l-2.302 4.606.509.43c.28.237 1.368.966 2.417 1.62 1.664 1.037 3.9 2.532 5.382 3.597.584.42.768.415 1.119-.03zm21.637-3.026c.265-2.34.563-8.074.542-10.437-.02-2.323-.051-2.624-.294-2.844-.256-.23-.28-.225-.414.103-.079.192-.449 1.405-.823 2.697-.373 1.291-1.012 3.174-1.42 4.182-.846 2.098-1.44 3.89-1.44 4.344 0 .465 3.187 3.081 3.59 2.947.084-.027.2-.474.26-.992zm-50.16-2.373c.52-1.07.99-2.126 1.043-2.348.088-.364.06-.403-.293-.403-.215 0-1.032.128-1.814.286a57.57 57.57 0 0 1-2.596.455c-1.82.261-1.817.25-.44 1.384.484.4 1.32 1.14 1.856 1.648.537.508 1.05.923 1.138.923.089 0 .587-.875 1.106-1.945zm44.185-1.908c.14-.343.438-1.152.664-1.797.225-.646.713-1.997 1.083-3.003.71-1.926 1.847-5.566 1.847-5.915 0-.183-1.204-1.277-5.248-4.768-.678-.585-1.283-1.064-1.344-1.064-.16 0-.413.586-1.044 2.422-.694 2.021-2.147 5.813-2.782 7.26-.607 1.382-.732 1.821-.631 2.208.044.171.578.644 1.198 1.062 1.33.896 3.447 2.526 4.56 3.511 1.015.899 1.358.916 1.697.084zm-27.002-.494c.737-.795 3.156-5.981 2.906-6.23-.067-.066-1.607.443-3.423 1.132-1.816.689-3.6 1.354-3.963 1.479s-.723.284-.8.354c-.195.178.806 1.06 1.987 1.749.537.313 1.365.867 1.84 1.23.474.363.915.663.98.665.064.003.277-.168.473-.38zm-21.42-3.128c2.293-.337 7.047-1.424 7.511-1.716.792-.5.22-1.252-2.222-2.917-2.498-1.703-3.592-2.504-4.712-3.449-2.027-1.709-1.739-1.57-2.379-1.145-.973.647-3.31 2.63-4.34 3.683-.747.763-1.159 1.353-1.651 2.365-.36.742-.656 1.454-.656 1.583 0 .265.818 1.03 1.453 1.358 1.051.544 4.19.65 6.995.238zm38.81-3.098c.089-.164.447-1.106.798-2.091.35-.986.915-2.485 1.255-3.333.629-1.568 1.32-3.7 1.32-4.074 0-.23-.681.133-1.637.873-.61.472-4.906 2.942-6.618 3.805-.626.315-1.138.626-1.138.69 0 .242.4.599 1.468 1.31.605.402 1.79 1.269 2.634 1.926.844.656 1.584 1.194 1.646 1.194.062 0 .184-.135.272-.3zm-24.673-.297c3.162-1.01 5.936-2.05 9.697-3.637 2.449-1.033 3.147-1.453 3.01-1.812-.042-.109-.521-.493-1.064-.854-2.343-1.557-4.42-3.029-5.17-3.664-1.66-1.406-3.241-2.517-3.517-2.47-.353.058-2.772 4.883-4.422 8.818-.635 1.516-1.231 2.899-1.324 3.073-.146.273-.115.364.225.656.517.445.875.43 2.565-.11zm-4.088-4.136c.505-1.15 1.494-3.247 2.197-4.66 1.448-2.908 2.346-5.064 2.346-5.632 0-.322-.066-.385-.405-.385-1.229 0-11.649 5.471-13.008 6.83-.271.271-.263.289.397.886.37.336 1.783 1.355 3.14 2.265 1.355.91 2.762 1.908 3.125 2.216 1.089.924 1.154.88 2.208-1.52zm43.054-2.862c.198-.638.852-4.006.918-4.733.08-.883-.282-3.245-.987-6.42a70.719 70.719 0 0 1-.431-2.018c0-.04-.059-.074-.13-.074-.072 0-.477.61-.9 1.357-.968 1.708-2.256 3.353-3.874 4.95-.693.685-1.26 1.345-1.26 1.468.001.387 6.04 5.718 6.484 5.725.055.001.136-.114.18-.255zm-17.557-2.513c2.012-1.156 5.029-3.143 5.406-3.56.254-.28.249-.3-.17-.655-.239-.2-.962-.716-1.608-1.145a33.9 33.9 0 0 1-2.272-1.683c-.603-.497-1.157-.883-1.229-.859-.072.024-.274.438-.448.919-.175.48-.689 1.567-1.143 2.415-.856 1.597-3.074 6.266-3.268 6.881-.102.32.02.28 1.45-.487.86-.46 2.336-1.283 3.282-1.826zm-7.36 1.337c.207-.136 1.158-2.03 1.933-3.85.327-.767 1.26-2.749 2.075-4.403 1.388-2.818 2.174-4.782 1.987-4.969-.09-.09-3.026.606-6.234 1.48-2.989.815-7.272 2.222-9.136 3.002-2.087.875-2.1 1.01-.22 2.26.747.497 2.117 1.515 3.045 2.262.929.748 2.06 1.596 2.516 1.885.455.289 1.438.957 2.184 1.485 1.36.963 1.544 1.047 1.85.848zm17.004-8.275c.773-.738 1.735-1.779 2.138-2.311.737-.973 2.193-3.674 2.193-4.068 0-.447-.723-.537-2.936-.365-1.17.09-2.527.164-3.016.163-.796-.001-4.817.59-5.512.811-.348.11-.476.604-.488 1.893l-.01 1.017 1.174.93c2.177 1.724 4.401 3.261 4.728 3.267.213.004.806-.455 1.729-1.337zm11.187-6.756c.305-.257 1.017-.909 1.582-1.45.565-.54 1.76-1.51 2.655-2.153a67.829 67.829 0 0 0 2.47-1.858c1.058-.861 3.813-2.716 6.396-4.306 3.66-2.252 10.502-5.523 15.011-7.176 4.974-1.824 8.478-3.417 10.447-4.75 1.203-.814 2.555-2.184 2.983-3.023.278-.545.764-2.51.764-3.089 0-.482-.628-1.547-1.409-2.39-1.138-1.23-2.17-1.666-4.124-1.745-1.754-.07-3.097.18-5.107.95-4.32 1.655-8.2 4.498-16.866 12.36-4.23 3.837-16.815 15.973-16.815 16.215 0 .08.194.647.432 1.258.237.61.467 1.226.509 1.367.114.38.448.314 1.072-.21z" transform="translate(.356 -12.851)"/></svg>