<svg width="210mm" height="297mm" viewBox="0 0 210 297" xmlns="http://www.w3.org/2000/svg"><path style="fill:#d0d0d0;fill-opacity:1;stroke-width:.264583" d="M91.98 145.843c.182-.074.48-.074.661 0 .182.073.033.133-.33.133-.364 0-.513-.06-.331-.133zm2.91 0c.182-.074.48-.074.662 0 .182.073.033.133-.33.133-.365 0-.514-.06-.332-.133zm-2.513-1.066c.254-.066.671-.066.926 0 .255.067.046.121-.463.121-.51 0-.718-.054-.463-.12zm3.324-1.585c.19-.077.419-.067.507.02.088.088-.069.15-.348.14-.308-.013-.37-.076-.16-.16zm-2.311-6.06c.013-.308.075-.37.16-.16.076.192.067.42-.021.508-.088.088-.15-.069-.14-.347zm-.885-.936c.18-.181.393-.262.474-.181.082.082-.065.23-.326.329-.377.143-.408.113-.148-.148z" transform="translate(35.697 -2.856)"/><path style="fill:#b9b9b9;fill-opacity:1;stroke-width:.264583" d="M88.557 146.631c.19-.076.42-.067.507.021.088.088-.068.15-.347.139-.308-.013-.371-.075-.16-.16zm2.646-.794c.19-.076.419-.067.507.021.088.088-.069.15-.347.14-.309-.013-.371-.076-.16-.16z" transform="translate(35.697 -2.856)"/><path style="fill:#a3a3a3;fill-opacity:1;stroke-width:.264583" d="M90.409 146.896c.191-.077.42-.067.507.02.088.089-.068.151-.347.14-.308-.013-.371-.076-.16-.16zm6.085-1.059c.191-.076.42-.067.507.021.088.088-.068.15-.347.14-.308-.013-.37-.076-.16-.16zm-2.38-1.323c.19-.076.418-.067.506.021.088.088-.068.15-.347.14-.308-.013-.37-.076-.16-.16zm10.145-1.67c0-.365.06-.514.133-.332.074.182.074.48 0 .662-.073.182-.133.033-.133-.33zM82.52 141.42c0-.055.208-.263.463-.463.42-.329.43-.32.1.1-.346.44-.563.581-.563.363zm9.884-2.413c-.001-1.31.044-1.88.099-1.265.055.614.056 1.686.001 2.381-.054.696-.1.193-.1-1.116z" transform="translate(35.697 -2.856)"/><path style="fill:#8c8c8c;fill-opacity:1;stroke-width:.264583" d="M91.203 146.896c.19-.077.419-.067.507.02.088.089-.069.151-.347.14-.309-.013-.371-.076-.16-.16zm4.762 0c.191-.077.42-.067.507.02.088.089-.068.151-.347.14-.308-.013-.37-.076-.16-.16zm-3.197-.804c.47-.059 1.303-.06 1.852-.002.549.057.165.105-.854.106-1.019.001-1.468-.046-.998-.104z" transform="translate(35.697 -2.856)"/><path style="fill:#767676;fill-opacity:1;stroke-width:.264583" d="M92.78 146.882a13.218 13.218 0 0 1 2.117.002c.542.057.033.103-1.131.102-1.164-.001-1.608-.048-.985-.103zm-1.313-.78c.191-.076.42-.067.507.02.088.089-.068.151-.347.14-.308-.013-.37-.076-.16-.16zm4.234 0c.19-.076.419-.067.507.02.088.089-.069.151-.348.14-.308-.013-.37-.076-.16-.16zm-2.91-1.588c.19-.076.418-.067.506.021.088.088-.068.15-.347.14-.308-.013-.37-.076-.16-.16zm-.017-.788c.182-.073.48-.073.661 0 .182.074.033.134-.33.134-.364 0-.513-.06-.331-.134zm4.956-.846c.121-.214.056-.455-.16-.592-.24-.151-.257-.232-.05-.235.496-.006.705.54.338.88-.258.237-.287.225-.128-.053zm-9.653-.666c0-.055.209-.263.463-.463.42-.33.43-.32.1.1-.345.44-.563.58-.563.363z" transform="translate(35.697 -2.856)"/><path style="fill:#606060;fill-opacity:1;stroke-width:.264583" d="M90.409 146.631c.191-.076.42-.067.507.021.088.088-.068.15-.347.139-.308-.013-.371-.075-.16-.16zm.265-.529c.19-.076.419-.067.507.02.088.089-.069.151-.348.14-.308-.013-.37-.076-.16-.16zm5.82 0c.191-.076.42-.067.507.02.088.089-.068.151-.347.14-.308-.013-.37-.076-.16-.16zm-7.673-.265c.191-.076.42-.067.508.021.088.088-.069.15-.348.14-.308-.013-.37-.076-.16-.16zm6.615-1.587c.191-.077.42-.067.507.02.088.089-.068.151-.347.14-.308-.013-.371-.076-.16-.16zm7.59-.613c.264-.291.539-.53.611-.53.073 0-.083.239-.346.53-.264.29-.539.529-.611.529-.073 0 .083-.238.346-.53zm-11.03.084c.191-.077.42-.067.508.02.088.088-.069.151-.348.14-.308-.013-.37-.076-.16-.16zm1.853 0c.19-.077.419-.067.507.02.088.088-.069.151-.348.14-.308-.013-.37-.076-.16-.16zm-11.572-1.032c.013-.308.076-.371.16-.16.077.19.067.42-.02.507-.089.088-.151-.068-.14-.347zm16.146-.718c-.335-.557-.33-.563.126-.126.262.25.42.513.35.583-.07.07-.284-.136-.476-.457zm-5.22-2.832c0-1.528.043-2.153.096-1.39.054.765.054 2.015 0 2.779-.053.764-.097.139-.097-1.39zm10.063 2.05-.504-.595.595.504c.327.277.595.545.595.595 0 .212-.213.056-.686-.504zm-20.48.231c0-.055.208-.263.463-.463.42-.329.429-.32.1.1-.346.44-.563.581-.563.363zm3.39-1.139c.19-.076.419-.067.507.021.088.088-.069.15-.348.139-.308-.013-.37-.075-.16-.16z" transform="translate(35.697 -2.856)"/><path style="fill:#494949;fill-opacity:1;stroke-width:.264583" d="M90.194 146.575c-.572-.103-.774-.227-.53-.322.572-.223 2.405.043 2.232.323-.157.254-.29.254-1.702-.001zm5.292-.033c-.304-.2-.211-.253.397-.225.436.02 1.002-.052 1.256-.16.261-.11.463-.081.463.067 0 .503-1.494.728-2.116.318zm-7.21-.195c-.255-.057-.463-.221-.463-.366s-.228-.19-.507-.102c-.279.088-.589.029-.688-.132-.288-.467-.035-.527 1.002-.241 1.235.34 1.828 1.102.656.84zm10.12-.103c0-.288 1.84-1.12 2.04-.92.25.25-.245.729-.611.588-.204-.078-.37-.04-.37.084s-.239.287-.53.363c-.29.076-.529.025-.529-.115zm-12.898-.777c-.328-.124-.596-.368-.596-.543 0-.174-.076-.24-.17-.148-.221.222-1.67-.63-1.936-1.14-.267-.51-.174-1.664.143-1.77.134-.045.232.304.218.775-.026.883.032.94 1.948 1.935 1.29.669 1.587 1.342.393.89zm15.28-.15c0-.214.114-.318.254-.23.14.086.468-.03.728-.26 1.19-1.048 2.227-1.773 2.353-1.647.213.213-1.46 1.826-1.724 1.662-.129-.079-.295.018-.37.215-.203.526-1.242.743-1.242.26zm-9.393-1.173c.44-.208.397-.232-.248-.141-.863.12-1.533-.053-1.35-.35.118-.191 2.451.064 4.508.493.89.186.7.223-1.19.234-1.6.01-2.097-.059-1.72-.236zm3.571-.226c-.552-.163-.453-.214.596-.306 1.242-.11 1.65.082.838.393-.476.183-.53.18-1.434-.087zm-6.359-.555c-.468-.469-.511-.627-.22-.812.199-.126.258-.23.13-.233-.126-.002-.083-.181.097-.398.18-.217.424-.334.543-.26.12.073.291.012.383-.136.195-.314.929-.364.929-.062 0 .114-.34.335-.753.491-.414.156-.82.54-.902.852-.081.312-.048.506.073.431.252-.155.65.363.44.573-.076.075-.4-.126-.72-.446zm8.74.18c0-.209.192-.452.426-.542.31-.119.38-.36.26-.888l-.164-.725.537.63c.577.676.426 1.108-.573 1.643-.365.195-.485.166-.485-.119zm6.12-1.32c-.161-.195-.215-.433-.12-.529.096-.095-.016-.174-.248-.174-.232 0-.609-.187-.838-.416-.228-.228-.415-.344-.415-.257 0 .087-.387-.048-.86-.299s-1.261-.486-1.751-.523c-.903-.067-1.29-.248-1.05-.49.222-.22 2.713.332 2.81.624.05.15.239.216.42.147.414-.159 1.971.891 2.486 1.677.417.636.06.834-.433.24zm-6.715-.356c-.254-.067-.463-.244-.463-.395 0-.15.189-.2.419-.112.23.088.528.16.661.16.134 0 .243.12.243.265 0 .275-.089.283-.86.082zm-4.124-2.662c-.024-1.492.047-2.712.156-2.713.109 0 .166.863.126 1.919-.125 3.295-.238 3.615-.282.794zm-9.077 1.779c.342-.286.73-.453.86-.373.13.08.237.01.237-.156s.148-.253.328-.192c.18.06.487-.05.68-.243.194-.194.612-.367.929-.386.317-.018.844-.062 1.172-.096.327-.034.595.04.595.166 0 .214-.784.343-1.515.25-.179-.023-.595.132-.926.344-.331.213-.84.426-1.131.474-.291.048-.686.236-.879.417-.192.182-.49.327-.661.322-.172-.005-.032-.242.31-.527z" transform="translate(35.697 -2.856)"/><path style="fill:#333;fill-opacity:1;stroke-width:.264583" d="M91.914 146.547c.209-.338 3.048-.338 3.572 0 .275.178-.238.258-1.67.26-1.31.004-2.006-.092-1.902-.26zm-3.043-.264c0-.146.268-.263.595-.26.482.002.52.052.199.26-.513.331-.794.331-.794 0zm8.731 0c0-.146.179-.265.397-.265.218 0 .397.12.397.265 0 .145-.179.264-.397.264-.218 0-.397-.119-.397-.264zm-6.68-2.292c.181-.074.48-.074.661 0 .182.073.033.133-.33.133-.364 0-.513-.06-.331-.133zm3.577-.008c.257-.067.614-.063.793.01.18.072-.031.127-.468.122-.436-.005-.583-.065-.325-.132zm-5.099-.346c0-.146.126-.265.28-.265.155 0 .207.12.117.265-.09.145-.216.265-.28.265-.064 0-.117-.12-.117-.265zm7.409 0c0-.146.119-.265.264-.265a.265.265 0 0 1 0 .53.265.265 0 0 1-.264-.265zm6.879-.794c0-.145.119-.264.264-.264.146 0 .265.119.265.264a.265.265 0 0 1-.53 0zm-10.752-3.572c.001-1.455.046-2.016.1-1.248.053.77.052 1.96-.002 2.646-.054.687-.098.058-.097-1.398zm-6.496.746c.191-.077.42-.067.507.02.088.088-.068.151-.347.14-.308-.013-.37-.076-.16-.16z" transform="translate(35.697 -2.856)"/></svg>