<svg width="210mm" height="297mm" viewBox="0 0 210 297" xmlns="http://www.w3.org/2000/svg"><path style="fill:#b9b9b9;fill-opacity:1;stroke-width:.264583" d="M74.397 179.58c.263-.291.538-.53.61-.53.074 0-.082.239-.346.53-.263.29-.538.53-.611.53-.073 0 .083-.24.347-.53zm32.411-39.788c0-.054.208-.263.463-.463.42-.329.43-.32.1.1-.346.441-.563.581-.563.364zm-29.947-2.726c.19-.077.419-.067.507.02.088.089-.069.151-.348.14-.308-.013-.37-.076-.16-.16zm35.718 0c.191-.077.42-.067.507.02.088.089-.068.151-.347.14-.308-.013-.37-.076-.16-.16z" transform="translate(11.94 -19.902)"/><path style="fill:#a3a3a3;fill-opacity:1;stroke-width:.264583" d="M72.677 181.332c0-.055.208-.263.463-.463.42-.33.429-.32.1.1-.346.44-.563.58-.563.363z" transform="translate(11.94 -19.902)"/><path style="fill:#8c8c8c;fill-opacity:1;stroke-width:.264583" d="M94.588 172.255c.19-.076.419-.067.507.021.088.088-.069.15-.347.14-.309-.013-.371-.076-.16-.16z" transform="translate(11.94 -19.902)"/><path style="fill:#767676;fill-opacity:1;stroke-width:.264583" d="M65.84 183.813c0-.364.06-.512.133-.33.073.181.073.48 0 .661-.073.182-.134.033-.134-.33zm27.954-11.558c.19-.076.42-.067.507.021.088.088-.068.15-.347.14-.308-.013-.371-.076-.16-.16zm1.587 0c.191-.076.42-.067.508.021.087.088-.069.15-.348.14-.308-.013-.37-.076-.16-.16zm-5.556-4.498c.191-.076.42-.067.507.021.088.088-.068.15-.347.14-.308-.013-.37-.076-.16-.16zm9.525 0c.191-.076.42-.067.507.021.088.088-.068.15-.347.14-.308-.013-.37-.076-.16-.16zm-6.085-.264c.19-.076.419-.067.507.02.088.089-.068.151-.347.14-.309-.013-.371-.076-.16-.16z" transform="translate(11.94 -19.902)"/><path style="fill:#606060;fill-opacity:1;stroke-width:.264583" d="M70.296 177.099c0-.055.208-.264.463-.463.42-.33.429-.32.1.1-.346.44-.563.58-.563.363zm24.01-9.612a3.768 3.768 0 0 1 1.191 0c.328.063.06.115-.595.115s-.923-.052-.595-.115zm18.257-14.276c.182-.073.48-.073.661 0 .182.073.033.133-.33.133-.364 0-.513-.06-.331-.133z" transform="translate(11.94 -19.902)"/><path style="fill:#494949;fill-opacity:1;stroke-width:.264583" d="M67.865 186.014c.19-.077.419-.067.507.02.088.089-.068.151-.347.14-.309-.013-.371-.076-.16-.16z" transform="translate(11.94 -19.902)"/><path style="fill:#333;fill-opacity:1;stroke-width:.264583" d="M66.591 185.4c-.723-.723-.7-2.43.05-3.672 2.59-4.292 8.86-9.437 13.987-11.481 10.6-4.226 24.355-3.225 33.06 2.406 3.662 2.37 7.817 6.408 9.386 9.123.585 1.013.705 1.486.59 2.336-.169 1.264-.773 1.798-2.047 1.81-1.231.01-1.905-.5-2.872-2.177-1.666-2.89-5.593-6.534-8.764-8.135-4.33-2.186-9.274-3.252-15.08-3.252-6.961 0-12.369 1.396-17.185 4.436-1.827 1.154-5.218 4.578-6.523 6.59-.674 1.036-1.412 2.033-1.64 2.215-.659.523-2.354.41-2.962-.198zm7.276-32.902c-2.615-1.222-4.328-3.709-4.562-6.622-.267-3.33 1.326-6.235 4.265-7.779 1.82-.956 4.984-1.006 6.706-.107 1.737.906 2.897 2.069 3.698 3.705 1.877 3.836.169 8.825-3.677 10.742-1.867.93-4.516.955-6.43.061zm35.587-.175c-2.91-1.576-4.308-3.922-4.336-7.271-.016-1.861.076-2.287.756-3.524.868-1.579 2-2.675 3.653-3.538.881-.46 1.565-.583 3.234-.583 2.472.001 3.93.56 5.541 2.126 3.634 3.529 2.664 10.195-1.85 12.706-1.392.775-1.804.876-3.558.875-1.699-.001-2.195-.116-3.44-.79z" transform="translate(11.94 -19.902)"/></svg>