<svg viewBox="0 0 210 297" xmlns="http://www.w3.org/2000/svg"><path style="fill:#d0d0d0;fill-opacity:1;stroke-width:.264583" d="M48.106 175.953c-.33-.42-.32-.43.1-.1.254.2.463.408.463.463 0 .218-.218.077-.563-.363zm20.357-43.11c.19-.076.42-.067.507.021.088.088-.068.15-.347.14-.308-.014-.371-.076-.16-.16zm74.947-11.88c.013-.308.076-.37.16-.16.077.192.067.42-.02.508-.088.088-.151-.069-.14-.348zm-74.418-16.695c.191-.076.42-.067.507.021.088.088-.068.15-.347.14-.308-.014-.371-.076-.16-.16zm86.519 0c.19-.076.419-.067.507.021.088.088-.068.15-.347.14-.309-.014-.371-.076-.16-.16z" transform="translate(-3.57 -3.57)"/><path style="fill:#606060;fill-opacity:1;stroke-width:.264583" d="M57.4 108.318c0-.055.208-.263.463-.463.42-.33.429-.32.1.1-.346.44-.563.58-.563.363z" transform="translate(-3.57 -3.57)"/><path style="fill:#333;fill-opacity:1;stroke-width:.264583" d="M49.848 176.977c-3.494-1.587-3.685-6.449-.314-7.98 1.093-.495 2.529-.507 61.841-.507 58.633 0 60.76.017 61.805.492 3.582 1.627 2.983 7.14-.893 8.216-.664.184-20.57.272-61.177.269-57.827-.004-60.234-.024-61.262-.49zm15.596-44.217c-4.056-.594-7.259-2.712-9.614-6.355-2.051-3.175-2.734-6.683-2.044-10.503 1.258-6.96 6.525-11.446 13.536-11.53 6.55-.078 11.796 4.316 13.23 11.08.718 3.392.29 6.53-1.343 9.85-2.527 5.134-8.295 8.26-13.765 7.458zm88.902-.129c-5.08-1.105-9.286-5.385-10.547-10.733-1.365-5.794.939-12.156 5.46-15.079 4.454-2.878 9.276-3.29 13.638-1.163 3.355 1.636 5.806 4.543 6.948 8.24 2.553 8.261-2.25 17.045-10.244 18.74-2.159.457-3.139.456-5.255-.005z" transform="translate(-3.57 -3.57)"/></svg>