<svg xmlns="http://www.w3.org/2000/svg" id="Layer_1" data-name="Layer 1" viewBox="224.15 271.83 142.01 300.28">
  <defs>
    <style>
      .cls-1 {
        fill: #fff;
      }

      .cls-2 {
        fill: #fefefe;
      }

      .cls-3 {
        fill: #131313;
      }
    </style><style class="darkreader darkreader--sync" media="screen"/>
  </defs>
  <path class="cls-3" d="M334.18,299.02c3.38,7.67,5.34,16.56,6.08,25.14.78,9.09.46,17.95-2.45,26.5-.16.46-1.04,2.19-1.02,2.4.02.3,1.96,1.99,2.21,3.28.34,1.71.09,4.7.3,6.7.11,1.04,1.06,6.37,1.55,6.85,5.49,3.21,10.79,8.33,15.29,13.2,1.74,1.89,5.91,6.2,6.08,8.88.09,1.41-1,3.58-.96,3.83s1.36,1.8,1.62,2.21c9.28,14.87-2.73,31.08-16.42,22.01-5.21-3.45-7.91-8.53-11.45-13.77-.12-.18,0-.42-.45-.29-.48,6.16-1.09,12.36-1.79,18.51-1.19,10.42-2.4,21.53-4.15,31.81-.21,1.24-.39,3-.76,4.12-.26.79-1.52,2.24-1.52,2.54,0,.5,1.49,4.54,1.76,5.46.9,3.07,1.78,6.17,2.6,9.27,1.06,4.02,3.42,11.9,3.67,15.76.04.67.08,1.47-.14,2.1-.33.94-1.6,1.3-1.64,2.22,2.22,16.8,1.98,33.98.61,50.85,5.13,1.4,11.41,3.31,15.75,6.87,4.66,3.82,4.83,9.85-.2,13.34-7.25,5.03-25.54,3.35-33.75,1.25-1.35-.34-3.81-.86-4.74-2.01-1.62-2-.56-5.73-.39-8.19,1.18-17.8.13-35.75-2.16-53.35-2.72-.12-6.11,2.24-7.4-1.77-1.12-3.48-1.51-7.72-2.7-11.2-.08-.22-.02-.52-.29-.45-1.51,4.4-3.15,8.79-4.93,13.05-.53,1.25-1.63,4.4-2.41,5.16-1.47,1.45-3.28-.06-4.99.01-6.46,16.38-21.03,24.62-33.46,33.87-.02,5.66.85,11.44-.19,17.07s-4.74,10.34-10.15,8.14c-6.89-2.8-11.94-15.72-13.81-23.33-1.08-4.39-2.86-12.28.43-15.75,11.67-8.9,23.6-18.19,31.86-31.51-1.51-1.36-5.63-4.68-5.48-7.03,3.51-11.84,7.04-23.67,10.94-35.34.01-.85-3.22-1.93-3.48-3.84-.06-.43-.03-.9,0-1.33l8.21-39.5c-.47.37-.89.88-1.28,1.36-1.36,1.71-3.28,4.78-4.7,6.15-.22.21-.77.59-1.03.64-1.21.24-.8-.66-2,.84-2.43,3.03-5.14,7.52-7.22,10.96-1.88,3.1-3.65,6.28-5.3,9.56,3.08,4.09,4.95,14.43.55,17.92-1.8,1.42-5.08.72-5.97-1.69-2.72,4.23-3.43,9.78-8.85,10.44-8.32,1.01-11.09-9.33-9.47-17.13,1.04-5.05,3.64-7.94,5.31-12.26,1.49-3.84,2.55-8.19,4.05-12.14,3.08-8.1,6.94-15.95,11.59-22.97.07-.46-1.53-1.16-1.53-2.7,0-1.15,3.64-6.1,4.49-7.27,8.44-11.69,18-21.14,30.48-26.52,2.68-1.15,5.46-1.92,8.14-3.07-3.71-2.64-6.83-6.22-9.41-10.25-8.56,2.31-15.79-5.78-16.28-15.45-.04-.75.23-1.78.17-2.24-.07-.49-1.64-3.44-1.96-4.33-6.05-16.49-1.13-38.06,10.62-49.42,15.47-14.96,40.14-15.52,55.19.57,2.97-1.37,5.87-2.99,8.88-4.26,3.73-1.58,11.75-4.81,14.4.24s-2.72,10.04-5.74,12.76c-2.7,2.43-5.82,4.62-8.8,6.51Z"/>
  <g>
    <g>
      <path class="cls-1" d="M317.51,379.78c-.01-2.74.8-2.82,2.85-2.74.99.04,2.02.81,2.73-.46,1.05-1.9-.41-3.16-1.97-3.38-1.69-.23-2.74.8-2.43-2.07.7.2,1.46-.23,2.06-.23,1.19,0,3.6,1.05,4.13-.9.57-2.11-1.71-3.33-3.19-3.6-1.68-.3-7.67.68-8.39-1.2-.42-1.09,1.32-1.52,2.02-1.75,3.9-1.29,11.4-.93,15.01,1.34,1.22.76,2.41,2.73,3.96,1.33,2.22-2.01-.83-3.93-2.12-4.78-.53-.35.24-.53.46-.78.79-.89,1.37-1.97,2.15-2.86.24,3.38.29,6.58.96,9.93,1.71,8.59,4.27,13.86,9.83,19.77,4.07,4.32,9.85,8.21,13.34,12.96,7.32,9.97-.16,21.88-10.18,15.23-7.49-4.97-10.74-14.77-15.58-22.19-1.3-2-1.57-1.07-3.36-1.34s-3.74-.9-5.45-1.64c-1.4-.61-6.5-3.23-6.78-4.89-.54-3.18,2.87-1.3,3.97-1.43,1.48-.17,1.83-2.81.45-3.69-.15-.09-1.34-.63-1.41-.63h-3.04Z"/>
      <path class="cls-1" d="M314.96,371.36v3.53c0,.35-1.88,1.32-2.25,1.48-5.6,2.4-17.76,1.41-20.13-6.22-.08-.27-.7-2.11-.09-1.95,7.07,3.42,14.9,4.14,22.47,3.16Z"/>
      <path class="cls-2" d="M354.37,389.11c-.17.15-1.06-.73-1.27-.91-2.97-2.67-6.42-6.21-8.83-9.55-.17-.24-1.21-1.65-1.07-1.82l11.08,10.91c.55.19.35,1.14.09,1.37Z"/>
      <g>
        <path class="cls-1" d="M320.65,286.5c-1.3.42-2.54,1.21-3.73,1.93-19.13,11.52-37.78,24.71-53.13,42.44-.59-2.02-1.29-4.03-1.68-6.13-3.03-16.73,3.59-33.78,16.44-41.91,11.91-7.53,31.36-8.73,41.7,2.88.21.24.46.4.39.8Z"/>
        <path class="cls-1" d="M317.12,294.46l8.69-5.04c3.72-1.81,7.4-4.08,11.21-5.65,2.38-.98,5.53-2.43,7.94-1.02-3.21,5.69-8.92,8.72-13.72,12.31-.56.18-1.49-.52-2.16-.71-3.92-1.08-8.03-.56-11.96.11Z"/>
        <g>
          <path class="cls-1" d="M309.67,366.58c-10.92.5-20.87-3.98-27.72-13.9-.56-.81-1.66-3.13-2.33-3.44-1.1-.52-4.01.69-5.73.51-4.69-.5-8.22-6.17-8.06-11.45s5.55-7.91,9.12-4.8c.91.79,1.51,2.33,2.95,1.11,1.68-1.42,2.26-10.62,2.26-13.08,5.74-5.02,11.74-9.7,18.13-13.54,8.01-4.82,18.58-9.83,27.75-8.99,3.65.33,4.48,2.74,5.81,6.23,4.19,11.02,6.04,29.58,2.77,41.06-1.36,4.76-3.88,8.95-6.72,12.67-.54.38-3.86-.51-4.8-.58-3.53-.26-8.96.08-11.85,2.65-1.53,1.36-2.54,3.35-1.59,5.55Z"/>
          <g>
            <path class="cls-3" d="M325.3,344.81c.69.81.52,2.66-.35,3.22-.62.4-1.49.27-2.15.46-1.76.51-3.62,1.14-5.22,2.13-1.15.71-3.83,3.75-4.66.94s3.53-4.91,5.25-5.72c1.42-.67,6-2.35,7.14-1.03Z"/>
            <path class="cls-3" d="M301.78,325.45c3.35-.31,5.63,6.74,2.53,8.87-5.05,3.48-7.96-8.37-2.53-8.87Z"/>
            <path class="cls-3" d="M324.24,319.79c.52-.6,1.62-1.03,2.36-.97,3.33.27,4.98,7.41,1.67,9.18-4.06,2.17-6.49-5.36-4.03-8.2Z"/>
            <path class="cls-3" d="M323.59,334.51c-.92-.43-2.15.14-2.7-1.08s-.03-2.63,1.23-2.8c4.4-.61,7.08,4.62,2.95,7.97-1.62,1.32-3.18-.73-2.5-2.67.12-.35,1.11-1.3,1.03-1.42Z"/>
            <path class="cls-3" d="M303.14,317.73c.47.64.47,1.88.07,2.56-.6,1.02-1.62.46-2.43.58-.45.06-1.11.3-1.55.49-1.05.45-2.51,2.12-3.2,2.22-1.08.16-1.99-.87-1.81-2.1.39-2.78,7.23-6.06,8.93-3.75Z"/>
            <path class="cls-3" d="M324.13,310c1.77-.25,5.58-.14,5.34,2.78-.21,2.64-3.23.87-4.82,1.01-1.16.1-3.58,1.9-4.26.18-1.04-2.64,2.08-3.75,3.73-3.98Z"/>
          </g>
        </g>
      </g>
    </g>
    <g>
      <path class="cls-1" d="M288.1,370.22c2.55,12.7,17.28,13.79,26.27,11.15-.49,2.32-.98,4.25-.03,6.52,1.54,3.72,8.69,7.4,12.07,8.29.76.2,2.94.36,3.26.54.29.16,1.38,2.53,1.38,2.95-2.16,18.25-3.52,36.92-6.54,54.99-.14.85-.34,2.79-.57,3.44-.31.86-4.29,1.9-5.22,2.14-2.88.75-6.21,1.33-9.16,1.66-14.95,1.67-30.67-.45-43.4-10.14,2.75-12.38,5.01-24.92,7.83-37.27.85-3.71,1.5-7.69,3.09-10.98,1.35-2.78.32-5.49-2.51-4.28l-12.26,15.57-13.03-13.53c9.9-14.71,22.71-27.05,38.81-31.06Z"/>
      <path class="cls-1" d="M329.84,493.06c-8.01,4.86-16.91,7.55-25.85,8.9l-3.83-16.35c.31-1.66,1.08-3.32-.55-4.39-1.29-.85-2.17-.35-2.92,1.02-2.88,8.28-5.96,16.48-9.3,24.52-10.14-2.44-21.01-5.95-28.63-14.46l10.24-32.67c4.04,2,8.12,3.9,12.39,5.18,13.26,4,27.59,3.37,40.83-.29,3.23,9.21,5.72,18.83,7.62,28.54Z"/>
      <path class="cls-1" d="M314.57,551.1c.29-15.33-.6-30.63-2.74-45.73,5.74-1.18,11.32-3.27,16.66-5.92.74,4.69.95,9.46,1.18,14.22.41,8.46.44,16.98,0,25.48-.16,3.01-.45,6.07-.83,9.05-.29.64-2.82,1.58-3.53,1.82-3.47,1.18-7.14,1.55-10.74,1.08Z"/>
      <path class="cls-1" d="M263.21,502.42c4.31,2.73,8.83,4.81,13.52,6.48.96.34,2.8.64,3.58,1.07.2.11.36.18.32.5-.03.25-1.95,3.68-2.26,4.21-5.6,9.72-17.56,18.14-26.17,24.23-.63.45-2.87,2.19-3.36,2.14-.26-.03-.6-.26-.87-.37-4.25-1.85-7.1-7.82-7.68-12.85,8.4-7.45,17.03-15.06,22.92-25.41Z"/>
      <path class="cls-1" d="M246.53,456c-.31.3-.34-.08-.43-.29-.74-1.56-.65-5.87-3.43-4.54-.7.34-3.31,4.35-3.86,5.31-1.13,1.98-2.44,6.38-4.24,7.14-4.38,1.87-6.5-3.77-6.27-7.95.32-5.64,3.38-8.83,5.26-13.46,1.68-4.12,2.86-8.93,4.5-13.2,2.36-6.15,5.39-12.8,8.78-18.25.29-.47,1.86-3.04,2.12-2.97l9.31,9.86c-4.19,5.9-8.41,12.04-11.83,18.59-.73,1.39-2.69,4.78-2.68,6.24s1.96,3.89,2.54,5.49c.67,1.87,1.05,4.3.8,6.32-.03.27-.49,1.64-.58,1.72Z"/>
      <path class="cls-1" d="M236.53,530.63c.8,4.9,3.41,10.09,7,12.93,1.15.91,2.47,1.37,3.56,2.24.14,5.03,1.52,13.73-.79,18.12-1.61,3.07-3.49,2.28-5.71.57-4.31-3.33-8.27-14.8-9.53-20.57-.43-1.96-1.36-6.18-.85-8s4.95-4.03,6.32-5.29Z"/>
      <path class="cls-1" d="M313.79,564.74l.58-8.64c3.17.23,6.3.14,9.45-.53.99-.21,2.06-.47,3.01-.83.86-.32,3.15-1.81,3.72-1.85.79-.05,2.82.69,3.71.95,3.2.94,11.98,4.15,13.73,7.27.62,1.1-.18,2.24-.97,2.95-4.99,4.45-21.97,2.93-28.2,1.78-1.69-.31-3.34-.78-5.02-1.11Z"/>
    </g>
  </g>
</svg>