<?xml version="1.0" encoding="UTF-8"?>
<svg id="Layer_1" data-name="Layer 1" xmlns="http://www.w3.org/2000/svg" viewBox="0 0 346.53 284.38">
  <defs>
    <style>
      .cls-1, .cls-2 {
        fill: #010101;
      }

      .cls-3 {
        fill: #414141;
      }

      .cls-4 {
        stroke: #519fc1;
      }

      .cls-4, .cls-5 {
        stroke-miterlimit: 10;
      }

      .cls-6 {
        fill: #231f20;
      }

      .cls-7 {
        fill: #90c1e8;
      }

      .cls-8 {
        fill: #f8eab1;
      }

      .cls-9, .cls-10 {
        fill: #315692;
      }

      .cls-5 {
        fill: #fff;
        stroke: #231f20;
      }

      .cls-11 {
        fill: #5ba0d7;
      }

      .cls-12 {
        opacity: .4;
      }

      .cls-13, .cls-10 {
        opacity: .23;
      }

      .cls-14 {
        opacity: .15;
      }

      .cls-15 {
        fill: #394240;
      }

      .cls-10, .cls-2 {
        isolation: isolate;
      }

      .cls-16 {
        fill: #3e67b1;
      }

      .cls-2 {
        opacity: .2;
      }

      .cls-17 {
        fill: #516d80;
      }

      .cls-18 {
        fill: #b4cbb9;
      }
    </style>
  </defs>
  <ellipse class="cls-5" cx="219.55" cy="114.87" rx="126.48" ry="114.37"/>
  <circle class="cls-5" cx="79.6" cy="214.56" r="35.36"/>
  <circle class="cls-5" cx="22.37" cy="262.01" r="21.87"/>
  <path class="cls-4" d="M160.73,120.72c0-1.58-.52-3.1-1.46-4.28l-7.61-9.52c-.2-.25-.31-.58-.31-.92v-.71c.7-.43,1.17-1.26,1.17-2.21v-2.61c0-1.39-1.02-2.53-2.27-2.53h-7.04c-1.25,0-2.27,1.13-2.27,2.53v2.61c0,.95.47,1.78,1.17,2.21v.71c0,.34-.11.67-.31.92l-7.61,9.52c-.94,1.18-1.46,2.7-1.46,4.28v7.15c0,1.01.35,1.92.93,2.61-.57.68-.93,1.6-.93,2.61v1.3c0,1.01.35,1.92.93,2.61-.57.68-.93,1.6-.93,2.61v1.3c0,1.01.35,1.92.93,2.61-.57.68-.93,1.6-.93,2.61v1.3c0,1.01.35,1.92.93,2.61-.57.68-.93,1.6-.93,2.61v1.3c0,1.01.35,1.92.93,2.61-.57.68-.93,1.6-.93,2.61v1.3c0,1.01.35,1.92.93,2.61-.57.68-.93,1.6-.93,2.61v3.91c0,3.55,2.6,6.44,5.79,6.44h16.43c3.19,0,5.79-2.89,5.79-6.44v-3.91c0-1.01-.35-1.92-.93-2.61.57-.68.93-1.6.93-2.61v-1.3c0-1.01-.35-1.92-.93-2.61.57-.68.93-1.6.93-2.61v-1.3c0-1.01-.35-1.92-.93-2.61.57-.68.93-1.6.93-2.61v-1.3c0-1.01-.35-1.92-.93-2.61.57-.68.93-1.6.93-2.61v-1.3c0-1.01-.35-1.92-.93-2.61.57-.68.93-1.6.93-2.61v-1.3c0-1.01-.35-1.92-.93-2.61.57-.68.93-1.6.93-2.61v-7.15h0ZM143.13,100.47s.03-.08.07-.08h7.04s.07.04.07.08v2.61s-.03.08-.07.08h-7.04s-.07-.04-.07-.08v-2.61h0ZM135.83,118.06l7.61-9.52c.56-.7.87-1.61.87-2.55v-.39h4.84v.39c0,.94.31,1.84.87,2.55l7.61,9.52c.18.23.34.48.47.75h-22.74c.13-.27.29-.52.47-.75h0ZM158.53,169.61c0,2.2-1.61,3.99-3.59,3.99h-16.43c-1.98,0-3.59-1.79-3.59-3.99v-3.91c0-.76.56-1.39,1.25-1.39h21.12c.69,0,1.25.62,1.25,1.39v3.91h-.01ZM158.53,160.48c0,.76-.56,1.39-1.25,1.39h-21.12c-.69,0-1.25-.62-1.25-1.39v-1.3c0-.76.56-1.39,1.25-1.39h21.12c.69,0,1.25.62,1.25,1.39v1.3ZM158.53,153.95c0,.76-.56,1.39-1.25,1.39h-21.12c-.69,0-1.25-.62-1.25-1.39v-1.3c0-.76.56-1.39,1.25-1.39h21.12c.69,0,1.25.62,1.25,1.39v1.3ZM158.53,147.43c0,.76-.56,1.39-1.25,1.39h-21.12c-.69,0-1.25-.62-1.25-1.39v-1.3c0-.76.56-1.39,1.25-1.39h21.12c.69,0,1.25.62,1.25,1.39v1.3ZM158.53,140.91c0,.76-.56,1.39-1.25,1.39h-21.12c-.69,0-1.25-.62-1.25-1.39v-1.3c0-.76.56-1.39,1.25-1.39h21.12c.69,0,1.25.62,1.25,1.39v1.3ZM158.53,134.39c0,.76-.56,1.39-1.25,1.39h-21.12c-.69,0-1.25-.62-1.25-1.39v-1.3c0-.76.56-1.39,1.25-1.39h21.12c.69,0,1.25.62,1.25,1.39v1.3ZM158.53,127.87c0,.76-.56,1.39-1.25,1.39h-21.12c-.69,0-1.25-.62-1.25-1.39v-6.6h23.61v6.6h0Z"/>
  <g>
    <path class="cls-18" d="M258.91,194.15c0,1.05-.83,1.91-1.85,1.91h-38.85c-1.02,0-1.85-.85-1.85-1.91v-43.84h42.55v43.84h0Z"/>
    <path class="cls-8" d="M259.84,142.68h-44.4c-1.02,0-1.85.85-1.85,1.91v3.81h48.1v-3.81c0-1.05-.83-1.91-1.85-1.91Z"/>
    <path class="cls-17" d="M241.34,138.87h-7.4c-1.02,0-1.85.85-1.85,1.91h11.1c0-1.05-.83-1.91-1.85-1.91Z"/>
    <g>
      <path class="cls-15" d="M259.84,140.78h-14.8c0-2.11-1.65-3.81-3.7-3.81h-7.4c-2.05,0-3.7,1.71-3.7,3.81h-14.8c-2.05,0-3.7,1.71-3.7,3.81v4.77c0,.53.41.95.93.95h1.85v43.84c0,2.11,1.65,3.81,3.7,3.81h38.85c2.05,0,3.7-1.71,3.7-3.81v-43.84h1.85c.51,0,.93-.43.93-.95v-4.77c0-2.11-1.65-3.81-3.7-3.81h-.01ZM233.94,138.87h7.4c1.02,0,1.85.85,1.85,1.91h-11.1c0-1.05.83-1.91,1.85-1.91ZM258.91,194.15c0,1.05-.83,1.91-1.85,1.91h-38.85c-1.02,0-1.85-.85-1.85-1.91v-43.84h42.55v43.84h0ZM261.69,148.4h-48.1v-3.81c0-1.05.83-1.91,1.85-1.91h44.4c1.02,0,1.85.85,1.85,1.91v3.81Z"/>
      <path class="cls-15" d="M226.54,188.43c1.53,0,2.78-1.28,2.78-2.86v-24.78c0-1.58-1.24-2.86-2.78-2.86s-2.78,1.28-2.78,2.86v24.78c0,1.58,1.24,2.86,2.78,2.86ZM225.61,160.79c0-.53.41-.95.93-.95s.93.43.93.95v24.78c0,.53-.41.95-.93.95s-.93-.43-.93-.95v-24.78Z"/>
      <path class="cls-15" d="M237.64,188.43c1.53,0,2.78-1.28,2.78-2.86v-24.78c0-1.58-1.24-2.86-2.78-2.86s-2.78,1.28-2.78,2.86v24.78c0,1.58,1.24,2.86,2.78,2.86ZM236.71,160.79c0-.53.41-.95.93-.95s.93.43.93.95v24.78c0,.53-.41.95-.93.95s-.93-.43-.93-.95v-24.78Z"/>
      <path class="cls-15" d="M248.74,188.43c1.53,0,2.78-1.28,2.78-2.86v-24.78c0-1.58-1.24-2.86-2.78-2.86s-2.78,1.28-2.78,2.86v24.78c0,1.58,1.24,2.86,2.78,2.86ZM247.81,160.79c0-.53.41-.95.93-.95s.93.43.93.95v24.78c0,.53-.41.95-.93.95s-.93-.43-.93-.95v-24.78Z"/>
    </g>
    <g class="cls-14">
      <path class="cls-6" d="M226.54,159.84c-.51,0-.93.43-.93.95v24.78c0,.53.41.95.93.95s.93-.43.93-.95v-24.78c0-.53-.41-.95-.93-.95Z"/>
      <path class="cls-6" d="M237.64,159.84c-.51,0-.93.43-.93.95v24.78c0,.53.41.95.93.95s.93-.43.93-.95v-24.78c0-.53-.41-.95-.93-.95Z"/>
      <path class="cls-6" d="M248.74,159.84c-.51,0-.93.43-.93.95v24.78c0,.53.41.95.93.95s.93-.43.93-.95v-24.78c0-.53-.41-.95-.93-.95Z"/>
    </g>
  </g>
  <g>
    <path class="cls-16" d="M183.05,51.71s5.87-17.97,22.84-18.06c15.92-.09,19.7,11.77,19.7,11.77l-42.54,6.29h0Z"/>
    <path class="cls-7" d="M200.84,74.75c-14.08-4.83-28.34-16.03-28.34-16.03,0,0,22.18-18.2,40.03-18.2s25.68,24.02,25.68,24.02c0,0-7.83,12.38-25.68,12.38-1.18,0-2.37-.08-3.57-.23l-8.13-1.94h.01Z"/>
    <g class="cls-12">
      <path class="cls-16" d="M238.21,64.55s-4.97-15.25-16.02-21.45c-2.64,1.4-8.32,9.64-8.46,16.31-.15,7.1,2.01,13.55,6.63,16.65,12.33-2.8,17.85-11.52,17.85-11.52h0Z"/>
    </g>
    <g>
      <path class="cls-10" d="M212.53,70.59c-1.18,0-2.37-.08-3.57-.23l-8.13-1.94c-9.35-3.21-18.77-9.22-24.05-12.9-2.69,1.92-4.29,3.23-4.29,3.23,0,0,14.26,11.2,28.34,16.03l8.13,1.94c1.2.15,2.39.23,3.57.23,17.85,0,25.68-12.38,25.68-12.38,0,0-.55-1.7-1.71-4.2-3.17,3.55-10.87,10.21-23.97,10.21h0Z"/>
      <path class="cls-9" d="M238.21,66.04h-8.17c-.66,0-1.19-.67-1.19-1.49s.53-1.49,1.19-1.49h8.17c.66,0,1.19.67,1.19,1.49s-.53,1.49-1.19,1.49Z"/>
      <path class="cls-9" d="M213.73,60.71s0,18.02-12.89,21.97v-18.01c0-2,1.28-3.64,2.88-3.68l10.01-.28Z"/>
      <ellipse class="cls-9" cx="223.91" cy="58.13" rx="1.68" ry="2.11"/>
    </g>
    <path class="cls-11" d="M174.09,58.73s-.08-6.13-2.9-8.79c-2.81-2.66-11.47-5.11-11.47-5.11,0,0,4.26,10.4,7.07,13.06h0c.45.43.45,1.26,0,1.68h0c-2.81,2.67-7.07,13.07-7.07,13.07,0,0,8.65-2.45,11.47-5.11,2.81-2.66,2.9-8.79,2.9-8.79h0Z"/>
    <g class="cls-13">
      <path class="cls-9" d="M173.98,57.17c-.22,2-.87,5.42-2.79,7.24-2.06,1.95-7.27,3.79-9.9,4.63-.94,2.05-1.57,3.59-1.57,3.59,0,0,8.65-2.45,11.47-5.11,2.81-2.66,2.9-8.79,2.9-8.79h0s0-.62-.11-1.55h0Z"/>
    </g>
    <path class="cls-1" d="M239.24,65.29c.05-.1.09-.21.11-.33v-.04s.02-.09.02-.14v-.23h0v-.21c0-.05,0-.1-.02-.14v-.04c0-.05-.03-.1-.04-.16h0v-.02c-.15-.44-2.15-6.39-6.34-12.41-1.99-2.85-4.14-5.23-6.43-7.13-.4-1.01-1.58-3.57-4.08-6.09-2.81-2.83-7.93-6.18-16.39-6.18h-.18c-9.17.05-15.19,5.2-18.62,9.5-3.31,4.15-4.89,8.28-5.24,9.27-3.07,2.09-5.48,3.98-6.97,5.19-.33-2.27-1.15-5.5-3.14-7.38-2.98-2.82-11.56-5.27-11.92-5.37-.45-.13-.92.08-1.2.54s-.33,1.08-.12,1.6c.43,1.05,4.17,10.06,7.07,13.22-2.91,3.16-6.64,12.17-7.07,13.22-.21.52-.16,1.14.12,1.6.23.37.58.58.94.58.09,0,.18-.01.26-.04.36-.1,8.94-2.55,11.92-5.37,2.01-1.9,2.82-5.1,3.15-7.37,3.8,3.1,13.63,10.57,24.59,14.54v6.8c0,.46.17.89.46,1.17.21.21.47.32.74.32.09,0,.19-.01.28-.04,3.3-1.01,6.1-3,8.31-5.88,1.06.11,2.1.17,3.1.17,3.06,0,5.82-.36,8.3-.95.08,0,.17-.03.25-.06,5.09-1.25,8.95-3.44,11.59-5.39,4.33-3.2,6.39-6.41,6.47-6.55,0,0,0-.02,0-.02.02-.04.05-.08.07-.12,0-.01,0-.03.02-.04l-.02-.02ZM188.95,43.77c4.53-5.69,10.23-8.59,16.94-8.63h.17c6.09,0,11.19,1.87,14.78,5.4.18.17.34.35.5.52-2.81-1.34-5.77-2.03-8.82-2.03-7.59,0-16.48,3.11-26.44,9.25-.06.04-.12.08-.18.11.75-1.38,1.75-3,3.04-4.63h.01ZM170.47,66.33c-1.57,1.48-5.5,3.04-8.41,4.03,1.55-3.44,3.87-8.09,5.45-9.59h0c.52-.49.81-1.22.81-2.03s-.3-1.54-.82-2.04c-1.58-1.5-3.89-6.15-5.45-9.59,2.91.99,6.84,2.54,8.41,4.03,2.22,2.1,2.41,7.18,2.42,7.6,0,.42-.2,5.5-2.42,7.6h.01ZM202.03,80.69v-19.62c0-.82-.53-1.49-1.19-1.49s-1.19.67-1.19,1.49v11.7c-10.4-3.93-19.88-11.17-23.41-14.04,4.96-4.04,21.71-16.71,36.3-16.71,2.57,0,5.03.52,7.39,1.54-3.87,3.26-7.38,8.71-7.38,15.86,0,.36,0,.71.02,1.07,0,.07-.02.15-.02.23,0,.04-.02,4.27-1.52,8.95-.75,2.31-1.71,4.3-2.88,5.97-.05.06-.09.12-.13.19-1.61,2.22-3.6,3.85-5.97,4.87h-.02ZM211.27,75.4c.76-1.4,1.41-2.94,1.96-4.63.22-.7.42-1.38.59-2.05.82,2.57,2.02,4.71,3.6,6.37-1.53.21-3.16.33-4.88.33-.41,0-.83-.01-1.26-.03h-.01ZM220.88,74.42c-3.96-2.53-5.96-7.57-5.96-15,0-6.8,3.89-11.83,7.7-14.43.74.46,1.46.98,2.18,1.55.09.1.18.18.29.24,2.12,1.75,4.14,3.97,6.03,6.68,2.57,3.67,4.29,7.38,5.2,9.6h-6.28c-.66,0-1.19.67-1.19,1.49s.53,1.49,1.19,1.49h5.26c-2.42,2.58-7.13,6.53-14.41,8.38h0Z"/>
    <path class="cls-1" d="M223.91,54.53c-1.59,0-2.87,1.61-2.87,3.6s1.29,3.6,2.87,3.6,2.87-1.61,2.87-3.6-1.29-3.6-2.87-3.6ZM223.91,58.74c-.27,0-.49-.28-.49-.61s.22-.61.49-.61.49.28.49.61-.22.61-.49.61Z"/>
  </g>
  <g>
    <path class="cls-3" d="M302.21,68.26l-3.46-6.3-3.46,6.3c-19.96,0-33.97,58.81,1.05,58.81h4.8c35.03,0,21.02-58.81,1.05-58.81h.02Z"/>
    <path class="cls-2" d="M301.74,68.26l.23-.43-3.22-5.88-3.46,6.3c-19.96,0-33.97,58.81,1.05,58.81h4.8c.28,0,.55,0,.82-.01-33.99-.91-20.04-58.8-.23-58.8h.01Z"/>
    <path class="cls-1" d="M299.89,92.23c.17.52.64.85,1.14.85.13,0,.27-.02.4-.07l5.9-2.18h0s.05-.02.08-.04c.57-.27.86-.99.64-1.61l-2.2-6.16c-.23-.66-.93-.99-1.56-.74-.62.25-.94.98-.71,1.63l.95,2.66c-1.47-.66-3.05-1-4.67-1-2.89,0-5.68,1.1-7.85,3.1-.5.46-.55,1.26-.11,1.79.24.29.57.43.91.43.28,0,.57-.1.8-.31,1.73-1.59,3.95-2.47,6.26-2.47,1.55,0,3.06.4,4.41,1.14l-3.66,1.36c-.63.23-.96.96-.74,1.62h0Z"/>
    <path class="cls-1" d="M310.09,104.58c1.49-2.6,2.03-5.68,1.53-8.67-.12-.69-.74-1.15-1.4-1.03s-1.09.78-.98,1.47c.4,2.38-.03,4.83-1.22,6.91-.8,1.4-1.91,2.55-3.21,3.38l.79-4c.13-.69-.29-1.36-.94-1.5s-1.29.3-1.43.99l-1.27,6.44h0c-.05.25-.02.52.08.76.09.22.24.4.42.54.12.09.31.2.46.2l6.15,1.2c.07.01.15.02.22.02.57,0,1.08-.43,1.19-1.04.12-.69-.31-1.35-.97-1.48l-2.66-.52c1.29-.98,2.39-2.23,3.23-3.69v.02Z"/>
    <path class="cls-1" d="M294.93,100.84c.45-.51.42-1.32-.07-1.79l-4.59-4.46h0c-.21-.2-.49-.33-.78-.33-.36,0-.7.15-.94.43l-4.15,4.92c-.44.52-.4,1.33.1,1.79.23.21.52.32.8.32.33,0,.67-.14.9-.43l1.8-2.13c.13,1.67.58,3.31,1.34,4.81,1.35,2.69,3.58,4.76,6.27,5.85.14.06.29.08.43.08.49,0,.94-.31,1.13-.82.24-.65-.07-1.39-.7-1.64-2.15-.87-3.92-2.52-5-4.66-.72-1.44-1.1-3.03-1.1-4.64l2.85,2.77c.49.48,1.25.44,1.71-.07h0Z"/>
    <path class="cls-1" d="M319.29,117.26c.17.09.36.14.54.14.44,0,.87-.26,1.08-.7,2.53-5.26,3.41-11.98,2.56-19.42-.79-6.84-2.99-13.63-6.2-19.11-3.24-5.54-7.15-9.16-11.27-10.55.5-.39.98-.81,1.42-1.28,1.37-1.44,2.4-3.2,2.97-5.1.47-1.55.24-3.15-.62-4.39-.84-1.21-2.16-1.91-3.62-1.91-.5,0-1.01.08-1.51.25-.43.14-.85.31-1.27.51-.16-.45-.35-.88-.55-1.3-.83-1.69-2.35-2.7-4.07-2.7s-3.24,1.01-4.07,2.7c-.21.42-.39.86-.55,1.3-.41-.2-.84-.37-1.27-.51-.5-.17-1.01-.25-1.51-.25-1.46,0-2.77.7-3.62,1.91-.86,1.24-1.09,2.84-.62,4.39.57,1.89,1.6,3.65,2.97,5.1.45.47.92.9,1.43,1.29-2.51.85-4.96,2.53-7.23,4.99-.46.5-.45,1.31.03,1.8.48.49,1.24.48,1.71-.03,2.94-3.18,6.14-4.86,9.28-4.86h6.91c4.62,0,9.24,3.54,13.01,9.98,3.03,5.18,5.11,11.6,5.86,18.08.8,6.94,0,13.15-2.31,17.97-.3.63-.06,1.39.53,1.71h-.01ZM302.01,66.99h-6.52c-1.37-.49-2.64-1.33-3.7-2.44-1.1-1.16-1.92-2.56-2.38-4.07-.24-.78-.14-1.53.27-2.12.38-.55.99-.87,1.67-.87.25,0,.52.04.78.13.72.24,1.43.58,2.09,1.01.33.21.74.25,1.1.09.36-.16.62-.48.71-.88.18-.8.45-1.56.8-2.27.41-.83,1.13-1.33,1.92-1.33s1.51.5,1.92,1.33c.35.71.62,1.47.8,2.27.09.4.35.73.71.88.36.16.77.12,1.1-.09.66-.43,1.37-.77,2.09-1.01.26-.09.53-.13.78-.13.68,0,1.28.32,1.67.87.41.59.5,1.34.27,2.12-.46,1.51-1.28,2.91-2.38,4.07-1.06,1.11-2.33,1.95-3.7,2.44h0Z"/>
    <path class="cls-1" d="M276.73,117c2.57,5.17,8.06,11.33,19.62,11.33h4.8c7.36,0,13.1-2.47,17.06-7.34.43-.53.37-1.33-.13-1.79s-1.27-.39-1.7.14c-3.48,4.28-8.6,6.45-15.23,6.45h-4.8c-4.32,0-8.04-.94-11.05-2.78-2.72-1.67-4.88-4.09-6.42-7.19-2.49-5-3.32-11.78-2.34-19.11.92-6.86,3.37-13.71,6.74-18.8.38-.58.25-1.37-.3-1.77s-1.3-.26-1.68.32c-3.57,5.41-6.18,12.66-7.15,19.9-1.05,7.84-.13,15.17,2.59,20.64h0Z"/>
  </g>
</svg>