<svg width="210mm" height="297mm" viewBox="0 0 210 297" xmlns="http://www.w3.org/2000/svg"><path style="fill:#d0d0d0;fill-opacity:1;stroke-width:.122693" d="m93.711 152.197-.233-.276.276.234c.259.22.332.318.233.318-.023 0-.147-.124-.276-.276zm3.764-41.879c.006-.143.035-.172.074-.074.035.088.031.194-.01.235-.04.04-.07-.032-.064-.161zm14.56-5.776a.474.474 0 0 1 .307 0c.084.034.015.062-.154.062-.168 0-.237-.028-.153-.062zm2.83-.003c.088-.036.194-.031.235.01.04.04-.032.07-.161.064-.143-.006-.172-.035-.074-.074z" transform="translate(-4.64 13.565)"/><path style="fill:#b9b9b9;fill-opacity:1;stroke-width:.122693" d="m89.358 126.493-.297-.337.337.297c.315.278.394.377.297.377-.022 0-.173-.151-.337-.337zm23.474-21.96c.253-.026.668-.026.92 0 .254.027.047.049-.46.049-.506 0-.713-.022-.46-.048zm1.534.009a.474.474 0 0 1 .307 0c.084.034.015.062-.154.062-.168 0-.237-.028-.153-.062z" transform="translate(-4.64 13.565)"/><path style="fill:#a3a3a3;fill-opacity:1;stroke-width:.122693" d="m107.821 146.185-.234-.276.276.234c.152.129.276.253.276.276 0 .098-.098.026-.318-.234zm-10.21-32.176c.003-.202.03-.27.062-.151.03.12.029.285-.005.368-.033.083-.059-.015-.056-.217z" transform="translate(-4.64 13.565)"/><path style="fill:#8c8c8c;fill-opacity:1;stroke-width:.122693" d="M90.635 144.314c0-.472.022-.65.049-.396.026.255.026.641-.001.86-.027.217-.049.01-.048-.464zm24.475-5.789c.089-.035.194-.03.235.01.04.041-.032.07-.161.065-.143-.006-.172-.035-.074-.074z" transform="translate(-4.64 13.565)"/><path style="fill:#767676;fill-opacity:1;stroke-width:.122693" d="M92.05 153.854c-.152-.195-.147-.2.047-.047.118.093.215.19.215.215 0 .101-.1.036-.261-.168zm58.265-9.069a.474.474 0 0 1 .307 0c.084.034.015.062-.153.062-.17 0-.238-.028-.154-.062zm.86 0a.474.474 0 0 1 .306 0c.084.034.015.062-.154.062-.168 0-.237-.028-.153-.062zM114 138.52c.22-.027.552-.027.736.001.185.028.004.05-.4.05-.405 0-.556-.024-.336-.051zm-47.975-2.078a.474.474 0 0 1 .307 0c.084.034.015.062-.154.062-.168 0-.237-.028-.153-.062zm47.85-.253c.22-.027.578-.027.798 0 .22.027.04.05-.399.05s-.618-.023-.399-.05zm-16.278-22.926c.006-.143.035-.172.075-.074.035.088.03.194-.01.235-.04.04-.07-.032-.065-.161z" transform="translate(-4.64 13.565)"/><path style="fill:#606060;fill-opacity:1;stroke-width:.122693" d="M122.013 157.555c.006-.143.035-.172.075-.074.035.088.03.194-.01.235-.041.04-.07-.032-.065-.161zm28.8-12.772c.09-.036.195-.032.236.01.04.04-.032.07-.161.064-.143-.006-.172-.035-.074-.074zm-85.149-8.344c.09-.035.195-.03.236.01.04.041-.032.07-.161.065-.143-.006-.172-.035-.075-.074zm47.606-.245c.088-.035.194-.031.235.01.04.04-.032.07-.161.064-.143-.006-.172-.035-.074-.074zm1.84 0c.089-.035.194-.031.235.01.04.04-.032.07-.161.064-.143-.006-.172-.035-.074-.074zm-30.42-11.173c-.153-.195-.149-.2.046-.047.204.16.269.261.168.261-.025 0-.122-.096-.215-.214zm-19.248-3.513c0-.025.097-.122.215-.214.194-.153.199-.149.046.046-.16.204-.26.27-.26.168z" transform="translate(-4.64 13.565)"/><path style="fill:#494949;fill-opacity:1;stroke-width:.122693" d="M115.478 136.194c.089-.035.194-.031.235.01.041.04-.032.07-.16.064-.144-.006-.173-.035-.075-.074zm-29.492-9.885-.36-.399.398.36c.22.199.399.378.399.4 0 .094-.102.01-.437-.361zm-21.917-4.347c.089-.036.195-.031.236.01.04.04-.032.07-.161.064-.143-.006-.172-.035-.075-.074zm49.07-15.094c.152-.03.4-.03.552 0 .152.029.028.053-.276.053-.303 0-.428-.024-.276-.053z" transform="translate(-4.64 13.565)"/><path style="fill:#333;fill-opacity:1;stroke-width:.122693" d="M110.792 160.694c-7.726-.604-14.826-3.197-18.558-6.778-3.06-2.934-4.104-6.063-3.74-11.197.067-.944.077-1.733.023-1.753-.055-.02-.933-.499-1.951-1.065-2.311-1.285-4.374-2.66-6.566-4.378-.934-.732-1.778-1.33-1.875-1.33-.096 0-.96.242-1.92.54a46.488 46.488 0 0 1-5.794 1.382c-.946.165-1.942.214-4.355.216-2.79.002-3.264-.027-4.38-.271-5.605-1.23-9.76-4.649-10.528-8.661-.787-4.11.917-9.105 4.506-13.208 3.06-3.5 5.8-4.707 9.727-4.289 4.42.47 9.536 2.806 13.97 6.377l1.694 1.364 1.002-.98c3.783-3.7 9.673-7.555 14.156-9.266 3.265-1.246 8.189-2.29 12.489-2.649 1.884-.157 7.012-.157 8.527 0 8.782.91 18.997 5.194 26.434 11.084 1.488 1.18 4.492 4.164 5.635 5.6 2.366 2.974 3.665 5.631 3.464 7.092-.118.864-.784 1.956-1.884 3.09a36.131 36.131 0 0 0-1.013 1.067c0 .032 2.8.907 5.03 1.572 1.047.312 3.614 1.008 5.706 1.548 2.092.54 3.969 1.078 4.17 1.196.203.118.498.405.656.637.408.6.335 1.605-.171 2.337-1.129 1.634-5.106 3.43-9.65 4.356-1.86.38-5.529.533-7.275.304-2.474-.324-4.86-1.147-6.514-2.247-.783-.521-2.32-1.993-2.975-2.848l-.277-.362-.515.201c-.284.11-1.26.513-2.172.893-4.261 1.78-10.5 3.546-15.337 4.342-5.061.834-10.07 1.033-12.637.504-1.362-.281-1.31-.082.399 1.514 2.926 2.734 5.963 4.982 10.883 8.056 2.439 1.523 2.828 1.93 2.828 2.95 0 1.954-2.55 2.972-7.784 3.11-1.151.03-2.694.008-3.428-.05zm6.814-2.438c1.15-.236 1.944-.535 1.944-.732 0-.053-.566-.423-1.257-.823-6.689-3.869-12.195-8.505-17.33-14.59-.957-1.135-1.202-1.505-1.255-1.898-.057-.425-.017-.536.309-.862.233-.233.5-.374.708-.374.338 0 .505.148 2.115 1.876 1.075 1.153 2.986 1.9 5.565 2.17 1.531.162 6.112.158 7.78-.006 2.083-.205 6.124-.914 8.376-1.469 4.025-.991 10.136-3.17 13.822-4.926 5.577-2.658 8.681-4.562 10.837-6.648.974-.942 1.296-1.532 1.217-2.231-.067-.598-.432-1.394-.717-1.567-.153-.092-1.022.378-3.865 2.092-2.018 1.216-4.558 2.687-5.645 3.268-8.882 4.753-16.962 6.942-25.63 6.947-4.144.002-7.021-.334-10.65-1.242-5.134-1.285-9.266-3.298-13.213-6.437-1.45-1.153-6.29-6.056-8.4-8.508-.966-1.122-2.135-2.374-2.598-2.782-3.85-3.386-9.7-6.55-13.566-7.337-1.215-.247-3.145-.248-4.09-.002-1.462.38-2.833 1.378-4.636 3.37a17.818 17.818 0 0 0-2.847 4.23c-.674 1.381-.929 2.193-1.234 3.925-.341 1.94-.103 3.898.566 4.646l.346.386 1.512-.014c1.568-.015 2.939-.3 4.976-1.032.665-.24.812-.254 1.14-.118.415.172.734.674.734 1.156 0 .7-.813 1.172-3.067 1.777-.81.218-2.902.624-3.214.624-.218 0 .045.251.703.672 2.427 1.553 4.69 2.13 8.768 2.234 3.834.099 5.879-.251 10.281-1.76l1.999-.685.516.2c.284.11 1.234.781 2.111 1.492.878.71 2.368 1.81 3.313 2.44 1.649 1.103 4.589 2.822 4.676 2.734.023-.023.094-.41.158-.858.14-.984.175-1.048.702-1.269.36-.15.472-.149.844.006.686.287.718.48.5 2.993-.448 5.137-.365 7.247.358 9.174.795 2.116 2.352 3.936 4.641 5.424 3.202 2.08 8.483 3.876 13.028 4.43.607.075 1.27.158 1.472.185.203.028 1.638.03 3.19.006 2.205-.034 3.081-.097 4.007-.287zM63.172 121.68c-1.214-.8-1.011-2.892.344-3.548.292-.141.681-.257.865-.257 1.199 0 2.159 1.295 1.813 2.448-.172.575-.645 1.171-1.128 1.421-.504.26-1.45.228-1.894-.064zm91.959 20.507c1.996-.353 4.134-1.025 5.705-1.792 1.235-.603 2.393-1.407 2.393-1.662 0-.057-.87-.305-1.933-.552-2.941-.684-6.236-1.575-10.026-2.713-1.887-.566-3.585-1.03-3.774-1.03-.208 0-.932.355-1.844.903-.826.497-2.201 1.272-3.055 1.723-.855.45-1.62.899-1.7.996-.118.141-.073.269.227.647 1.578 1.993 4.079 3.235 7.443 3.696 1.378.19 4.942.072 6.564-.216zm-38.158-6.037c4.496-.283 8.644-1.099 12.744-2.506 2.16-.742 2.47-.878 2.47-1.083 0-.094-.282-.545-.628-1.002-.593-.783-2.143-3.12-5.384-8.119-1.668-2.574-2.037-2.989-2.652-2.989-.637 0-12.842 2.46-13.012 2.623-.08.076-.347 1.018-.596 2.094-.248 1.076-.894 3.56-1.436 5.521-1.31 4.74-1.305 4.718-1.039 4.912.258.19 1.938.418 4.012.547 2.294.142 3.293.143 5.521.003zm-12.36-1.23a1.13 1.13 0 0 0 .423-.346c.25-.402 2.472-8.44 2.918-10.556.287-1.366.22-1.46-1.912-2.671-3.749-2.13-6.548-3.595-6.869-3.595-.238 0-1.486.84-4.458 3.003-5.756 4.188-6.084 4.444-6.084 4.755 0 .169.382.632 1.073 1.3 3.889 3.759 7.615 5.999 12.914 7.762 1.588.528 1.597.53 1.995.349zm33.61-4.996c4.238-2.142 9.829-5.426 10.001-5.876.159-.412-2.546-3.33-5.485-5.92-1.315-1.157-3.829-2.953-5.807-4.147-1.608-.97-5.039-2.707-6.86-3.473l-.826-.348-.189.269c-.429.61-2.485 6.345-2.878 8.028l-.15.644.646 1.013c4.4 6.886 7.627 11.503 8.04 11.503.086 0 1.664-.762 3.507-1.693zm-49.739-7.595c3.07-2.107 6.185-4.36 7.708-5.576l1.55-1.236-.085-2.778c-.046-1.528-.112-2.874-.146-2.993-.035-.118-.155-.214-.269-.213-.556.003-5.594 2.682-7.69 4.09-2.079 1.394-6.05 4.608-6.321 5.114-.192.358-.143.726.153 1.143.346.488 2.765 3.279 3.023 3.488.256.207.28.196 2.077-1.039zm25.63-2.36c8.868-1.827 9.396-1.949 9.688-2.244.186-.188.725-1.602 1.641-4.309.75-2.216 1.346-4.046 1.324-4.067-.118-.11-2.411-.855-3.588-1.165-3.402-.897-6.243-1.25-10.015-1.248-3.405.002-5.68.174-8.416.633-2.163.364-4.813.924-4.932 1.043-.037.037.003 1.46.088 3.162.11 2.179.205 3.172.323 3.355.532.825 8.986 5.568 9.925 5.568.236 0 2.02-.328 3.963-.728z" transform="translate(-4.64 13.565)"/></svg>