<svg width="210mm" height="297mm" viewBox="0 0 210 297" xmlns="http://www.w3.org/2000/svg"><path style="fill:#d0d0d0;fill-opacity:1;stroke-width:.264583" d="M143.703 138.398c.191-.077.42-.067.507.02.088.088-.068.15-.347.14-.308-.013-.37-.076-.16-.16z" transform="translate(-10.352 8.032)"/><path style="fill:#b9b9b9;fill-opacity:1;stroke-width:.264583" d="M88.653 136.551c.182-.073.48-.073.662 0 .182.073.033.133-.33.133-.365 0-.514-.06-.332-.133zm-15.213-1.065c.254-.067.671-.067.926 0 .255.066.046.12-.463.12-.51 0-.718-.054-.463-.12zm31.22 0c.255-.067.672-.067.927 0 .254.066.046.12-.463.12-.51 0-.718-.054-.463-.12z" transform="translate(-10.352 8.032)"/><path style="fill:#a3a3a3;fill-opacity:1;stroke-width:.264583" d="M80.848 138.396c.255-.067.672-.067.926 0 .255.067.046.121-.463.121-.51 0-.718-.055-.463-.121zm15.23.002c.191-.076.42-.067.507.02.088.089-.068.151-.347.14-.308-.013-.37-.076-.16-.16zm-15.23-1.06c.255-.067.672-.067.926 0 .255.067.046.121-.463.121-.51 0-.718-.055-.463-.121zm47.101-.001c.257-.067.615-.063.794.01.179.072-.032.127-.468.122-.437-.005-.583-.065-.326-.132zm15.473.008c.182-.073.48-.073.662 0 .181.073.033.133-.331.133s-.513-.06-.33-.133z" transform="translate(-10.352 8.032)"/><path style="fill:#8c8c8c;fill-opacity:1;stroke-width:.264583" d="M96.855 138.403c.182-.073.48-.073.662 0 .182.074.033.134-.33.134-.365 0-.513-.06-.332-.134zm-.132-1.065c.255-.067.672-.067.926 0 .255.066.047.12-.463.12s-.718-.054-.463-.12zm-22.87-.792c.191-.077.42-.067.507.02.088.088-.068.15-.347.14-.308-.013-.37-.076-.16-.16zm31.221 0c.191-.077.42-.067.507.02.088.088-.068.15-.347.14-.308-.013-.371-.076-.16-.16z" transform="translate(-10.352 8.032)"/><path style="fill:#767676;fill-opacity:1;stroke-width:.264583" d="M88.67 135.487c.19-.076.42-.067.507.021.088.088-.068.15-.347.139-.308-.013-.371-.075-.16-.16zm61.764-.002c.254-.066.671-.066.926 0 .254.067.046.121-.463.121-.51 0-.718-.054-.463-.12z" transform="translate(-10.352 8.032)"/><path style="fill:#606060;fill-opacity:1;stroke-width:.264583" d="M112.334 137.338c.254-.067.671-.067.926 0 .254.066.046.12-.463.12-.51 0-.718-.054-.463-.12zm7.821-1.057c.191-.076.42-.067.507.02.088.089-.068.151-.347.14-.308-.013-.37-.076-.16-.16zm15.61 0c.192-.076.42-.067.508.02.088.089-.069.151-.347.14-.309-.013-.371-.076-.16-.16z" transform="translate(-10.352 8.032)"/><path style="fill:#494949;fill-opacity:1;stroke-width:.264583" d="M111.424 137.34c.191-.077.42-.068.507.02.088.088-.068.15-.347.14-.308-.014-.371-.076-.16-.16zm2.381 0c.191-.077.42-.068.507.02.088.088-.068.15-.347.14-.308-.014-.37-.076-.16-.16zm36.76-1.054c.183-.073.48-.073.662 0 .182.074.033.134-.33.134-.364 0-.513-.06-.331-.134zm-30.553-.801c.257-.068.614-.063.793.01.18.072-.031.127-.468.122-.436-.005-.583-.065-.325-.132zm15.61 0c.257-.068.615-.063.794.01.179.072-.032.127-.468.122-.437-.005-.583-.065-.326-.132z" transform="translate(-10.352 8.032)"/><path style="fill:#333;fill-opacity:1;stroke-width:.264583" d="M78.665 137.956c-.509-.202-1.502-.63-2.207-.953-.95-.436-1.653-.564-2.719-.498-1.167.072-1.423.014-1.358-.308.145-.72 2.742-.504 4.705.393 1.333.61 2.186.804 3.858.882 1.978.091 2.299.03 4.1-.786 1.701-.77 2.231-.885 4.072-.88 1.781.003 2.39.13 3.837.793 1.524.7 2.005.789 4.233.789 2.23 0 2.708-.09 4.234-.79 2.416-1.11 4.95-1.11 7.408 0 1.464.66 2.053.775 3.969.778 1.972.003 2.482-.101 4.145-.852 2.634-1.189 4.315-1.173 7.496.07 3.241 1.267 4.868 1.267 7.673 0 2.848-1.286 4.68-1.286 7.787 0 3.033 1.255 4.514 1.255 7.294 0 1.563-.705 2.406-.926 3.54-.926 1.023 0 1.488.105 1.488.335 0 .229-.5.346-1.577.371-1.175.027-2.068.262-3.502.922-2.604 1.198-4.487 1.186-7.49-.048-2.92-1.2-4.596-1.201-7.275-.005-1.664.743-2.305.888-3.969.897-1.673.01-2.317-.128-4.101-.879-2.939-1.236-4.797-1.236-7.54 0-1.72.776-2.268.896-4.102.898-1.786.002-2.385-.12-3.836-.781-1.463-.667-2.036-.782-3.837-.77-1.757.011-2.386.14-3.704.763-1.238.585-2.091.778-3.88.878-2.175.12-2.39.082-4.227-.764-1.73-.796-2.175-.89-4.19-.879-1.908.01-2.499.128-3.842.76-1.913.902-4.988 1.181-6.483.59z" transform="translate(-10.352 8.032)"/></svg>