<?xml version="1.0" encoding="UTF-8" standalone="no"?>
<!-- Created with Inkscape (http://www.inkscape.org/) -->

<svg
   width="210mm"
   height="297mm"
   viewBox="0 0 210 297"
   version="1.1"
   id="svg5"
   inkscape:version="1.1 (c68e22c387, 2021-05-23)"
   sodipodi:docname="waterline_01.svg"
   xmlns:inkscape="http://www.inkscape.org/namespaces/inkscape"
   xmlns:sodipodi="http://sodipodi.sourceforge.net/DTD/sodipodi-0.dtd"
   xmlns="http://www.w3.org/2000/svg"
   xmlns:svg="http://www.w3.org/2000/svg">
  <sodipodi:namedview
     id="namedview7"
     pagecolor="#ffffff"
     bordercolor="#666666"
     borderopacity="1.0"
     inkscape:pageshadow="2"
     inkscape:pageopacity="0.0"
     inkscape:pagecheckerboard="0"
     inkscape:document-units="mm"
     showgrid="false"
     inkscape:zoom="1.4823793"
     inkscape:cx="312.673"
     inkscape:cy="508.97903"
     inkscape:window-width="1920"
     inkscape:window-height="1017"
     inkscape:window-x="-8"
     inkscape:window-y="-8"
     inkscape:window-maximized="1"
     inkscape:current-layer="layer1"
     showguides="false" />
  <defs
     id="defs2" />
  <g
     inkscape:label="Layer 1"
     inkscape:groupmode="layer"
     id="layer1">
    <g
       id="g3270"
       transform="translate(-10.352164,8.0318512)">
      <path
         style="fill:#d0d0d0;fill-opacity:1;stroke-width:0.264583"
         d="m 143.70324,138.39759 c 0.19099,-0.0764 0.4192,-0.067 0.50712,0.0209 0.0879,0.0879 -0.0684,0.15045 -0.34727,0.13897 -0.30823,-0.0127 -0.37092,-0.0754 -0.15985,-0.15986 z"
         id="path3286" />
      <path
         style="fill:#b9b9b9;fill-opacity:1;stroke-width:0.264583"
         d="m 88.653367,136.55102 c 0.181901,-0.0734 0.479557,-0.0734 0.661458,0 0.181901,0.0734 0.03307,0.13345 -0.330729,0.13345 -0.363802,0 -0.51263,-0.0601 -0.330729,-0.13345 z m -15.213542,-1.06549 c 0.254662,-0.0666 0.67138,-0.0666 0.926042,0 0.254661,0.0665 0.0463,0.121 -0.463021,0.121 -0.509323,0 -0.717682,-0.0545 -0.463021,-0.121 z m 31.220835,0 c 0.25466,-0.0666 0.67138,-0.0666 0.92604,0 0.25466,0.0665 0.0463,0.121 -0.46302,0.121 -0.50932,0 -0.71768,-0.0545 -0.46302,-0.121 z"
         id="path3284" />
      <path
         style="fill:#a3a3a3;fill-opacity:1;stroke-width:0.264583"
         d="m 80.848159,138.39595 c 0.254661,-0.0666 0.67138,-0.0666 0.926041,0 0.254662,0.0666 0.0463,0.121 -0.463021,0.121 -0.509323,0 -0.717682,-0.0545 -0.46302,-0.121 z m 15.230078,0.002 c 0.190996,-0.0764 0.419199,-0.067 0.507118,0.0209 0.08792,0.0879 -0.06835,0.15045 -0.347266,0.13896 -0.308224,-0.0127 -0.370919,-0.0754 -0.159852,-0.15985 z m -15.230078,-1.05997 c 0.254661,-0.0665 0.67138,-0.0665 0.926041,0 0.254662,0.0666 0.0463,0.121 -0.463021,0.121 -0.509323,0 -0.717682,-0.0545 -0.46302,-0.121 z m 47.100871,-9.8e-4 c 0.25743,-0.0671 0.61462,-0.0627 0.79375,0.01 0.17913,0.0725 -0.0315,0.12736 -0.46806,0.12197 -0.43656,-0.005 -0.58312,-0.0647 -0.32569,-0.13178 z m 15.47309,0.008 c 0.1819,-0.0734 0.47955,-0.0734 0.66146,0 0.1819,0.0734 0.0331,0.13345 -0.33073,0.13345 -0.36381,0 -0.51263,-0.06 -0.33073,-0.13345 z"
         id="path3282" />
      <path
         style="fill:#8c8c8c;fill-opacity:1;stroke-width:0.264583"
         d="m 96.85545,138.4031 c 0.181901,-0.0734 0.479558,-0.0734 0.661459,0 0.181901,0.0734 0.03307,0.13346 -0.33073,0.13346 -0.363802,0 -0.51263,-0.0601 -0.330729,-0.13346 z m -0.132291,-1.06548 c 0.254661,-0.0665 0.67138,-0.0665 0.926041,0 0.254662,0.0666 0.0463,0.121 -0.463021,0.121 -0.509322,0 -0.717682,-0.0545 -0.46302,-0.121 z m -22.869922,-0.79211 c 0.190996,-0.0764 0.419199,-0.067 0.507118,0.0209 0.08792,0.0879 -0.06835,0.15045 -0.347266,0.13896 -0.308224,-0.0127 -0.370919,-0.0754 -0.159852,-0.15985 z m 31.220833,0 c 0.19099,-0.0764 0.4192,-0.067 0.50712,0.0209 0.0879,0.0879 -0.0684,0.15045 -0.34727,0.13896 -0.30822,-0.0127 -0.37092,-0.0754 -0.15985,-0.15985 z"
         id="path3280" />
      <path
         style="fill:#767676;fill-opacity:1;stroke-width:0.264583"
         d="m 88.669903,135.48718 c 0.190996,-0.0764 0.4192,-0.067 0.507119,0.0209 0.08792,0.0879 -0.06835,0.15046 -0.347266,0.13897 -0.308225,-0.0127 -0.370919,-0.0754 -0.159853,-0.15985 z m 61.763677,-0.002 c 0.25466,-0.0666 0.67138,-0.0666 0.92604,0 0.25466,0.0665 0.0463,0.121 -0.46302,0.121 -0.50933,0 -0.71769,-0.0545 -0.46302,-0.121 z"
         id="path3278" />
      <path
         style="fill:#606060;fill-opacity:1;stroke-width:0.264583"
         d="m 112.33358,137.33762 c 0.25466,-0.0665 0.67138,-0.0665 0.92604,0 0.25466,0.0666 0.0463,0.121 -0.46302,0.121 -0.50933,0 -0.71769,-0.0545 -0.46302,-0.121 z m 7.82174,-1.05669 c 0.19099,-0.0764 0.4192,-0.067 0.50712,0.0209 0.0879,0.0879 -0.0684,0.15046 -0.34727,0.13897 -0.30822,-0.0127 -0.37092,-0.0754 -0.15985,-0.15985 z m 15.61042,0 c 0.19099,-0.0764 0.41919,-0.067 0.50712,0.0209 0.0879,0.0879 -0.0684,0.15046 -0.34727,0.13897 -0.30823,-0.0127 -0.37092,-0.0754 -0.15985,-0.15985 z"
         id="path3276" />
      <path
         style="fill:#494949;fill-opacity:1;stroke-width:0.264583"
         d="m 111.42407,137.33926 c 0.19099,-0.0764 0.4192,-0.067 0.50712,0.0209 0.0879,0.0879 -0.0683,0.15045 -0.34727,0.13896 -0.30822,-0.0127 -0.37092,-0.0754 -0.15985,-0.15985 z m 2.38125,0 c 0.19099,-0.0764 0.4192,-0.067 0.50712,0.0209 0.0879,0.0879 -0.0683,0.15045 -0.34727,0.13896 -0.30822,-0.0127 -0.37092,-0.0754 -0.15985,-0.15985 z m 36.76055,-1.05282 c 0.1819,-0.0734 0.47955,-0.0734 0.66146,0 0.1819,0.0734 0.0331,0.13345 -0.33073,0.13345 -0.36381,0 -0.51263,-0.0601 -0.33073,-0.13345 z m -30.55434,-0.80188 c 0.25743,-0.0671 0.61462,-0.0627 0.79375,0.01 0.17913,0.0725 -0.0315,0.12736 -0.46806,0.12197 -0.43656,-0.005 -0.58312,-0.0647 -0.32569,-0.13178 z m 15.61041,0 c 0.25744,-0.0671 0.61462,-0.0627 0.79375,0.01 0.17913,0.0725 -0.0315,0.12736 -0.46805,0.12197 -0.43656,-0.005 -0.58313,-0.0647 -0.3257,-0.13178 z"
         id="path3274" />
      <path
         style="fill:#333333;fill-opacity:1;stroke-width:0.264583"
         d="m 78.665346,137.95595 c -0.509323,-0.20148 -1.502477,-0.6305 -2.207009,-0.95339 -0.949659,-0.43522 -1.652896,-0.56398 -2.718992,-0.49783 -1.167661,0.0725 -1.423001,0.0146 -1.358118,-0.30765 0.145068,-0.72052 2.742053,-0.50359 4.704661,0.39298 1.333193,0.60903 2.186381,0.804 3.857928,0.8816 1.978635,0.0918 2.298787,0.0305 4.101042,-0.78591 1.700388,-0.77027 2.230401,-0.88487 4.07153,-0.88039 1.781046,0.004 2.389358,0.13019 3.836458,0.79375 1.524501,0.69905 2.005216,0.7886 4.233333,0.7886 2.229348,0 2.707992,-0.0893 4.233331,-0.78963 2.41607,-1.10931 4.95106,-1.10974 7.40834,-0.001 1.46463,0.6607 2.05345,0.77633 3.96875,0.77934 1.97222,0.003 2.48231,-0.10177 4.14538,-0.85235 2.63388,-1.18873 4.31494,-1.173 7.49628,0.0701 3.24121,1.26653 4.86784,1.26653 7.67292,0 2.84819,-1.28599 4.68051,-1.28599 7.78713,0 3.03225,1.2552 4.51412,1.2552 7.29412,0 1.56241,-0.70545 2.40545,-0.92604 3.53903,-0.92604 1.02402,0 1.48805,0.10444 1.48805,0.33493 0,0.22867 -0.50027,0.34644 -1.57681,0.37119 -1.17496,0.027 -2.0674,0.26193 -3.50185,0.92183 -2.60335,1.19763 -4.48675,1.18547 -7.48905,-0.0483 -2.92006,-1.20001 -4.59658,-1.20112 -7.27604,-0.005 -1.66423,0.74303 -2.30452,0.88782 -3.96875,0.89749 -1.67295,0.01 -2.31656,-0.12825 -4.10104,-0.87911 -2.93872,-1.23654 -4.79654,-1.23637 -7.54062,6.7e-4 -1.71921,0.77503 -2.26723,0.89494 -4.10105,0.89731 -1.78616,0.002 -2.3852,-0.11966 -3.83645,-0.78119 -1.46262,-0.6667 -2.03631,-0.78188 -3.83646,-0.77026 -1.75691,0.0113 -2.38649,0.14113 -3.70417,0.76366 -1.23842,0.58508 -2.091551,0.77804 -3.879798,0.87751 -2.174961,0.12098 -2.391361,0.0819 -4.227549,-0.76366 -1.729313,-0.79634 -2.175185,-0.88986 -4.189993,-0.87886 -1.908081,0.0104 -2.498816,0.1273 -3.842242,0.76018 -1.912626,0.90103 -4.987823,1.18069 -6.482292,0.5895 z"
         id="path3272" />
    </g>
  </g>
</svg>
