<svg width="210mm" height="297mm" viewBox="0 0 210 297" xmlns="http://www.w3.org/2000/svg"><path style="fill:#d0d0d0;fill-opacity:1;stroke-width:.264583" d="M43.142 211.631c0-.055.208-.263.463-.463.42-.329.429-.32.1.1-.346.44-.563.58-.563.363zm70.859-23.629c.19-.076.419-.067.507.021.088.088-.068.15-.347.14-.309-.013-.371-.076-.16-.16zm-31.944-62.15c.012-.308.075-.371.16-.16.076.19.067.42-.021.507-.088.088-.15-.068-.14-.347zm66.918-3.153c.342-.364.681-.662.754-.662.073 0-.147.298-.49.662-.34.364-.68.661-.753.661-.073 0 .148-.297.49-.661zM20.52 118.862c.569-.582 1.093-1.058 1.166-1.058.073 0-.333.476-.901 1.058-.569.582-1.093 1.059-1.166 1.059-.073 0 .333-.477.901-1.059zm52.255-4.365c-.642-.655-1.109-1.19-1.036-1.19.073 0 .658.535 1.3 1.19.644.655 1.11 1.19 1.037 1.19-.073 0-.658-.535-1.3-1.19zM57.43 98.39c0-.055.209-.264.464-.463.42-.33.429-.32.1.1-.346.44-.564.58-.564.363zM24.741 82.813l-1.046-1.125 1.125 1.046c1.045.973 1.246 1.203 1.045 1.203-.043 0-.549-.506-1.124-1.124zm132.544-.53-.504-.595.595.504c.56.474.716.687.504.687-.05 0-.318-.268-.595-.595zM23 81.094c-.33-.42-.32-.429.1-.1.254.2.463.408.463.463 0 .218-.217.078-.563-.363zm171.087-3.506c.568-.582 1.093-1.058 1.166-1.058.072 0-.333.476-.902 1.058-.568.582-1.093 1.059-1.165 1.059-.073 0 .332-.477.9-1.059zm-7.805-8.566c0-.055.208-.264.463-.463.42-.33.429-.32.1.1-.346.44-.563.58-.563.363z" transform="translate(-.714 1.428)"/><path style="fill:#b9b9b9;fill-opacity:1;stroke-width:.264583" d="M117.176 188.267c.19-.076.419-.067.507.02.088.089-.068.151-.347.14-.309-.013-.371-.076-.16-.16zm-16.289-.266c.255-.067.672-.067.926 0 .255.066.047.12-.463.12-.509 0-.717-.054-.463-.12zM112.8 188c.257-.067.614-.063.793.01.18.072-.031.127-.468.122-.436-.005-.583-.065-.325-.132zm-36.634-56.354c.191-.076.42-.067.507.021.088.088-.068.15-.347.14-.308-.014-.37-.076-.16-.16zm74.133-10.27c.342-.364.681-.662.754-.662.073 0-.147.298-.49.662-.341.364-.68.661-.753.661-.073 0 .147-.297.49-.661zm-131.762-.53c.493-.509.957-.925 1.03-.925.072 0-.272.416-.766.926-.493.509-.957.926-1.03.926-.072 0 .272-.417.766-.926zm132.82-.496c0-.055.209-.263.464-.463.42-.33.429-.32.1.1-.346.44-.563.58-.563.363zm-75.286-2.612-1.046-1.125 1.125 1.046c1.046.973 1.246 1.203 1.046 1.203-.044 0-.55-.506-1.125-1.124zm82.41-34.264-.641-.727.727.641c.4.353.728.68.728.728 0 .207-.214.038-.814-.642zM20.514 78.58l-2.11-2.183 2.182 2.11c1.2 1.16 2.183 2.143 2.183 2.183 0 .193-.295-.083-2.255-2.11zm174.763-2.15c0-.056.209-.264.463-.464.42-.329.43-.32.1.1-.345.44-.563.58-.563.363zM70.383 69.054c.649-.692 1.214-1.257 1.257-1.257.198 0-.012.237-1.18 1.334l-1.257 1.18zm-43.93-.662-.641-.728.727.642c.68.6.85.814.642.814-.048 0-.375-.328-.728-.728zm160.622-.166c0-.055.209-.263.463-.463.42-.33.43-.32.1.1-.345.44-.563.58-.563.363z" transform="translate(-.714 1.428)"/><path style="fill:#a3a3a3;fill-opacity:1;stroke-width:.264583" d="M121.409 188.796c.191-.076.42-.067.507.021.088.088-.068.15-.347.139-.308-.013-.371-.075-.16-.16zm-3.175-12.7c.191-.076.42-.067.507.021.088.088-.068.15-.347.139-.308-.013-.371-.075-.16-.16zm-12.573-.545c.988-.05 2.536-.05 3.44.001.903.052.094.093-1.798.093-1.891 0-2.63-.043-1.642-.094zm86.64-44.164c.182-.073.48-.073.661 0 .182.074.033.134-.33.134-.364 0-.513-.06-.331-.134zm-6.16-3.86-1.58-1.653 1.654 1.579c1.537 1.467 1.775 1.728 1.58 1.728-.041 0-.785-.744-1.654-1.654zm-106.635-6.35-.778-.86.86.778c.802.724.982.942.777.942-.045 0-.432-.387-.86-.86zm-1.473-1.455c-.329-.42-.32-.429.1-.1.44.346.581.563.363.563-.055 0-.263-.208-.463-.463zm74.117-.166c0-.055.209-.263.463-.463.42-.329.43-.32.1.1-.345.44-.563.581-.563.363zm1.852-1.884c.494-.51.957-.926 1.03-.926.073 0-.271.416-.765.926-.494.509-.957.926-1.03.926-.073 0 .272-.417.765-.926zm.92-21.365-2.11-2.183 2.183 2.11c1.2 1.161 2.182 2.143 2.182 2.183 0 .193-.295-.083-2.255-2.11zm-3.714-3.705-.777-.86.86.778c.472.427.86.814.86.86 0 .204-.219.024-.943-.778zm10.854-5.556-1.313-1.389 1.39 1.313c1.29 1.22 1.51 1.465 1.312 1.465-.042 0-.667-.625-1.389-1.389zm-144.09-10.98c-.328-.42-.319-.429.1-.1.441.346.582.563.364.563-.055 0-.263-.208-.463-.463zm49.909-4.564c.716-.728 1.362-1.323 1.435-1.323.073 0-.454.595-1.17 1.323-.718.728-1.363 1.323-1.436 1.323-.073 0 .454-.595 1.17-1.323zm-39.167-.86-1.58-1.654 1.654 1.58c1.536 1.467 1.775 1.728 1.58 1.728-.041 0-.786-.744-1.654-1.654z" transform="translate(-.714 1.428)"/><path style="fill:#8c8c8c;fill-opacity:1;stroke-width:.264583" d="M26.87 128.652c.264-.291.539-.53.611-.53.073 0-.083.239-.346.53-.264.291-.539.53-.611.53-.073 0 .083-.239.346-.53zm1.852-1.852c.569-.582 1.093-1.058 1.166-1.058.073 0-.333.476-.901 1.058-.569.582-1.093 1.058-1.166 1.058-.073 0 .333-.476.901-1.058zm154.376-2.315-1.447-1.522 1.522 1.447c1.413 1.343 1.642 1.596 1.446 1.596-.041 0-.726-.685-1.521-1.521zm-28.037-7.822c0-.046.387-.433.86-.86l.86-.777-.778.86c-.724.801-.942.981-.942.777zm2.778-2.828c.568-.582 1.093-1.058 1.166-1.058.072 0-.333.476-.902 1.058-.568.582-1.093 1.059-1.165 1.059-.073 0 .332-.477.9-1.059zm-97.102-19.05c.263-.29.538-.529.611-.529.073 0-.083.238-.347.53-.263.29-.538.528-.61.528-.074 0 .082-.238.346-.529zm87.71-4.895c-1.085-1.09-1.912-1.984-1.84-1.984.073 0 1.02.893 2.104 1.984 1.084 1.092 1.911 1.985 1.839 1.985-.073 0-1.02-.893-2.104-1.985zm15.311-1.124c-.329-.42-.32-.429.1-.1.44.346.581.563.363.563-.055 0-.263-.208-.463-.463zm-18.501-2.117-.912-.992.992.912c.924.849 1.114 1.073.912 1.073-.044 0-.49-.447-.992-.993zM60.604 78.81c0-.055.209-.263.464-.463.42-.329.429-.32.1.1-.346.441-.564.581-.564.363zM63.383 76c1.01-1.019 1.897-1.852 1.97-1.852.073 0-.695.833-1.706 1.852-1.01 1.018-1.897 1.852-1.97 1.852-.073 0 .695-.834 1.706-1.852zm-31.76-2.448-1.313-1.389 1.389 1.313c.764.722 1.389 1.348 1.389 1.39 0 .197-.245-.023-1.465-1.314z" transform="translate(-.714 1.428)"/><path style="fill:#767676;fill-opacity:1;stroke-width:.264583" d="M94.157 188.532c.191-.077.42-.067.507.02.088.088-.068.151-.347.14-.308-.013-.371-.076-.16-.16zM32.162 123.36c.263-.29.538-.529.611-.529.073 0-.083.238-.347.53-.263.29-.538.528-.61.528-.074 0 .082-.238.346-.529zm128.984-12.832c.494-.51.957-.926 1.03-.926.073 0-.272.417-.765.926-.494.51-.957.926-1.03.926-.073 0 .272-.417.765-.926zm-98.822-17.33c.569-.582 1.093-1.059 1.166-1.059.073 0-.333.477-.901 1.059-.569.582-1.093 1.058-1.166 1.058-.073 0 .333-.476.901-1.058zm80.95-8.533-1.046-1.125 1.125 1.046c1.046.973 1.246 1.203 1.046 1.203-.043 0-.55-.506-1.125-1.124zm-84.003-4.498c1.096-1.168 1.333-1.378 1.333-1.18 0 .043-.565.608-1.256 1.257l-1.257 1.18zm-23.042-1.984c-.329-.42-.32-.43.1-.1.255.2.463.408.463.463 0 .218-.217.077-.563-.363zm-1.698-1.72-1.046-1.125 1.124 1.046c1.046.973 1.246 1.203 1.046 1.203-.043 0-.55-.506-1.124-1.124zm163.149-4.85c.012-.31.075-.372.16-.16.076.19.066.419-.022.506-.087.088-.15-.068-.138-.347z" transform="translate(-.714 1.428)"/><path style="fill:#606060;fill-opacity:1;stroke-width:.264583" d="M123.526 189.06c.19-.076.419-.066.507.022.088.088-.069.15-.347.139-.309-.013-.371-.076-.16-.16zm-24.358-13.223c.181-.073.48-.073.661 0 .182.074.033.134-.33.134-.365 0-.513-.06-.331-.134zm-65.022-54.461c.79-.8 1.497-1.455 1.57-1.455.072 0-.515.655-1.305 1.455-.79.8-1.497 1.455-1.57 1.455-.072 0 .515-.655 1.305-1.455zm128.588-12.436c.341-.363.68-.661.753-.661.073 0-.147.298-.489.661-.342.364-.68.662-.753.662-.073 0 .147-.298.489-.662zm-98.69-17.43c0-.055.208-.263.463-.463.42-.329.43-.32.1.1-.346.441-.563.581-.563.363zm-7.276-8.896c.717-.727 1.363-1.322 1.435-1.322.073 0-.454.595-1.17 1.322-.717.728-1.363 1.323-1.436 1.323-.072 0 .454-.595 1.171-1.323zm84.236-.198c-.329-.42-.32-.429.1-.1.44.346.58.563.363.563-.055 0-.263-.208-.463-.463zm-103.433-2.91-.911-.993.992.912c.546.502.992.948.992.992 0 .202-.224.012-1.073-.911z" transform="translate(-.714 1.428)"/><path style="fill:#494949;fill-opacity:1;stroke-width:.264583" d="M39.967 214.806c0-.055.208-.263.463-.463.42-.329.429-.32.1.1-.346.44-.563.58-.563.363zm-3.307-95.944c.568-.582 1.093-1.058 1.165-1.058.073 0-.332.476-.9 1.058-.57.582-1.094 1.059-1.166 1.059-.073 0 .332-.477.9-1.059zm126.867-10.683c0-.055.209-.263.463-.463.42-.329.43-.32.1.1-.345.44-.563.58-.563.363zm-98.16-17.992c0-.054.208-.263.463-.463.42-.329.429-.32.1.1-.346.441-.563.581-.563.363zm-12.039-4.133c.717-.728 1.363-1.323 1.436-1.323.073 0-.454.595-1.171 1.323-.717.728-1.363 1.323-1.435 1.323-.073 0 .454-.595 1.17-1.323zm-12.706-3.506-2.11-2.183 2.183 2.11c2.027 1.961 2.303 2.256 2.11 2.256-.04 0-1.022-.982-2.183-2.183z" transform="translate(-.714 1.428)"/><path style="fill:#333;fill-opacity:1;stroke-width:.264583" d="M20.27 236.207c-2.414-.86-3.785-2.623-4.013-5.162-.186-2.066.01-2.582 2.882-7.575 5.962-10.365 10.937-16.504 19.24-23.744 9.832-8.572 23.268-15.736 36.772-19.608 3.193-.915 10.759-2.647 12.573-2.878.583-.075 1.238-.196 1.456-.27.218-.074 1.11-.205 1.984-.292.873-.087 2.6-.275 3.836-.417 3.919-.452 16.82-.615 20.961-.265 17.662 1.49 33.331 6.33 46.92 14.489 14.17 8.507 23.893 18.684 32.56 34.078l2.085 3.705v2.16c0 1.977-.067 2.256-.802 3.3-1.006 1.432-2.79 2.55-4.423 2.774-2.58.353-5.454-1.547-6.568-4.34-.81-2.032-1.82-3.843-4.136-7.422-5.612-8.67-13.813-16.884-22.17-22.207-11.475-7.307-24.858-12.046-39.556-14.006-2.892-.385-5.385-.474-13.097-.467-8.505.008-9.936.072-13.361.6-7.668 1.18-9.276 1.51-14.353 2.955-14.612 4.158-25.916 10.374-35.319 19.422-6.286 6.049-12.62 14.61-15.628 21.119-1.129 2.443-2.02 3.343-4.006 4.044-1.396.492-2.469.494-3.836.007zM19.04 131.036c-2.782-1.47-3.844-4.718-2.455-7.505.229-.458 5.79-6.22 12.36-12.803l11.944-11.971-11.943-11.974c-7.818-7.838-12.136-12.359-12.5-13.088-1.224-2.455-.414-5.297 1.974-6.917 1.241-.843 1.402-.882 3.177-.77 1.463.091 2.094.27 2.905.82.57.387 5.027 4.663 9.906 9.502a3162.077 3162.077 0 0 0 11.686 11.544l2.814 2.746 11.811-11.724c6.496-6.448 12.213-11.997 12.705-12.33a5.684 5.684 0 0 1 7.31.767c.873.91 1.555 2.587 1.562 3.841.011 2.308-.495 2.91-11.8 14.033-5.87 5.777-11.29 11.2-12.041 12.052l-1.367 1.548 12.068 12.078c8.287 8.294 12.196 12.387 12.475 13.062 1.126 2.728-.261 6.047-3.034 7.257-1.39.607-3.834.348-5.308-.563-.646-.399-6.384-5.92-12.75-12.268L48.96 106.83l-5.49 5.423c-3.018 2.983-8.465 8.363-12.103 11.956-4.25 4.197-6.966 6.68-7.598 6.943-1.345.56-3.553.506-4.731-.116zm117.244-.033c-2.082-.83-3.71-3.26-3.703-5.526.007-2.421.363-2.847 12.83-15.344l11.75-11.778-11.72-11.773c-7.597-7.63-11.885-12.13-12.186-12.788-1.297-2.833-.175-6.048 2.624-7.517 1.176-.616 3.746-.583 4.963.066.547.29 6.265 5.797 12.706 12.235l11.711 11.707 11.769-11.793c6.472-6.485 12.067-11.95 12.433-12.143 1.916-1.014 4.634-.697 6.26.73 1.889 1.66 2.506 4.677 1.415 6.92-.34.7-4.586 5.135-12.17 12.714l-11.645 11.64 11.892 11.908c13.682 13.701 13.544 13.518 12.688 16.919-.811 3.221-4.41 4.984-7.551 3.699-.731-.3-4.434-3.821-12.935-12.303-6.55-6.537-12.022-11.884-12.158-11.884-.137 0-5.521 5.268-11.965 11.707-6.882 6.876-12.173 11.954-12.82 12.303-1.179.636-3.018.768-4.188.301z" transform="translate(-.714 1.428)"/></svg>